M48
; DRILL file {KiCad (5.1.7)-1} date 01/01/22 19:06:47
; FORMAT={-:-/ absolute / metric / decimal}
; #@! TF.CreationDate,2022-01-01T19:06:47+01:00
; #@! TF.GenerationSoftware,Kicad,Pcbnew,(5.1.7)-1
; #@! TF.FileFunction,Plated,1,4,PTH
FMAT,2
METRIC
T1C0.300
T2C0.400
T3C0.700
%
G90
G05
T1
X45.7Y-41.975
X49.025Y-64.25
X49.8Y-69.8
X50.15Y-62.35
X51.25Y-46.1
X51.4Y-52.5
X51.65Y-56.725
X52.2Y-74.85
X52.475Y-50.8
X53.95Y-65.65
X54.55Y-67.8
X54.75Y-66.15
X54.825Y-51.025
X55.2Y-42.425
X55.5Y-68.5
X55.75Y-60.325
X56.0Y-65.5
X56.5Y-69.5
X57.225Y-68.275
X57.5Y-66.95
X58.275Y-44.925
X58.85Y-49.8
X59.3Y-75.25
X60.0Y-81.75
X61.0Y-44.65
X61.5Y-88.8
X63.3Y-75.15
X63.75Y-42.5
X64.3Y-70.6
X67.325Y-75.375
X70.5Y-48.65
X72.65Y-55.25
X72.8Y-87.75
X73.25Y-97.0
X73.7Y-77.4
X74.503Y-62.548
X75.5Y-89.7
X76.35Y-92.1
X76.5Y-64.1
X76.85Y-83.9
X77.075Y-80.625
X77.7Y-86.7
X78.3Y-83.9
X80.0Y-82.0
X80.4Y-58.55
X81.0Y-87.35
X81.1Y-90.8
X81.55Y-59.2
X82.5Y-88.5
X83.0Y-71.4
X84.737Y-84.212
X87.5Y-81.5
X87.8Y-84.7
X88.4Y-63.4
X93.0Y-84.7
T2
X46.99Y-71.628
X48.85Y-68.9
X50.0Y-73.1
X50.038Y-71.628
X59.65Y-54.0
X59.825Y-55.0
X60.1Y-56.125
X61.0Y-56.525
X61.0Y-74.9
X61.6Y-68.155
X62.975Y-56.75
X63.775Y-57.775
X64.0Y-56.775
X64.85Y-57.8
X65.05Y-56.8
T3
X46.45Y-90.25G85X46.45Y-89.45
G05
X46.45Y-95.95G85X46.45Y-95.15
G05
X46.45Y-99.15G85X46.45Y-98.35
G05
X54.05Y-90.25G85X54.05Y-89.45
G05
X54.05Y-95.95G85X54.05Y-95.15
G05
X54.05Y-99.15G85X54.05Y-98.35
G05
T0
M30
