G04 #@! TF.GenerationSoftware,KiCad,Pcbnew,(5.1.7)-1*
G04 #@! TF.CreationDate,2022-01-01T19:06:31+01:00*
G04 #@! TF.ProjectId,expressDAC,65787072-6573-4734-9441-432e6b696361,rev?*
G04 #@! TF.SameCoordinates,Original*
G04 #@! TF.FileFunction,Soldermask,Top*
G04 #@! TF.FilePolarity,Negative*
%FSLAX46Y46*%
G04 Gerber Fmt 4.6, Leading zero omitted, Abs format (unit mm)*
G04 Created by KiCad (PCBNEW (5.1.7)-1) date 2022-01-01 19:06:31*
%MOMM*%
%LPD*%
G01*
G04 APERTURE LIST*
%ADD10C,3.000000*%
%ADD11R,0.700000X3.000000*%
%ADD12R,2.290000X3.000000*%
%ADD13O,1.200000X2.400000*%
%ADD14C,0.100000*%
%ADD15R,1.000000X1.150000*%
%ADD16R,1.000000X0.700000*%
%ADD17C,2.500000*%
%ADD18R,1.800000X0.450000*%
%ADD19R,0.450000X1.475000*%
%ADD20R,1.600000X1.300000*%
%ADD21C,0.254000*%
G04 APERTURE END LIST*
D10*
X70700000Y-59050000D03*
X46300000Y-79600000D03*
D11*
X72000000Y-39500000D03*
X71000000Y-39500000D03*
X70000000Y-39500000D03*
X69000000Y-39500000D03*
X68000000Y-39500000D03*
X67000000Y-39500000D03*
X66000000Y-39500000D03*
X65000000Y-39500000D03*
X64000000Y-39500000D03*
X63000000Y-39500000D03*
X62000000Y-39500000D03*
X61000000Y-39500000D03*
X60000000Y-39500000D03*
X59000000Y-39500000D03*
X58000000Y-39500000D03*
X57000000Y-39500000D03*
X56000000Y-39500000D03*
X55000000Y-39500000D03*
X54000000Y-39500000D03*
X53000000Y-39500000D03*
X52000000Y-39500000D03*
X51000000Y-39500000D03*
X50000000Y-39500000D03*
X49000000Y-39500000D03*
X48000000Y-39500000D03*
X47000000Y-39500000D03*
G36*
G01*
X75975000Y-93475000D02*
X75025000Y-93475000D01*
G75*
G02*
X74775000Y-93225000I0J250000D01*
G01*
X74775000Y-92550000D01*
G75*
G02*
X75025000Y-92300000I250000J0D01*
G01*
X75975000Y-92300000D01*
G75*
G02*
X76225000Y-92550000I0J-250000D01*
G01*
X76225000Y-93225000D01*
G75*
G02*
X75975000Y-93475000I-250000J0D01*
G01*
G37*
G36*
G01*
X75975000Y-91400000D02*
X75025000Y-91400000D01*
G75*
G02*
X74775000Y-91150000I0J250000D01*
G01*
X74775000Y-90475000D01*
G75*
G02*
X75025000Y-90225000I250000J0D01*
G01*
X75975000Y-90225000D01*
G75*
G02*
X76225000Y-90475000I0J-250000D01*
G01*
X76225000Y-91150000D01*
G75*
G02*
X75975000Y-91400000I-250000J0D01*
G01*
G37*
G36*
G01*
X92000000Y-89125001D02*
X92000000Y-88224999D01*
G75*
G02*
X92249999Y-87975000I249999J0D01*
G01*
X92950001Y-87975000D01*
G75*
G02*
X93200000Y-88224999I0J-249999D01*
G01*
X93200000Y-89125001D01*
G75*
G02*
X92950001Y-89375000I-249999J0D01*
G01*
X92249999Y-89375000D01*
G75*
G02*
X92000000Y-89125001I0J249999D01*
G01*
G37*
G36*
G01*
X90000000Y-89125001D02*
X90000000Y-88224999D01*
G75*
G02*
X90249999Y-87975000I249999J0D01*
G01*
X90950001Y-87975000D01*
G75*
G02*
X91200000Y-88224999I0J-249999D01*
G01*
X91200000Y-89125001D01*
G75*
G02*
X90950001Y-89375000I-249999J0D01*
G01*
X90249999Y-89375000D01*
G75*
G02*
X90000000Y-89125001I0J249999D01*
G01*
G37*
G36*
G01*
X91175000Y-86099999D02*
X91175000Y-87000001D01*
G75*
G02*
X90925001Y-87250000I-249999J0D01*
G01*
X90224999Y-87250000D01*
G75*
G02*
X89975000Y-87000001I0J249999D01*
G01*
X89975000Y-86099999D01*
G75*
G02*
X90224999Y-85850000I249999J0D01*
G01*
X90925001Y-85850000D01*
G75*
G02*
X91175000Y-86099999I0J-249999D01*
G01*
G37*
G36*
G01*
X93175000Y-86099999D02*
X93175000Y-87000001D01*
G75*
G02*
X92925001Y-87250000I-249999J0D01*
G01*
X92224999Y-87250000D01*
G75*
G02*
X91975000Y-87000001I0J249999D01*
G01*
X91975000Y-86099999D01*
G75*
G02*
X92224999Y-85850000I249999J0D01*
G01*
X92925001Y-85850000D01*
G75*
G02*
X93175000Y-86099999I0J-249999D01*
G01*
G37*
G36*
G01*
X93000000Y-98193750D02*
X93000000Y-99106250D01*
G75*
G02*
X92756250Y-99350000I-243750J0D01*
G01*
X92268750Y-99350000D01*
G75*
G02*
X92025000Y-99106250I0J243750D01*
G01*
X92025000Y-98193750D01*
G75*
G02*
X92268750Y-97950000I243750J0D01*
G01*
X92756250Y-97950000D01*
G75*
G02*
X93000000Y-98193750I0J-243750D01*
G01*
G37*
G36*
G01*
X94875000Y-98193750D02*
X94875000Y-99106250D01*
G75*
G02*
X94631250Y-99350000I-243750J0D01*
G01*
X94143750Y-99350000D01*
G75*
G02*
X93900000Y-99106250I0J243750D01*
G01*
X93900000Y-98193750D01*
G75*
G02*
X94143750Y-97950000I243750J0D01*
G01*
X94631250Y-97950000D01*
G75*
G02*
X94875000Y-98193750I0J-243750D01*
G01*
G37*
D12*
X63500000Y-48250000D03*
G36*
G01*
X62000000Y-50005000D02*
X62000000Y-50305000D01*
G75*
G02*
X61850000Y-50455000I-150000J0D01*
G01*
X60200000Y-50455000D01*
G75*
G02*
X60050000Y-50305000I0J150000D01*
G01*
X60050000Y-50005000D01*
G75*
G02*
X60200000Y-49855000I150000J0D01*
G01*
X61850000Y-49855000D01*
G75*
G02*
X62000000Y-50005000I0J-150000D01*
G01*
G37*
G36*
G01*
X62000000Y-48735000D02*
X62000000Y-49035000D01*
G75*
G02*
X61850000Y-49185000I-150000J0D01*
G01*
X60200000Y-49185000D01*
G75*
G02*
X60050000Y-49035000I0J150000D01*
G01*
X60050000Y-48735000D01*
G75*
G02*
X60200000Y-48585000I150000J0D01*
G01*
X61850000Y-48585000D01*
G75*
G02*
X62000000Y-48735000I0J-150000D01*
G01*
G37*
G36*
G01*
X62000000Y-47465000D02*
X62000000Y-47765000D01*
G75*
G02*
X61850000Y-47915000I-150000J0D01*
G01*
X60200000Y-47915000D01*
G75*
G02*
X60050000Y-47765000I0J150000D01*
G01*
X60050000Y-47465000D01*
G75*
G02*
X60200000Y-47315000I150000J0D01*
G01*
X61850000Y-47315000D01*
G75*
G02*
X62000000Y-47465000I0J-150000D01*
G01*
G37*
G36*
G01*
X62000000Y-46195000D02*
X62000000Y-46495000D01*
G75*
G02*
X61850000Y-46645000I-150000J0D01*
G01*
X60200000Y-46645000D01*
G75*
G02*
X60050000Y-46495000I0J150000D01*
G01*
X60050000Y-46195000D01*
G75*
G02*
X60200000Y-46045000I150000J0D01*
G01*
X61850000Y-46045000D01*
G75*
G02*
X62000000Y-46195000I0J-150000D01*
G01*
G37*
G36*
G01*
X66950000Y-46195000D02*
X66950000Y-46495000D01*
G75*
G02*
X66800000Y-46645000I-150000J0D01*
G01*
X65150000Y-46645000D01*
G75*
G02*
X65000000Y-46495000I0J150000D01*
G01*
X65000000Y-46195000D01*
G75*
G02*
X65150000Y-46045000I150000J0D01*
G01*
X66800000Y-46045000D01*
G75*
G02*
X66950000Y-46195000I0J-150000D01*
G01*
G37*
G36*
G01*
X66950000Y-47465000D02*
X66950000Y-47765000D01*
G75*
G02*
X66800000Y-47915000I-150000J0D01*
G01*
X65150000Y-47915000D01*
G75*
G02*
X65000000Y-47765000I0J150000D01*
G01*
X65000000Y-47465000D01*
G75*
G02*
X65150000Y-47315000I150000J0D01*
G01*
X66800000Y-47315000D01*
G75*
G02*
X66950000Y-47465000I0J-150000D01*
G01*
G37*
G36*
G01*
X66950000Y-48735000D02*
X66950000Y-49035000D01*
G75*
G02*
X66800000Y-49185000I-150000J0D01*
G01*
X65150000Y-49185000D01*
G75*
G02*
X65000000Y-49035000I0J150000D01*
G01*
X65000000Y-48735000D01*
G75*
G02*
X65150000Y-48585000I150000J0D01*
G01*
X66800000Y-48585000D01*
G75*
G02*
X66950000Y-48735000I0J-150000D01*
G01*
G37*
G36*
G01*
X66950000Y-50005000D02*
X66950000Y-50305000D01*
G75*
G02*
X66800000Y-50455000I-150000J0D01*
G01*
X65150000Y-50455000D01*
G75*
G02*
X65000000Y-50305000I0J150000D01*
G01*
X65000000Y-50005000D01*
G75*
G02*
X65150000Y-49855000I150000J0D01*
G01*
X66800000Y-49855000D01*
G75*
G02*
X66950000Y-50005000I0J-150000D01*
G01*
G37*
G36*
G01*
X66200000Y-55475000D02*
X66200000Y-54525000D01*
G75*
G02*
X66450000Y-54275000I250000J0D01*
G01*
X67125000Y-54275000D01*
G75*
G02*
X67375000Y-54525000I0J-250000D01*
G01*
X67375000Y-55475000D01*
G75*
G02*
X67125000Y-55725000I-250000J0D01*
G01*
X66450000Y-55725000D01*
G75*
G02*
X66200000Y-55475000I0J250000D01*
G01*
G37*
G36*
G01*
X64125000Y-55475000D02*
X64125000Y-54525000D01*
G75*
G02*
X64375000Y-54275000I250000J0D01*
G01*
X65050000Y-54275000D01*
G75*
G02*
X65300000Y-54525000I0J-250000D01*
G01*
X65300000Y-55475000D01*
G75*
G02*
X65050000Y-55725000I-250000J0D01*
G01*
X64375000Y-55725000D01*
G75*
G02*
X64125000Y-55475000I0J250000D01*
G01*
G37*
G36*
G01*
X68525000Y-52125000D02*
X69475000Y-52125000D01*
G75*
G02*
X69725000Y-52375000I0J-250000D01*
G01*
X69725000Y-53050000D01*
G75*
G02*
X69475000Y-53300000I-250000J0D01*
G01*
X68525000Y-53300000D01*
G75*
G02*
X68275000Y-53050000I0J250000D01*
G01*
X68275000Y-52375000D01*
G75*
G02*
X68525000Y-52125000I250000J0D01*
G01*
G37*
G36*
G01*
X68525000Y-54200000D02*
X69475000Y-54200000D01*
G75*
G02*
X69725000Y-54450000I0J-250000D01*
G01*
X69725000Y-55125000D01*
G75*
G02*
X69475000Y-55375000I-250000J0D01*
G01*
X68525000Y-55375000D01*
G75*
G02*
X68275000Y-55125000I0J250000D01*
G01*
X68275000Y-54450000D01*
G75*
G02*
X68525000Y-54200000I250000J0D01*
G01*
G37*
G36*
G01*
X57700000Y-44225000D02*
X57700000Y-43275000D01*
G75*
G02*
X57950000Y-43025000I250000J0D01*
G01*
X58625000Y-43025000D01*
G75*
G02*
X58875000Y-43275000I0J-250000D01*
G01*
X58875000Y-44225000D01*
G75*
G02*
X58625000Y-44475000I-250000J0D01*
G01*
X57950000Y-44475000D01*
G75*
G02*
X57700000Y-44225000I0J250000D01*
G01*
G37*
G36*
G01*
X55625000Y-44225000D02*
X55625000Y-43275000D01*
G75*
G02*
X55875000Y-43025000I250000J0D01*
G01*
X56550000Y-43025000D01*
G75*
G02*
X56800000Y-43275000I0J-250000D01*
G01*
X56800000Y-44225000D01*
G75*
G02*
X56550000Y-44475000I-250000J0D01*
G01*
X55875000Y-44475000D01*
G75*
G02*
X55625000Y-44225000I0J250000D01*
G01*
G37*
G36*
G01*
X54225000Y-47550000D02*
X53275000Y-47550000D01*
G75*
G02*
X53025000Y-47300000I0J250000D01*
G01*
X53025000Y-46625000D01*
G75*
G02*
X53275000Y-46375000I250000J0D01*
G01*
X54225000Y-46375000D01*
G75*
G02*
X54475000Y-46625000I0J-250000D01*
G01*
X54475000Y-47300000D01*
G75*
G02*
X54225000Y-47550000I-250000J0D01*
G01*
G37*
G36*
G01*
X54225000Y-49625000D02*
X53275000Y-49625000D01*
G75*
G02*
X53025000Y-49375000I0J250000D01*
G01*
X53025000Y-48700000D01*
G75*
G02*
X53275000Y-48450000I250000J0D01*
G01*
X54225000Y-48450000D01*
G75*
G02*
X54475000Y-48700000I0J-250000D01*
G01*
X54475000Y-49375000D01*
G75*
G02*
X54225000Y-49625000I-250000J0D01*
G01*
G37*
G36*
G01*
X58975000Y-48625000D02*
X58025000Y-48625000D01*
G75*
G02*
X57775000Y-48375000I0J250000D01*
G01*
X57775000Y-47700000D01*
G75*
G02*
X58025000Y-47450000I250000J0D01*
G01*
X58975000Y-47450000D01*
G75*
G02*
X59225000Y-47700000I0J-250000D01*
G01*
X59225000Y-48375000D01*
G75*
G02*
X58975000Y-48625000I-250000J0D01*
G01*
G37*
G36*
G01*
X58975000Y-46550000D02*
X58025000Y-46550000D01*
G75*
G02*
X57775000Y-46300000I0J250000D01*
G01*
X57775000Y-45625000D01*
G75*
G02*
X58025000Y-45375000I250000J0D01*
G01*
X58975000Y-45375000D01*
G75*
G02*
X59225000Y-45625000I0J-250000D01*
G01*
X59225000Y-46300000D01*
G75*
G02*
X58975000Y-46550000I-250000J0D01*
G01*
G37*
G36*
G01*
X50225000Y-68375000D02*
X49275000Y-68375000D01*
G75*
G02*
X49025000Y-68125000I0J250000D01*
G01*
X49025000Y-67450000D01*
G75*
G02*
X49275000Y-67200000I250000J0D01*
G01*
X50225000Y-67200000D01*
G75*
G02*
X50475000Y-67450000I0J-250000D01*
G01*
X50475000Y-68125000D01*
G75*
G02*
X50225000Y-68375000I-250000J0D01*
G01*
G37*
G36*
G01*
X50225000Y-66300000D02*
X49275000Y-66300000D01*
G75*
G02*
X49025000Y-66050000I0J250000D01*
G01*
X49025000Y-65375000D01*
G75*
G02*
X49275000Y-65125000I250000J0D01*
G01*
X50225000Y-65125000D01*
G75*
G02*
X50475000Y-65375000I0J-250000D01*
G01*
X50475000Y-66050000D01*
G75*
G02*
X50225000Y-66300000I-250000J0D01*
G01*
G37*
G36*
G01*
X48975000Y-72400000D02*
X48025000Y-72400000D01*
G75*
G02*
X47775000Y-72150000I0J250000D01*
G01*
X47775000Y-71475000D01*
G75*
G02*
X48025000Y-71225000I250000J0D01*
G01*
X48975000Y-71225000D01*
G75*
G02*
X49225000Y-71475000I0J-250000D01*
G01*
X49225000Y-72150000D01*
G75*
G02*
X48975000Y-72400000I-250000J0D01*
G01*
G37*
G36*
G01*
X48975000Y-74475000D02*
X48025000Y-74475000D01*
G75*
G02*
X47775000Y-74225000I0J250000D01*
G01*
X47775000Y-73550000D01*
G75*
G02*
X48025000Y-73300000I250000J0D01*
G01*
X48975000Y-73300000D01*
G75*
G02*
X49225000Y-73550000I0J-250000D01*
G01*
X49225000Y-74225000D01*
G75*
G02*
X48975000Y-74475000I-250000J0D01*
G01*
G37*
G36*
G01*
X61625000Y-72225000D02*
X61625000Y-71275000D01*
G75*
G02*
X61875000Y-71025000I250000J0D01*
G01*
X62550000Y-71025000D01*
G75*
G02*
X62800000Y-71275000I0J-250000D01*
G01*
X62800000Y-72225000D01*
G75*
G02*
X62550000Y-72475000I-250000J0D01*
G01*
X61875000Y-72475000D01*
G75*
G02*
X61625000Y-72225000I0J250000D01*
G01*
G37*
G36*
G01*
X63700000Y-72225000D02*
X63700000Y-71275000D01*
G75*
G02*
X63950000Y-71025000I250000J0D01*
G01*
X64625000Y-71025000D01*
G75*
G02*
X64875000Y-71275000I0J-250000D01*
G01*
X64875000Y-72225000D01*
G75*
G02*
X64625000Y-72475000I-250000J0D01*
G01*
X63950000Y-72475000D01*
G75*
G02*
X63700000Y-72225000I0J250000D01*
G01*
G37*
G36*
G01*
X61625000Y-69975000D02*
X61625000Y-69025000D01*
G75*
G02*
X61875000Y-68775000I250000J0D01*
G01*
X62550000Y-68775000D01*
G75*
G02*
X62800000Y-69025000I0J-250000D01*
G01*
X62800000Y-69975000D01*
G75*
G02*
X62550000Y-70225000I-250000J0D01*
G01*
X61875000Y-70225000D01*
G75*
G02*
X61625000Y-69975000I0J250000D01*
G01*
G37*
G36*
G01*
X63700000Y-69975000D02*
X63700000Y-69025000D01*
G75*
G02*
X63950000Y-68775000I250000J0D01*
G01*
X64625000Y-68775000D01*
G75*
G02*
X64875000Y-69025000I0J-250000D01*
G01*
X64875000Y-69975000D01*
G75*
G02*
X64625000Y-70225000I-250000J0D01*
G01*
X63950000Y-70225000D01*
G75*
G02*
X63700000Y-69975000I0J250000D01*
G01*
G37*
G36*
G01*
X63700000Y-74475000D02*
X63700000Y-73525000D01*
G75*
G02*
X63950000Y-73275000I250000J0D01*
G01*
X64625000Y-73275000D01*
G75*
G02*
X64875000Y-73525000I0J-250000D01*
G01*
X64875000Y-74475000D01*
G75*
G02*
X64625000Y-74725000I-250000J0D01*
G01*
X63950000Y-74725000D01*
G75*
G02*
X63700000Y-74475000I0J250000D01*
G01*
G37*
G36*
G01*
X61625000Y-74475000D02*
X61625000Y-73525000D01*
G75*
G02*
X61875000Y-73275000I250000J0D01*
G01*
X62550000Y-73275000D01*
G75*
G02*
X62800000Y-73525000I0J-250000D01*
G01*
X62800000Y-74475000D01*
G75*
G02*
X62550000Y-74725000I-250000J0D01*
G01*
X61875000Y-74725000D01*
G75*
G02*
X61625000Y-74475000I0J250000D01*
G01*
G37*
G36*
G01*
X60725000Y-86050000D02*
X59775000Y-86050000D01*
G75*
G02*
X59525000Y-85800000I0J250000D01*
G01*
X59525000Y-85125000D01*
G75*
G02*
X59775000Y-84875000I250000J0D01*
G01*
X60725000Y-84875000D01*
G75*
G02*
X60975000Y-85125000I0J-250000D01*
G01*
X60975000Y-85800000D01*
G75*
G02*
X60725000Y-86050000I-250000J0D01*
G01*
G37*
G36*
G01*
X60725000Y-88125000D02*
X59775000Y-88125000D01*
G75*
G02*
X59525000Y-87875000I0J250000D01*
G01*
X59525000Y-87200000D01*
G75*
G02*
X59775000Y-86950000I250000J0D01*
G01*
X60725000Y-86950000D01*
G75*
G02*
X60975000Y-87200000I0J-250000D01*
G01*
X60975000Y-87875000D01*
G75*
G02*
X60725000Y-88125000I-250000J0D01*
G01*
G37*
G36*
G01*
X61175000Y-80625000D02*
X59325000Y-80625000D01*
G75*
G02*
X59075000Y-80375000I0J250000D01*
G01*
X59075000Y-79375000D01*
G75*
G02*
X59325000Y-79125000I250000J0D01*
G01*
X61175000Y-79125000D01*
G75*
G02*
X61425000Y-79375000I0J-250000D01*
G01*
X61425000Y-80375000D01*
G75*
G02*
X61175000Y-80625000I-250000J0D01*
G01*
G37*
G36*
G01*
X61175000Y-83875000D02*
X59325000Y-83875000D01*
G75*
G02*
X59075000Y-83625000I0J250000D01*
G01*
X59075000Y-82625000D01*
G75*
G02*
X59325000Y-82375000I250000J0D01*
G01*
X61175000Y-82375000D01*
G75*
G02*
X61425000Y-82625000I0J-250000D01*
G01*
X61425000Y-83625000D01*
G75*
G02*
X61175000Y-83875000I-250000J0D01*
G01*
G37*
G36*
G01*
X71425000Y-92375000D02*
X70475000Y-92375000D01*
G75*
G02*
X70225000Y-92125000I0J250000D01*
G01*
X70225000Y-91450000D01*
G75*
G02*
X70475000Y-91200000I250000J0D01*
G01*
X71425000Y-91200000D01*
G75*
G02*
X71675000Y-91450000I0J-250000D01*
G01*
X71675000Y-92125000D01*
G75*
G02*
X71425000Y-92375000I-250000J0D01*
G01*
G37*
G36*
G01*
X71425000Y-90300000D02*
X70475000Y-90300000D01*
G75*
G02*
X70225000Y-90050000I0J250000D01*
G01*
X70225000Y-89375000D01*
G75*
G02*
X70475000Y-89125000I250000J0D01*
G01*
X71425000Y-89125000D01*
G75*
G02*
X71675000Y-89375000I0J-250000D01*
G01*
X71675000Y-90050000D01*
G75*
G02*
X71425000Y-90300000I-250000J0D01*
G01*
G37*
G36*
G01*
X74375000Y-79500000D02*
X75325000Y-79500000D01*
G75*
G02*
X75575000Y-79750000I0J-250000D01*
G01*
X75575000Y-80425000D01*
G75*
G02*
X75325000Y-80675000I-250000J0D01*
G01*
X74375000Y-80675000D01*
G75*
G02*
X74125000Y-80425000I0J250000D01*
G01*
X74125000Y-79750000D01*
G75*
G02*
X74375000Y-79500000I250000J0D01*
G01*
G37*
G36*
G01*
X74375000Y-77425000D02*
X75325000Y-77425000D01*
G75*
G02*
X75575000Y-77675000I0J-250000D01*
G01*
X75575000Y-78350000D01*
G75*
G02*
X75325000Y-78600000I-250000J0D01*
G01*
X74375000Y-78600000D01*
G75*
G02*
X74125000Y-78350000I0J250000D01*
G01*
X74125000Y-77675000D01*
G75*
G02*
X74375000Y-77425000I250000J0D01*
G01*
G37*
G36*
G01*
X79625000Y-78675000D02*
X79625000Y-79625000D01*
G75*
G02*
X79375000Y-79875000I-250000J0D01*
G01*
X78700000Y-79875000D01*
G75*
G02*
X78450000Y-79625000I0J250000D01*
G01*
X78450000Y-78675000D01*
G75*
G02*
X78700000Y-78425000I250000J0D01*
G01*
X79375000Y-78425000D01*
G75*
G02*
X79625000Y-78675000I0J-250000D01*
G01*
G37*
G36*
G01*
X77550000Y-78675000D02*
X77550000Y-79625000D01*
G75*
G02*
X77300000Y-79875000I-250000J0D01*
G01*
X76625000Y-79875000D01*
G75*
G02*
X76375000Y-79625000I0J250000D01*
G01*
X76375000Y-78675000D01*
G75*
G02*
X76625000Y-78425000I250000J0D01*
G01*
X77300000Y-78425000D01*
G75*
G02*
X77550000Y-78675000I0J-250000D01*
G01*
G37*
G36*
G01*
X83525000Y-86875000D02*
X82575000Y-86875000D01*
G75*
G02*
X82325000Y-86625000I0J250000D01*
G01*
X82325000Y-85950000D01*
G75*
G02*
X82575000Y-85700000I250000J0D01*
G01*
X83525000Y-85700000D01*
G75*
G02*
X83775000Y-85950000I0J-250000D01*
G01*
X83775000Y-86625000D01*
G75*
G02*
X83525000Y-86875000I-250000J0D01*
G01*
G37*
G36*
G01*
X83525000Y-84800000D02*
X82575000Y-84800000D01*
G75*
G02*
X82325000Y-84550000I0J250000D01*
G01*
X82325000Y-83875000D01*
G75*
G02*
X82575000Y-83625000I250000J0D01*
G01*
X83525000Y-83625000D01*
G75*
G02*
X83775000Y-83875000I0J-250000D01*
G01*
X83775000Y-84550000D01*
G75*
G02*
X83525000Y-84800000I-250000J0D01*
G01*
G37*
G36*
G01*
X76775000Y-98450000D02*
X77725000Y-98450000D01*
G75*
G02*
X77975000Y-98700000I0J-250000D01*
G01*
X77975000Y-99375000D01*
G75*
G02*
X77725000Y-99625000I-250000J0D01*
G01*
X76775000Y-99625000D01*
G75*
G02*
X76525000Y-99375000I0J250000D01*
G01*
X76525000Y-98700000D01*
G75*
G02*
X76775000Y-98450000I250000J0D01*
G01*
G37*
G36*
G01*
X76775000Y-96375000D02*
X77725000Y-96375000D01*
G75*
G02*
X77975000Y-96625000I0J-250000D01*
G01*
X77975000Y-97300000D01*
G75*
G02*
X77725000Y-97550000I-250000J0D01*
G01*
X76775000Y-97550000D01*
G75*
G02*
X76525000Y-97300000I0J250000D01*
G01*
X76525000Y-96625000D01*
G75*
G02*
X76775000Y-96375000I250000J0D01*
G01*
G37*
G36*
G01*
X67625000Y-76925000D02*
X67625000Y-75075000D01*
G75*
G02*
X67875000Y-74825000I250000J0D01*
G01*
X68875000Y-74825000D01*
G75*
G02*
X69125000Y-75075000I0J-250000D01*
G01*
X69125000Y-76925000D01*
G75*
G02*
X68875000Y-77175000I-250000J0D01*
G01*
X67875000Y-77175000D01*
G75*
G02*
X67625000Y-76925000I0J250000D01*
G01*
G37*
G36*
G01*
X70875000Y-76925000D02*
X70875000Y-75075000D01*
G75*
G02*
X71125000Y-74825000I250000J0D01*
G01*
X72125000Y-74825000D01*
G75*
G02*
X72375000Y-75075000I0J-250000D01*
G01*
X72375000Y-76925000D01*
G75*
G02*
X72125000Y-77175000I-250000J0D01*
G01*
X71125000Y-77175000D01*
G75*
G02*
X70875000Y-76925000I0J250000D01*
G01*
G37*
G36*
G01*
X81475000Y-86875000D02*
X80525000Y-86875000D01*
G75*
G02*
X80275000Y-86625000I0J250000D01*
G01*
X80275000Y-85950000D01*
G75*
G02*
X80525000Y-85700000I250000J0D01*
G01*
X81475000Y-85700000D01*
G75*
G02*
X81725000Y-85950000I0J-250000D01*
G01*
X81725000Y-86625000D01*
G75*
G02*
X81475000Y-86875000I-250000J0D01*
G01*
G37*
G36*
G01*
X81475000Y-84800000D02*
X80525000Y-84800000D01*
G75*
G02*
X80275000Y-84550000I0J250000D01*
G01*
X80275000Y-83875000D01*
G75*
G02*
X80525000Y-83625000I250000J0D01*
G01*
X81475000Y-83625000D01*
G75*
G02*
X81725000Y-83875000I0J-250000D01*
G01*
X81725000Y-84550000D01*
G75*
G02*
X81475000Y-84800000I-250000J0D01*
G01*
G37*
G36*
G01*
X68475000Y-81587500D02*
X67525000Y-81587500D01*
G75*
G02*
X67275000Y-81337500I0J250000D01*
G01*
X67275000Y-80662500D01*
G75*
G02*
X67525000Y-80412500I250000J0D01*
G01*
X68475000Y-80412500D01*
G75*
G02*
X68725000Y-80662500I0J-250000D01*
G01*
X68725000Y-81337500D01*
G75*
G02*
X68475000Y-81587500I-250000J0D01*
G01*
G37*
G36*
G01*
X68475000Y-79512500D02*
X67525000Y-79512500D01*
G75*
G02*
X67275000Y-79262500I0J250000D01*
G01*
X67275000Y-78587500D01*
G75*
G02*
X67525000Y-78337500I250000J0D01*
G01*
X68475000Y-78337500D01*
G75*
G02*
X68725000Y-78587500I0J-250000D01*
G01*
X68725000Y-79262500D01*
G75*
G02*
X68475000Y-79512500I-250000J0D01*
G01*
G37*
G36*
G01*
X51837500Y-60400000D02*
X51362500Y-60400000D01*
G75*
G02*
X51125000Y-60162500I0J237500D01*
G01*
X51125000Y-59562500D01*
G75*
G02*
X51362500Y-59325000I237500J0D01*
G01*
X51837500Y-59325000D01*
G75*
G02*
X52075000Y-59562500I0J-237500D01*
G01*
X52075000Y-60162500D01*
G75*
G02*
X51837500Y-60400000I-237500J0D01*
G01*
G37*
G36*
G01*
X51837500Y-58675000D02*
X51362500Y-58675000D01*
G75*
G02*
X51125000Y-58437500I0J237500D01*
G01*
X51125000Y-57837500D01*
G75*
G02*
X51362500Y-57600000I237500J0D01*
G01*
X51837500Y-57600000D01*
G75*
G02*
X52075000Y-57837500I0J-237500D01*
G01*
X52075000Y-58437500D01*
G75*
G02*
X51837500Y-58675000I-237500J0D01*
G01*
G37*
G36*
G01*
X55475000Y-55762500D02*
X55475000Y-56237500D01*
G75*
G02*
X55237500Y-56475000I-237500J0D01*
G01*
X54637500Y-56475000D01*
G75*
G02*
X54400000Y-56237500I0J237500D01*
G01*
X54400000Y-55762500D01*
G75*
G02*
X54637500Y-55525000I237500J0D01*
G01*
X55237500Y-55525000D01*
G75*
G02*
X55475000Y-55762500I0J-237500D01*
G01*
G37*
G36*
G01*
X57200000Y-55762500D02*
X57200000Y-56237500D01*
G75*
G02*
X56962500Y-56475000I-237500J0D01*
G01*
X56362500Y-56475000D01*
G75*
G02*
X56125000Y-56237500I0J237500D01*
G01*
X56125000Y-55762500D01*
G75*
G02*
X56362500Y-55525000I237500J0D01*
G01*
X56962500Y-55525000D01*
G75*
G02*
X57200000Y-55762500I0J-237500D01*
G01*
G37*
G36*
G01*
X61550000Y-43975000D02*
X61550000Y-43025000D01*
G75*
G02*
X61800000Y-42775000I250000J0D01*
G01*
X62475000Y-42775000D01*
G75*
G02*
X62725000Y-43025000I0J-250000D01*
G01*
X62725000Y-43975000D01*
G75*
G02*
X62475000Y-44225000I-250000J0D01*
G01*
X61800000Y-44225000D01*
G75*
G02*
X61550000Y-43975000I0J250000D01*
G01*
G37*
G36*
G01*
X59475000Y-43975000D02*
X59475000Y-43025000D01*
G75*
G02*
X59725000Y-42775000I250000J0D01*
G01*
X60400000Y-42775000D01*
G75*
G02*
X60650000Y-43025000I0J-250000D01*
G01*
X60650000Y-43975000D01*
G75*
G02*
X60400000Y-44225000I-250000J0D01*
G01*
X59725000Y-44225000D01*
G75*
G02*
X59475000Y-43975000I0J250000D01*
G01*
G37*
G36*
G01*
X56900001Y-49725000D02*
X55599999Y-49725000D01*
G75*
G02*
X55350000Y-49475001I0J249999D01*
G01*
X55350000Y-48649999D01*
G75*
G02*
X55599999Y-48400000I249999J0D01*
G01*
X56900001Y-48400000D01*
G75*
G02*
X57150000Y-48649999I0J-249999D01*
G01*
X57150000Y-49475001D01*
G75*
G02*
X56900001Y-49725000I-249999J0D01*
G01*
G37*
G36*
G01*
X56900001Y-46600000D02*
X55599999Y-46600000D01*
G75*
G02*
X55350000Y-46350001I0J249999D01*
G01*
X55350000Y-45524999D01*
G75*
G02*
X55599999Y-45275000I249999J0D01*
G01*
X56900001Y-45275000D01*
G75*
G02*
X57150000Y-45524999I0J-249999D01*
G01*
X57150000Y-46350001D01*
G75*
G02*
X56900001Y-46600000I-249999J0D01*
G01*
G37*
D13*
X46450000Y-89850000D03*
X54050000Y-98750000D03*
X54050000Y-89850000D03*
X54050000Y-95550000D03*
X46450000Y-95550000D03*
X46450000Y-98750000D03*
D14*
G36*
X51042000Y-44346000D02*
G01*
X51042000Y-44846000D01*
X51041398Y-44846000D01*
X51041398Y-44870534D01*
X51036588Y-44919365D01*
X51027016Y-44967490D01*
X51012772Y-45014445D01*
X50993995Y-45059778D01*
X50970864Y-45103051D01*
X50943604Y-45143850D01*
X50912476Y-45181779D01*
X50877779Y-45216476D01*
X50839850Y-45247604D01*
X50799051Y-45274864D01*
X50755778Y-45297995D01*
X50710445Y-45316772D01*
X50663490Y-45331016D01*
X50615365Y-45340588D01*
X50566534Y-45345398D01*
X50542000Y-45345398D01*
X50542000Y-45346000D01*
X50042000Y-45346000D01*
X50042000Y-45345398D01*
X50017466Y-45345398D01*
X49968635Y-45340588D01*
X49920510Y-45331016D01*
X49873555Y-45316772D01*
X49828222Y-45297995D01*
X49784949Y-45274864D01*
X49744150Y-45247604D01*
X49706221Y-45216476D01*
X49671524Y-45181779D01*
X49640396Y-45143850D01*
X49613136Y-45103051D01*
X49590005Y-45059778D01*
X49571228Y-45014445D01*
X49556984Y-44967490D01*
X49547412Y-44919365D01*
X49542602Y-44870534D01*
X49542602Y-44846000D01*
X49542000Y-44846000D01*
X49542000Y-44346000D01*
X51042000Y-44346000D01*
G37*
G36*
X49542602Y-43546000D02*
G01*
X49542602Y-43521466D01*
X49547412Y-43472635D01*
X49556984Y-43424510D01*
X49571228Y-43377555D01*
X49590005Y-43332222D01*
X49613136Y-43288949D01*
X49640396Y-43248150D01*
X49671524Y-43210221D01*
X49706221Y-43175524D01*
X49744150Y-43144396D01*
X49784949Y-43117136D01*
X49828222Y-43094005D01*
X49873555Y-43075228D01*
X49920510Y-43060984D01*
X49968635Y-43051412D01*
X50017466Y-43046602D01*
X50042000Y-43046602D01*
X50042000Y-43046000D01*
X50542000Y-43046000D01*
X50542000Y-43046602D01*
X50566534Y-43046602D01*
X50615365Y-43051412D01*
X50663490Y-43060984D01*
X50710445Y-43075228D01*
X50755778Y-43094005D01*
X50799051Y-43117136D01*
X50839850Y-43144396D01*
X50877779Y-43175524D01*
X50912476Y-43210221D01*
X50943604Y-43248150D01*
X50970864Y-43288949D01*
X50993995Y-43332222D01*
X51012772Y-43377555D01*
X51027016Y-43424510D01*
X51036588Y-43472635D01*
X51041398Y-43521466D01*
X51041398Y-43546000D01*
X51042000Y-43546000D01*
X51042000Y-44046000D01*
X49542000Y-44046000D01*
X49542000Y-43546000D01*
X49542602Y-43546000D01*
G37*
G36*
G01*
X60150000Y-52700001D02*
X60150000Y-51799999D01*
G75*
G02*
X60399999Y-51550000I249999J0D01*
G01*
X61100001Y-51550000D01*
G75*
G02*
X61350000Y-51799999I0J-249999D01*
G01*
X61350000Y-52700001D01*
G75*
G02*
X61100001Y-52950000I-249999J0D01*
G01*
X60399999Y-52950000D01*
G75*
G02*
X60150000Y-52700001I0J249999D01*
G01*
G37*
G36*
G01*
X62150000Y-52700001D02*
X62150000Y-51799999D01*
G75*
G02*
X62399999Y-51550000I249999J0D01*
G01*
X63100001Y-51550000D01*
G75*
G02*
X63350000Y-51799999I0J-249999D01*
G01*
X63350000Y-52700001D01*
G75*
G02*
X63100001Y-52950000I-249999J0D01*
G01*
X62399999Y-52950000D01*
G75*
G02*
X62150000Y-52700001I0J249999D01*
G01*
G37*
G36*
X47900000Y-69300000D02*
G01*
X47900000Y-69800000D01*
X47899398Y-69800000D01*
X47899398Y-69824534D01*
X47894588Y-69873365D01*
X47885016Y-69921490D01*
X47870772Y-69968445D01*
X47851995Y-70013778D01*
X47828864Y-70057051D01*
X47801604Y-70097850D01*
X47770476Y-70135779D01*
X47735779Y-70170476D01*
X47697850Y-70201604D01*
X47657051Y-70228864D01*
X47613778Y-70251995D01*
X47568445Y-70270772D01*
X47521490Y-70285016D01*
X47473365Y-70294588D01*
X47424534Y-70299398D01*
X47400000Y-70299398D01*
X47400000Y-70300000D01*
X46900000Y-70300000D01*
X46900000Y-70299398D01*
X46875466Y-70299398D01*
X46826635Y-70294588D01*
X46778510Y-70285016D01*
X46731555Y-70270772D01*
X46686222Y-70251995D01*
X46642949Y-70228864D01*
X46602150Y-70201604D01*
X46564221Y-70170476D01*
X46529524Y-70135779D01*
X46498396Y-70097850D01*
X46471136Y-70057051D01*
X46448005Y-70013778D01*
X46429228Y-69968445D01*
X46414984Y-69921490D01*
X46405412Y-69873365D01*
X46400602Y-69824534D01*
X46400602Y-69800000D01*
X46400000Y-69800000D01*
X46400000Y-69300000D01*
X47900000Y-69300000D01*
G37*
G36*
X46400602Y-68500000D02*
G01*
X46400602Y-68475466D01*
X46405412Y-68426635D01*
X46414984Y-68378510D01*
X46429228Y-68331555D01*
X46448005Y-68286222D01*
X46471136Y-68242949D01*
X46498396Y-68202150D01*
X46529524Y-68164221D01*
X46564221Y-68129524D01*
X46602150Y-68098396D01*
X46642949Y-68071136D01*
X46686222Y-68048005D01*
X46731555Y-68029228D01*
X46778510Y-68014984D01*
X46826635Y-68005412D01*
X46875466Y-68000602D01*
X46900000Y-68000602D01*
X46900000Y-68000000D01*
X47400000Y-68000000D01*
X47400000Y-68000602D01*
X47424534Y-68000602D01*
X47473365Y-68005412D01*
X47521490Y-68014984D01*
X47568445Y-68029228D01*
X47613778Y-68048005D01*
X47657051Y-68071136D01*
X47697850Y-68098396D01*
X47735779Y-68129524D01*
X47770476Y-68164221D01*
X47801604Y-68202150D01*
X47828864Y-68242949D01*
X47851995Y-68286222D01*
X47870772Y-68331555D01*
X47885016Y-68378510D01*
X47894588Y-68426635D01*
X47899398Y-68475466D01*
X47899398Y-68500000D01*
X47900000Y-68500000D01*
X47900000Y-69000000D01*
X46400000Y-69000000D01*
X46400000Y-68500000D01*
X46400602Y-68500000D01*
G37*
G36*
X73750000Y-55999398D02*
G01*
X73725466Y-55999398D01*
X73676635Y-55994588D01*
X73628510Y-55985016D01*
X73581555Y-55970772D01*
X73536222Y-55951995D01*
X73492949Y-55928864D01*
X73452150Y-55901604D01*
X73414221Y-55870476D01*
X73379524Y-55835779D01*
X73348396Y-55797850D01*
X73321136Y-55757051D01*
X73298005Y-55713778D01*
X73279228Y-55668445D01*
X73264984Y-55621490D01*
X73255412Y-55573365D01*
X73250602Y-55524534D01*
X73250602Y-55500000D01*
X73250000Y-55500000D01*
X73250000Y-55000000D01*
X73250602Y-55000000D01*
X73250602Y-54975466D01*
X73255412Y-54926635D01*
X73264984Y-54878510D01*
X73279228Y-54831555D01*
X73298005Y-54786222D01*
X73321136Y-54742949D01*
X73348396Y-54702150D01*
X73379524Y-54664221D01*
X73414221Y-54629524D01*
X73452150Y-54598396D01*
X73492949Y-54571136D01*
X73536222Y-54548005D01*
X73581555Y-54529228D01*
X73628510Y-54514984D01*
X73676635Y-54505412D01*
X73725466Y-54500602D01*
X73750000Y-54500602D01*
X73750000Y-54500000D01*
X74250000Y-54500000D01*
X74250000Y-56000000D01*
X73750000Y-56000000D01*
X73750000Y-55999398D01*
G37*
G36*
X74550000Y-54500000D02*
G01*
X75050000Y-54500000D01*
X75050000Y-54500602D01*
X75074534Y-54500602D01*
X75123365Y-54505412D01*
X75171490Y-54514984D01*
X75218445Y-54529228D01*
X75263778Y-54548005D01*
X75307051Y-54571136D01*
X75347850Y-54598396D01*
X75385779Y-54629524D01*
X75420476Y-54664221D01*
X75451604Y-54702150D01*
X75478864Y-54742949D01*
X75501995Y-54786222D01*
X75520772Y-54831555D01*
X75535016Y-54878510D01*
X75544588Y-54926635D01*
X75549398Y-54975466D01*
X75549398Y-55000000D01*
X75550000Y-55000000D01*
X75550000Y-55500000D01*
X75549398Y-55500000D01*
X75549398Y-55524534D01*
X75544588Y-55573365D01*
X75535016Y-55621490D01*
X75520772Y-55668445D01*
X75501995Y-55713778D01*
X75478864Y-55757051D01*
X75451604Y-55797850D01*
X75420476Y-55835779D01*
X75385779Y-55870476D01*
X75347850Y-55901604D01*
X75307051Y-55928864D01*
X75263778Y-55951995D01*
X75218445Y-55970772D01*
X75171490Y-55985016D01*
X75123365Y-55994588D01*
X75074534Y-55999398D01*
X75050000Y-55999398D01*
X75050000Y-56000000D01*
X74550000Y-56000000D01*
X74550000Y-54500000D01*
G37*
G36*
X61900000Y-54000000D02*
G01*
X62400000Y-54000000D01*
X62400000Y-54000602D01*
X62424534Y-54000602D01*
X62473365Y-54005412D01*
X62521490Y-54014984D01*
X62568445Y-54029228D01*
X62613778Y-54048005D01*
X62657051Y-54071136D01*
X62697850Y-54098396D01*
X62735779Y-54129524D01*
X62770476Y-54164221D01*
X62801604Y-54202150D01*
X62828864Y-54242949D01*
X62851995Y-54286222D01*
X62870772Y-54331555D01*
X62885016Y-54378510D01*
X62894588Y-54426635D01*
X62899398Y-54475466D01*
X62899398Y-54500000D01*
X62900000Y-54500000D01*
X62900000Y-55000000D01*
X62899398Y-55000000D01*
X62899398Y-55024534D01*
X62894588Y-55073365D01*
X62885016Y-55121490D01*
X62870772Y-55168445D01*
X62851995Y-55213778D01*
X62828864Y-55257051D01*
X62801604Y-55297850D01*
X62770476Y-55335779D01*
X62735779Y-55370476D01*
X62697850Y-55401604D01*
X62657051Y-55428864D01*
X62613778Y-55451995D01*
X62568445Y-55470772D01*
X62521490Y-55485016D01*
X62473365Y-55494588D01*
X62424534Y-55499398D01*
X62400000Y-55499398D01*
X62400000Y-55500000D01*
X61900000Y-55500000D01*
X61900000Y-54000000D01*
G37*
G36*
X61100000Y-55499398D02*
G01*
X61075466Y-55499398D01*
X61026635Y-55494588D01*
X60978510Y-55485016D01*
X60931555Y-55470772D01*
X60886222Y-55451995D01*
X60842949Y-55428864D01*
X60802150Y-55401604D01*
X60764221Y-55370476D01*
X60729524Y-55335779D01*
X60698396Y-55297850D01*
X60671136Y-55257051D01*
X60648005Y-55213778D01*
X60629228Y-55168445D01*
X60614984Y-55121490D01*
X60605412Y-55073365D01*
X60600602Y-55024534D01*
X60600602Y-55000000D01*
X60600000Y-55000000D01*
X60600000Y-54500000D01*
X60600602Y-54500000D01*
X60600602Y-54475466D01*
X60605412Y-54426635D01*
X60614984Y-54378510D01*
X60629228Y-54331555D01*
X60648005Y-54286222D01*
X60671136Y-54242949D01*
X60698396Y-54202150D01*
X60729524Y-54164221D01*
X60764221Y-54129524D01*
X60802150Y-54098396D01*
X60842949Y-54071136D01*
X60886222Y-54048005D01*
X60931555Y-54029228D01*
X60978510Y-54014984D01*
X61026635Y-54005412D01*
X61075466Y-54000602D01*
X61100000Y-54000602D01*
X61100000Y-54000000D01*
X61600000Y-54000000D01*
X61600000Y-55500000D01*
X61100000Y-55500000D01*
X61100000Y-55499398D01*
G37*
G36*
X63900000Y-63650602D02*
G01*
X63924534Y-63650602D01*
X63973365Y-63655412D01*
X64021490Y-63664984D01*
X64068445Y-63679228D01*
X64113778Y-63698005D01*
X64157051Y-63721136D01*
X64197850Y-63748396D01*
X64235779Y-63779524D01*
X64270476Y-63814221D01*
X64301604Y-63852150D01*
X64328864Y-63892949D01*
X64351995Y-63936222D01*
X64370772Y-63981555D01*
X64385016Y-64028510D01*
X64394588Y-64076635D01*
X64399398Y-64125466D01*
X64399398Y-64150000D01*
X64400000Y-64150000D01*
X64400000Y-64650000D01*
X64399398Y-64650000D01*
X64399398Y-64674534D01*
X64394588Y-64723365D01*
X64385016Y-64771490D01*
X64370772Y-64818445D01*
X64351995Y-64863778D01*
X64328864Y-64907051D01*
X64301604Y-64947850D01*
X64270476Y-64985779D01*
X64235779Y-65020476D01*
X64197850Y-65051604D01*
X64157051Y-65078864D01*
X64113778Y-65101995D01*
X64068445Y-65120772D01*
X64021490Y-65135016D01*
X63973365Y-65144588D01*
X63924534Y-65149398D01*
X63900000Y-65149398D01*
X63900000Y-65150000D01*
X63400000Y-65150000D01*
X63400000Y-63650000D01*
X63900000Y-63650000D01*
X63900000Y-63650602D01*
G37*
G36*
X63100000Y-65150000D02*
G01*
X62600000Y-65150000D01*
X62600000Y-65149398D01*
X62575466Y-65149398D01*
X62526635Y-65144588D01*
X62478510Y-65135016D01*
X62431555Y-65120772D01*
X62386222Y-65101995D01*
X62342949Y-65078864D01*
X62302150Y-65051604D01*
X62264221Y-65020476D01*
X62229524Y-64985779D01*
X62198396Y-64947850D01*
X62171136Y-64907051D01*
X62148005Y-64863778D01*
X62129228Y-64818445D01*
X62114984Y-64771490D01*
X62105412Y-64723365D01*
X62100602Y-64674534D01*
X62100602Y-64650000D01*
X62100000Y-64650000D01*
X62100000Y-64150000D01*
X62100602Y-64150000D01*
X62100602Y-64125466D01*
X62105412Y-64076635D01*
X62114984Y-64028510D01*
X62129228Y-63981555D01*
X62148005Y-63936222D01*
X62171136Y-63892949D01*
X62198396Y-63852150D01*
X62229524Y-63814221D01*
X62264221Y-63779524D01*
X62302150Y-63748396D01*
X62342949Y-63721136D01*
X62386222Y-63698005D01*
X62431555Y-63679228D01*
X62478510Y-63664984D01*
X62526635Y-63655412D01*
X62575466Y-63650602D01*
X62600000Y-63650602D01*
X62600000Y-63650000D01*
X63100000Y-63650000D01*
X63100000Y-65150000D01*
G37*
G36*
X63100000Y-67750000D02*
G01*
X62600000Y-67750000D01*
X62600000Y-67749398D01*
X62575466Y-67749398D01*
X62526635Y-67744588D01*
X62478510Y-67735016D01*
X62431555Y-67720772D01*
X62386222Y-67701995D01*
X62342949Y-67678864D01*
X62302150Y-67651604D01*
X62264221Y-67620476D01*
X62229524Y-67585779D01*
X62198396Y-67547850D01*
X62171136Y-67507051D01*
X62148005Y-67463778D01*
X62129228Y-67418445D01*
X62114984Y-67371490D01*
X62105412Y-67323365D01*
X62100602Y-67274534D01*
X62100602Y-67250000D01*
X62100000Y-67250000D01*
X62100000Y-66750000D01*
X62100602Y-66750000D01*
X62100602Y-66725466D01*
X62105412Y-66676635D01*
X62114984Y-66628510D01*
X62129228Y-66581555D01*
X62148005Y-66536222D01*
X62171136Y-66492949D01*
X62198396Y-66452150D01*
X62229524Y-66414221D01*
X62264221Y-66379524D01*
X62302150Y-66348396D01*
X62342949Y-66321136D01*
X62386222Y-66298005D01*
X62431555Y-66279228D01*
X62478510Y-66264984D01*
X62526635Y-66255412D01*
X62575466Y-66250602D01*
X62600000Y-66250602D01*
X62600000Y-66250000D01*
X63100000Y-66250000D01*
X63100000Y-67750000D01*
G37*
G36*
X63900000Y-66250602D02*
G01*
X63924534Y-66250602D01*
X63973365Y-66255412D01*
X64021490Y-66264984D01*
X64068445Y-66279228D01*
X64113778Y-66298005D01*
X64157051Y-66321136D01*
X64197850Y-66348396D01*
X64235779Y-66379524D01*
X64270476Y-66414221D01*
X64301604Y-66452150D01*
X64328864Y-66492949D01*
X64351995Y-66536222D01*
X64370772Y-66581555D01*
X64385016Y-66628510D01*
X64394588Y-66676635D01*
X64399398Y-66725466D01*
X64399398Y-66750000D01*
X64400000Y-66750000D01*
X64400000Y-67250000D01*
X64399398Y-67250000D01*
X64399398Y-67274534D01*
X64394588Y-67323365D01*
X64385016Y-67371490D01*
X64370772Y-67418445D01*
X64351995Y-67463778D01*
X64328864Y-67507051D01*
X64301604Y-67547850D01*
X64270476Y-67585779D01*
X64235779Y-67620476D01*
X64197850Y-67651604D01*
X64157051Y-67678864D01*
X64113778Y-67701995D01*
X64068445Y-67720772D01*
X64021490Y-67735016D01*
X63973365Y-67744588D01*
X63924534Y-67749398D01*
X63900000Y-67749398D01*
X63900000Y-67750000D01*
X63400000Y-67750000D01*
X63400000Y-66250000D01*
X63900000Y-66250000D01*
X63900000Y-66250602D01*
G37*
G36*
X88460000Y-91810000D02*
G01*
X88460000Y-92310000D01*
X88459398Y-92310000D01*
X88459398Y-92334534D01*
X88454588Y-92383365D01*
X88445016Y-92431490D01*
X88430772Y-92478445D01*
X88411995Y-92523778D01*
X88388864Y-92567051D01*
X88361604Y-92607850D01*
X88330476Y-92645779D01*
X88295779Y-92680476D01*
X88257850Y-92711604D01*
X88217051Y-92738864D01*
X88173778Y-92761995D01*
X88128445Y-92780772D01*
X88081490Y-92795016D01*
X88033365Y-92804588D01*
X87984534Y-92809398D01*
X87960000Y-92809398D01*
X87960000Y-92810000D01*
X87460000Y-92810000D01*
X87460000Y-92809398D01*
X87435466Y-92809398D01*
X87386635Y-92804588D01*
X87338510Y-92795016D01*
X87291555Y-92780772D01*
X87246222Y-92761995D01*
X87202949Y-92738864D01*
X87162150Y-92711604D01*
X87124221Y-92680476D01*
X87089524Y-92645779D01*
X87058396Y-92607850D01*
X87031136Y-92567051D01*
X87008005Y-92523778D01*
X86989228Y-92478445D01*
X86974984Y-92431490D01*
X86965412Y-92383365D01*
X86960602Y-92334534D01*
X86960602Y-92310000D01*
X86960000Y-92310000D01*
X86960000Y-91810000D01*
X88460000Y-91810000D01*
G37*
G36*
X86960602Y-91010000D02*
G01*
X86960602Y-90985466D01*
X86965412Y-90936635D01*
X86974984Y-90888510D01*
X86989228Y-90841555D01*
X87008005Y-90796222D01*
X87031136Y-90752949D01*
X87058396Y-90712150D01*
X87089524Y-90674221D01*
X87124221Y-90639524D01*
X87162150Y-90608396D01*
X87202949Y-90581136D01*
X87246222Y-90558005D01*
X87291555Y-90539228D01*
X87338510Y-90524984D01*
X87386635Y-90515412D01*
X87435466Y-90510602D01*
X87460000Y-90510602D01*
X87460000Y-90510000D01*
X87960000Y-90510000D01*
X87960000Y-90510602D01*
X87984534Y-90510602D01*
X88033365Y-90515412D01*
X88081490Y-90524984D01*
X88128445Y-90539228D01*
X88173778Y-90558005D01*
X88217051Y-90581136D01*
X88257850Y-90608396D01*
X88295779Y-90639524D01*
X88330476Y-90674221D01*
X88361604Y-90712150D01*
X88388864Y-90752949D01*
X88411995Y-90796222D01*
X88430772Y-90841555D01*
X88445016Y-90888510D01*
X88454588Y-90936635D01*
X88459398Y-90985466D01*
X88459398Y-91010000D01*
X88460000Y-91010000D01*
X88460000Y-91510000D01*
X86960000Y-91510000D01*
X86960000Y-91010000D01*
X86960602Y-91010000D01*
G37*
G36*
X83550602Y-88750000D02*
G01*
X83550602Y-88725466D01*
X83555412Y-88676635D01*
X83564984Y-88628510D01*
X83579228Y-88581555D01*
X83598005Y-88536222D01*
X83621136Y-88492949D01*
X83648396Y-88452150D01*
X83679524Y-88414221D01*
X83714221Y-88379524D01*
X83752150Y-88348396D01*
X83792949Y-88321136D01*
X83836222Y-88298005D01*
X83881555Y-88279228D01*
X83928510Y-88264984D01*
X83976635Y-88255412D01*
X84025466Y-88250602D01*
X84050000Y-88250602D01*
X84050000Y-88250000D01*
X84550000Y-88250000D01*
X84550000Y-88250602D01*
X84574534Y-88250602D01*
X84623365Y-88255412D01*
X84671490Y-88264984D01*
X84718445Y-88279228D01*
X84763778Y-88298005D01*
X84807051Y-88321136D01*
X84847850Y-88348396D01*
X84885779Y-88379524D01*
X84920476Y-88414221D01*
X84951604Y-88452150D01*
X84978864Y-88492949D01*
X85001995Y-88536222D01*
X85020772Y-88581555D01*
X85035016Y-88628510D01*
X85044588Y-88676635D01*
X85049398Y-88725466D01*
X85049398Y-88750000D01*
X85050000Y-88750000D01*
X85050000Y-89250000D01*
X83550000Y-89250000D01*
X83550000Y-88750000D01*
X83550602Y-88750000D01*
G37*
G36*
X85050000Y-89550000D02*
G01*
X85050000Y-90050000D01*
X85049398Y-90050000D01*
X85049398Y-90074534D01*
X85044588Y-90123365D01*
X85035016Y-90171490D01*
X85020772Y-90218445D01*
X85001995Y-90263778D01*
X84978864Y-90307051D01*
X84951604Y-90347850D01*
X84920476Y-90385779D01*
X84885779Y-90420476D01*
X84847850Y-90451604D01*
X84807051Y-90478864D01*
X84763778Y-90501995D01*
X84718445Y-90520772D01*
X84671490Y-90535016D01*
X84623365Y-90544588D01*
X84574534Y-90549398D01*
X84550000Y-90549398D01*
X84550000Y-90550000D01*
X84050000Y-90550000D01*
X84050000Y-90549398D01*
X84025466Y-90549398D01*
X83976635Y-90544588D01*
X83928510Y-90535016D01*
X83881555Y-90520772D01*
X83836222Y-90501995D01*
X83792949Y-90478864D01*
X83752150Y-90451604D01*
X83714221Y-90420476D01*
X83679524Y-90385779D01*
X83648396Y-90347850D01*
X83621136Y-90307051D01*
X83598005Y-90263778D01*
X83579228Y-90218445D01*
X83564984Y-90171490D01*
X83555412Y-90123365D01*
X83550602Y-90074534D01*
X83550602Y-90050000D01*
X83550000Y-90050000D01*
X83550000Y-89550000D01*
X85050000Y-89550000D01*
G37*
G36*
G01*
X68299999Y-45400000D02*
X69200001Y-45400000D01*
G75*
G02*
X69450000Y-45649999I0J-249999D01*
G01*
X69450000Y-46350001D01*
G75*
G02*
X69200001Y-46600000I-249999J0D01*
G01*
X68299999Y-46600000D01*
G75*
G02*
X68050000Y-46350001I0J249999D01*
G01*
X68050000Y-45649999D01*
G75*
G02*
X68299999Y-45400000I249999J0D01*
G01*
G37*
G36*
G01*
X68299999Y-47400000D02*
X69200001Y-47400000D01*
G75*
G02*
X69450000Y-47649999I0J-249999D01*
G01*
X69450000Y-48350001D01*
G75*
G02*
X69200001Y-48600000I-249999J0D01*
G01*
X68299999Y-48600000D01*
G75*
G02*
X68050000Y-48350001I0J249999D01*
G01*
X68050000Y-47649999D01*
G75*
G02*
X68299999Y-47400000I249999J0D01*
G01*
G37*
G36*
G01*
X69900000Y-50700001D02*
X69900000Y-49799999D01*
G75*
G02*
X70149999Y-49550000I249999J0D01*
G01*
X70850001Y-49550000D01*
G75*
G02*
X71100000Y-49799999I0J-249999D01*
G01*
X71100000Y-50700001D01*
G75*
G02*
X70850001Y-50950000I-249999J0D01*
G01*
X70149999Y-50950000D01*
G75*
G02*
X69900000Y-50700001I0J249999D01*
G01*
G37*
G36*
G01*
X67900000Y-50700001D02*
X67900000Y-49799999D01*
G75*
G02*
X68149999Y-49550000I249999J0D01*
G01*
X68850001Y-49550000D01*
G75*
G02*
X69100000Y-49799999I0J-249999D01*
G01*
X69100000Y-50700001D01*
G75*
G02*
X68850001Y-50950000I-249999J0D01*
G01*
X68149999Y-50950000D01*
G75*
G02*
X67900000Y-50700001I0J249999D01*
G01*
G37*
G36*
G01*
X64150000Y-53200001D02*
X64150000Y-52299999D01*
G75*
G02*
X64399999Y-52050000I249999J0D01*
G01*
X65100001Y-52050000D01*
G75*
G02*
X65350000Y-52299999I0J-249999D01*
G01*
X65350000Y-53200001D01*
G75*
G02*
X65100001Y-53450000I-249999J0D01*
G01*
X64399999Y-53450000D01*
G75*
G02*
X64150000Y-53200001I0J249999D01*
G01*
G37*
G36*
G01*
X66150000Y-53200001D02*
X66150000Y-52299999D01*
G75*
G02*
X66399999Y-52050000I249999J0D01*
G01*
X67100001Y-52050000D01*
G75*
G02*
X67350000Y-52299999I0J-249999D01*
G01*
X67350000Y-53200001D01*
G75*
G02*
X67100001Y-53450000I-249999J0D01*
G01*
X66399999Y-53450000D01*
G75*
G02*
X66150000Y-53200001I0J249999D01*
G01*
G37*
G36*
G01*
X86449999Y-54550000D02*
X87350001Y-54550000D01*
G75*
G02*
X87600000Y-54799999I0J-249999D01*
G01*
X87600000Y-55500001D01*
G75*
G02*
X87350001Y-55750000I-249999J0D01*
G01*
X86449999Y-55750000D01*
G75*
G02*
X86200000Y-55500001I0J249999D01*
G01*
X86200000Y-54799999D01*
G75*
G02*
X86449999Y-54550000I249999J0D01*
G01*
G37*
G36*
G01*
X86449999Y-56550000D02*
X87350001Y-56550000D01*
G75*
G02*
X87600000Y-56799999I0J-249999D01*
G01*
X87600000Y-57500001D01*
G75*
G02*
X87350001Y-57750000I-249999J0D01*
G01*
X86449999Y-57750000D01*
G75*
G02*
X86200000Y-57500001I0J249999D01*
G01*
X86200000Y-56799999D01*
G75*
G02*
X86449999Y-56550000I249999J0D01*
G01*
G37*
G36*
G01*
X53299999Y-42400000D02*
X54200001Y-42400000D01*
G75*
G02*
X54450000Y-42649999I0J-249999D01*
G01*
X54450000Y-43350001D01*
G75*
G02*
X54200001Y-43600000I-249999J0D01*
G01*
X53299999Y-43600000D01*
G75*
G02*
X53050000Y-43350001I0J249999D01*
G01*
X53050000Y-42649999D01*
G75*
G02*
X53299999Y-42400000I249999J0D01*
G01*
G37*
G36*
G01*
X53299999Y-44400000D02*
X54200001Y-44400000D01*
G75*
G02*
X54450000Y-44649999I0J-249999D01*
G01*
X54450000Y-45350001D01*
G75*
G02*
X54200001Y-45600000I-249999J0D01*
G01*
X53299999Y-45600000D01*
G75*
G02*
X53050000Y-45350001I0J249999D01*
G01*
X53050000Y-44649999D01*
G75*
G02*
X53299999Y-44400000I249999J0D01*
G01*
G37*
G36*
G01*
X89949999Y-54550000D02*
X90850001Y-54550000D01*
G75*
G02*
X91100000Y-54799999I0J-249999D01*
G01*
X91100000Y-55500001D01*
G75*
G02*
X90850001Y-55750000I-249999J0D01*
G01*
X89949999Y-55750000D01*
G75*
G02*
X89700000Y-55500001I0J249999D01*
G01*
X89700000Y-54799999D01*
G75*
G02*
X89949999Y-54550000I249999J0D01*
G01*
G37*
G36*
G01*
X89949999Y-56550000D02*
X90850001Y-56550000D01*
G75*
G02*
X91100000Y-56799999I0J-249999D01*
G01*
X91100000Y-57500001D01*
G75*
G02*
X90850001Y-57750000I-249999J0D01*
G01*
X89949999Y-57750000D01*
G75*
G02*
X89700000Y-57500001I0J249999D01*
G01*
X89700000Y-56799999D01*
G75*
G02*
X89949999Y-56550000I249999J0D01*
G01*
G37*
G36*
G01*
X45450001Y-46100000D02*
X44549999Y-46100000D01*
G75*
G02*
X44300000Y-45850001I0J249999D01*
G01*
X44300000Y-45149999D01*
G75*
G02*
X44549999Y-44900000I249999J0D01*
G01*
X45450001Y-44900000D01*
G75*
G02*
X45700000Y-45149999I0J-249999D01*
G01*
X45700000Y-45850001D01*
G75*
G02*
X45450001Y-46100000I-249999J0D01*
G01*
G37*
G36*
G01*
X45450001Y-44100000D02*
X44549999Y-44100000D01*
G75*
G02*
X44300000Y-43850001I0J249999D01*
G01*
X44300000Y-43149999D01*
G75*
G02*
X44549999Y-42900000I249999J0D01*
G01*
X45450001Y-42900000D01*
G75*
G02*
X45700000Y-43149999I0J-249999D01*
G01*
X45700000Y-43850001D01*
G75*
G02*
X45450001Y-44100000I-249999J0D01*
G01*
G37*
G36*
G01*
X47950001Y-44100000D02*
X47049999Y-44100000D01*
G75*
G02*
X46800000Y-43850001I0J249999D01*
G01*
X46800000Y-43149999D01*
G75*
G02*
X47049999Y-42900000I249999J0D01*
G01*
X47950001Y-42900000D01*
G75*
G02*
X48200000Y-43149999I0J-249999D01*
G01*
X48200000Y-43850001D01*
G75*
G02*
X47950001Y-44100000I-249999J0D01*
G01*
G37*
G36*
G01*
X47950001Y-46100000D02*
X47049999Y-46100000D01*
G75*
G02*
X46800000Y-45850001I0J249999D01*
G01*
X46800000Y-45149999D01*
G75*
G02*
X47049999Y-44900000I249999J0D01*
G01*
X47950001Y-44900000D01*
G75*
G02*
X48200000Y-45149999I0J-249999D01*
G01*
X48200000Y-45850001D01*
G75*
G02*
X47950001Y-46100000I-249999J0D01*
G01*
G37*
G36*
G01*
X47400000Y-52950001D02*
X47400000Y-52049999D01*
G75*
G02*
X47649999Y-51800000I249999J0D01*
G01*
X48350001Y-51800000D01*
G75*
G02*
X48600000Y-52049999I0J-249999D01*
G01*
X48600000Y-52950001D01*
G75*
G02*
X48350001Y-53200000I-249999J0D01*
G01*
X47649999Y-53200000D01*
G75*
G02*
X47400000Y-52950001I0J249999D01*
G01*
G37*
G36*
G01*
X49400000Y-52950001D02*
X49400000Y-52049999D01*
G75*
G02*
X49649999Y-51800000I249999J0D01*
G01*
X50350001Y-51800000D01*
G75*
G02*
X50600000Y-52049999I0J-249999D01*
G01*
X50600000Y-52950001D01*
G75*
G02*
X50350001Y-53200000I-249999J0D01*
G01*
X49649999Y-53200000D01*
G75*
G02*
X49400000Y-52950001I0J249999D01*
G01*
G37*
G36*
G01*
X47049999Y-63900000D02*
X47950001Y-63900000D01*
G75*
G02*
X48200000Y-64149999I0J-249999D01*
G01*
X48200000Y-64850001D01*
G75*
G02*
X47950001Y-65100000I-249999J0D01*
G01*
X47049999Y-65100000D01*
G75*
G02*
X46800000Y-64850001I0J249999D01*
G01*
X46800000Y-64149999D01*
G75*
G02*
X47049999Y-63900000I249999J0D01*
G01*
G37*
G36*
G01*
X47049999Y-65900000D02*
X47950001Y-65900000D01*
G75*
G02*
X48200000Y-66149999I0J-249999D01*
G01*
X48200000Y-66850001D01*
G75*
G02*
X47950001Y-67100000I-249999J0D01*
G01*
X47049999Y-67100000D01*
G75*
G02*
X46800000Y-66850001I0J249999D01*
G01*
X46800000Y-66149999D01*
G75*
G02*
X47049999Y-65900000I249999J0D01*
G01*
G37*
G36*
G01*
X57400000Y-62349999D02*
X57400000Y-63250001D01*
G75*
G02*
X57150001Y-63500000I-249999J0D01*
G01*
X56449999Y-63500000D01*
G75*
G02*
X56200000Y-63250001I0J249999D01*
G01*
X56200000Y-62349999D01*
G75*
G02*
X56449999Y-62100000I249999J0D01*
G01*
X57150001Y-62100000D01*
G75*
G02*
X57400000Y-62349999I0J-249999D01*
G01*
G37*
G36*
G01*
X55400000Y-62349999D02*
X55400000Y-63250001D01*
G75*
G02*
X55150001Y-63500000I-249999J0D01*
G01*
X54449999Y-63500000D01*
G75*
G02*
X54200000Y-63250001I0J249999D01*
G01*
X54200000Y-62349999D01*
G75*
G02*
X54449999Y-62100000I249999J0D01*
G01*
X55150001Y-62100000D01*
G75*
G02*
X55400000Y-62349999I0J-249999D01*
G01*
G37*
G36*
G01*
X64100000Y-76049999D02*
X64100000Y-76950001D01*
G75*
G02*
X63850001Y-77200000I-249999J0D01*
G01*
X63149999Y-77200000D01*
G75*
G02*
X62900000Y-76950001I0J249999D01*
G01*
X62900000Y-76049999D01*
G75*
G02*
X63149999Y-75800000I249999J0D01*
G01*
X63850001Y-75800000D01*
G75*
G02*
X64100000Y-76049999I0J-249999D01*
G01*
G37*
G36*
G01*
X66100000Y-76049999D02*
X66100000Y-76950001D01*
G75*
G02*
X65850001Y-77200000I-249999J0D01*
G01*
X65149999Y-77200000D01*
G75*
G02*
X64900000Y-76950001I0J249999D01*
G01*
X64900000Y-76049999D01*
G75*
G02*
X65149999Y-75800000I249999J0D01*
G01*
X65850001Y-75800000D01*
G75*
G02*
X66100000Y-76049999I0J-249999D01*
G01*
G37*
G36*
G01*
X84850000Y-62799999D02*
X84850000Y-63700001D01*
G75*
G02*
X84600001Y-63950000I-249999J0D01*
G01*
X83899999Y-63950000D01*
G75*
G02*
X83650000Y-63700001I0J249999D01*
G01*
X83650000Y-62799999D01*
G75*
G02*
X83899999Y-62550000I249999J0D01*
G01*
X84600001Y-62550000D01*
G75*
G02*
X84850000Y-62799999I0J-249999D01*
G01*
G37*
G36*
G01*
X86850000Y-62799999D02*
X86850000Y-63700001D01*
G75*
G02*
X86600001Y-63950000I-249999J0D01*
G01*
X85899999Y-63950000D01*
G75*
G02*
X85650000Y-63700001I0J249999D01*
G01*
X85650000Y-62799999D01*
G75*
G02*
X85899999Y-62550000I249999J0D01*
G01*
X86600001Y-62550000D01*
G75*
G02*
X86850000Y-62799999I0J-249999D01*
G01*
G37*
G36*
G01*
X89900000Y-65950001D02*
X89900000Y-65049999D01*
G75*
G02*
X90149999Y-64800000I249999J0D01*
G01*
X90850001Y-64800000D01*
G75*
G02*
X91100000Y-65049999I0J-249999D01*
G01*
X91100000Y-65950001D01*
G75*
G02*
X90850001Y-66200000I-249999J0D01*
G01*
X90149999Y-66200000D01*
G75*
G02*
X89900000Y-65950001I0J249999D01*
G01*
G37*
G36*
G01*
X87900000Y-65950001D02*
X87900000Y-65049999D01*
G75*
G02*
X88149999Y-64800000I249999J0D01*
G01*
X88850001Y-64800000D01*
G75*
G02*
X89100000Y-65049999I0J-249999D01*
G01*
X89100000Y-65950001D01*
G75*
G02*
X88850001Y-66200000I-249999J0D01*
G01*
X88149999Y-66200000D01*
G75*
G02*
X87900000Y-65950001I0J249999D01*
G01*
G37*
G36*
G01*
X84850000Y-65049999D02*
X84850000Y-65950001D01*
G75*
G02*
X84600001Y-66200000I-249999J0D01*
G01*
X83899999Y-66200000D01*
G75*
G02*
X83650000Y-65950001I0J249999D01*
G01*
X83650000Y-65049999D01*
G75*
G02*
X83899999Y-64800000I249999J0D01*
G01*
X84600001Y-64800000D01*
G75*
G02*
X84850000Y-65049999I0J-249999D01*
G01*
G37*
G36*
G01*
X86850000Y-65049999D02*
X86850000Y-65950001D01*
G75*
G02*
X86600001Y-66200000I-249999J0D01*
G01*
X85899999Y-66200000D01*
G75*
G02*
X85650000Y-65950001I0J249999D01*
G01*
X85650000Y-65049999D01*
G75*
G02*
X85899999Y-64800000I249999J0D01*
G01*
X86600001Y-64800000D01*
G75*
G02*
X86850000Y-65049999I0J-249999D01*
G01*
G37*
G36*
G01*
X64850000Y-91799999D02*
X64850000Y-92700001D01*
G75*
G02*
X64600001Y-92950000I-249999J0D01*
G01*
X63899999Y-92950000D01*
G75*
G02*
X63650000Y-92700001I0J249999D01*
G01*
X63650000Y-91799999D01*
G75*
G02*
X63899999Y-91550000I249999J0D01*
G01*
X64600001Y-91550000D01*
G75*
G02*
X64850000Y-91799999I0J-249999D01*
G01*
G37*
G36*
G01*
X66850000Y-91799999D02*
X66850000Y-92700001D01*
G75*
G02*
X66600001Y-92950000I-249999J0D01*
G01*
X65899999Y-92950000D01*
G75*
G02*
X65650000Y-92700001I0J249999D01*
G01*
X65650000Y-91799999D01*
G75*
G02*
X65899999Y-91550000I249999J0D01*
G01*
X66600001Y-91550000D01*
G75*
G02*
X66850000Y-91799999I0J-249999D01*
G01*
G37*
G36*
G01*
X68449999Y-89150000D02*
X69350001Y-89150000D01*
G75*
G02*
X69600000Y-89399999I0J-249999D01*
G01*
X69600000Y-90100001D01*
G75*
G02*
X69350001Y-90350000I-249999J0D01*
G01*
X68449999Y-90350000D01*
G75*
G02*
X68200000Y-90100001I0J249999D01*
G01*
X68200000Y-89399999D01*
G75*
G02*
X68449999Y-89150000I249999J0D01*
G01*
G37*
G36*
G01*
X68449999Y-91150000D02*
X69350001Y-91150000D01*
G75*
G02*
X69600000Y-91399999I0J-249999D01*
G01*
X69600000Y-92100001D01*
G75*
G02*
X69350001Y-92350000I-249999J0D01*
G01*
X68449999Y-92350000D01*
G75*
G02*
X68200000Y-92100001I0J249999D01*
G01*
X68200000Y-91399999D01*
G75*
G02*
X68449999Y-91150000I249999J0D01*
G01*
G37*
G36*
G01*
X58200001Y-86100000D02*
X57299999Y-86100000D01*
G75*
G02*
X57050000Y-85850001I0J249999D01*
G01*
X57050000Y-85149999D01*
G75*
G02*
X57299999Y-84900000I249999J0D01*
G01*
X58200001Y-84900000D01*
G75*
G02*
X58450000Y-85149999I0J-249999D01*
G01*
X58450000Y-85850001D01*
G75*
G02*
X58200001Y-86100000I-249999J0D01*
G01*
G37*
G36*
G01*
X58200001Y-88100000D02*
X57299999Y-88100000D01*
G75*
G02*
X57050000Y-87850001I0J249999D01*
G01*
X57050000Y-87149999D01*
G75*
G02*
X57299999Y-86900000I249999J0D01*
G01*
X58200001Y-86900000D01*
G75*
G02*
X58450000Y-87149999I0J-249999D01*
G01*
X58450000Y-87850001D01*
G75*
G02*
X58200001Y-88100000I-249999J0D01*
G01*
G37*
G36*
G01*
X62299999Y-86900000D02*
X63200001Y-86900000D01*
G75*
G02*
X63450000Y-87149999I0J-249999D01*
G01*
X63450000Y-87850001D01*
G75*
G02*
X63200001Y-88100000I-249999J0D01*
G01*
X62299999Y-88100000D01*
G75*
G02*
X62050000Y-87850001I0J249999D01*
G01*
X62050000Y-87149999D01*
G75*
G02*
X62299999Y-86900000I249999J0D01*
G01*
G37*
G36*
G01*
X62299999Y-84900000D02*
X63200001Y-84900000D01*
G75*
G02*
X63450000Y-85149999I0J-249999D01*
G01*
X63450000Y-85850001D01*
G75*
G02*
X63200001Y-86100000I-249999J0D01*
G01*
X62299999Y-86100000D01*
G75*
G02*
X62050000Y-85850001I0J249999D01*
G01*
X62050000Y-85149999D01*
G75*
G02*
X62299999Y-84900000I249999J0D01*
G01*
G37*
G36*
G01*
X66299999Y-88900000D02*
X67200001Y-88900000D01*
G75*
G02*
X67450000Y-89149999I0J-249999D01*
G01*
X67450000Y-89850001D01*
G75*
G02*
X67200001Y-90100000I-249999J0D01*
G01*
X66299999Y-90100000D01*
G75*
G02*
X66050000Y-89850001I0J249999D01*
G01*
X66050000Y-89149999D01*
G75*
G02*
X66299999Y-88900000I249999J0D01*
G01*
G37*
G36*
G01*
X66299999Y-86900000D02*
X67200001Y-86900000D01*
G75*
G02*
X67450000Y-87149999I0J-249999D01*
G01*
X67450000Y-87850001D01*
G75*
G02*
X67200001Y-88100000I-249999J0D01*
G01*
X66299999Y-88100000D01*
G75*
G02*
X66050000Y-87850001I0J249999D01*
G01*
X66050000Y-87149999D01*
G75*
G02*
X66299999Y-86900000I249999J0D01*
G01*
G37*
G36*
G01*
X72699999Y-89150000D02*
X73600001Y-89150000D01*
G75*
G02*
X73850000Y-89399999I0J-249999D01*
G01*
X73850000Y-90100001D01*
G75*
G02*
X73600001Y-90350000I-249999J0D01*
G01*
X72699999Y-90350000D01*
G75*
G02*
X72450000Y-90100001I0J249999D01*
G01*
X72450000Y-89399999D01*
G75*
G02*
X72699999Y-89150000I249999J0D01*
G01*
G37*
G36*
G01*
X72699999Y-91150000D02*
X73600001Y-91150000D01*
G75*
G02*
X73850000Y-91399999I0J-249999D01*
G01*
X73850000Y-92100001D01*
G75*
G02*
X73600001Y-92350000I-249999J0D01*
G01*
X72699999Y-92350000D01*
G75*
G02*
X72450000Y-92100001I0J249999D01*
G01*
X72450000Y-91399999D01*
G75*
G02*
X72699999Y-91150000I249999J0D01*
G01*
G37*
G36*
G01*
X87150001Y-86100000D02*
X86249999Y-86100000D01*
G75*
G02*
X86000000Y-85850001I0J249999D01*
G01*
X86000000Y-85149999D01*
G75*
G02*
X86249999Y-84900000I249999J0D01*
G01*
X87150001Y-84900000D01*
G75*
G02*
X87400000Y-85149999I0J-249999D01*
G01*
X87400000Y-85850001D01*
G75*
G02*
X87150001Y-86100000I-249999J0D01*
G01*
G37*
G36*
G01*
X87150001Y-88100000D02*
X86249999Y-88100000D01*
G75*
G02*
X86000000Y-87850001I0J249999D01*
G01*
X86000000Y-87149999D01*
G75*
G02*
X86249999Y-86900000I249999J0D01*
G01*
X87150001Y-86900000D01*
G75*
G02*
X87400000Y-87149999I0J-249999D01*
G01*
X87400000Y-87850001D01*
G75*
G02*
X87150001Y-88100000I-249999J0D01*
G01*
G37*
G36*
G01*
X85900000Y-83750001D02*
X85900000Y-82849999D01*
G75*
G02*
X86149999Y-82600000I249999J0D01*
G01*
X86850001Y-82600000D01*
G75*
G02*
X87100000Y-82849999I0J-249999D01*
G01*
X87100000Y-83750001D01*
G75*
G02*
X86850001Y-84000000I-249999J0D01*
G01*
X86149999Y-84000000D01*
G75*
G02*
X85900000Y-83750001I0J249999D01*
G01*
G37*
G36*
G01*
X87900000Y-83750001D02*
X87900000Y-82849999D01*
G75*
G02*
X88149999Y-82600000I249999J0D01*
G01*
X88850001Y-82600000D01*
G75*
G02*
X89100000Y-82849999I0J-249999D01*
G01*
X89100000Y-83750001D01*
G75*
G02*
X88850001Y-84000000I-249999J0D01*
G01*
X88149999Y-84000000D01*
G75*
G02*
X87900000Y-83750001I0J249999D01*
G01*
G37*
G36*
G01*
X71149999Y-78400000D02*
X72050001Y-78400000D01*
G75*
G02*
X72300000Y-78649999I0J-249999D01*
G01*
X72300000Y-79350001D01*
G75*
G02*
X72050001Y-79600000I-249999J0D01*
G01*
X71149999Y-79600000D01*
G75*
G02*
X70900000Y-79350001I0J249999D01*
G01*
X70900000Y-78649999D01*
G75*
G02*
X71149999Y-78400000I249999J0D01*
G01*
G37*
G36*
G01*
X71149999Y-80400000D02*
X72050001Y-80400000D01*
G75*
G02*
X72300000Y-80649999I0J-249999D01*
G01*
X72300000Y-81350001D01*
G75*
G02*
X72050001Y-81600000I-249999J0D01*
G01*
X71149999Y-81600000D01*
G75*
G02*
X70900000Y-81350001I0J249999D01*
G01*
X70900000Y-80649999D01*
G75*
G02*
X71149999Y-80400000I249999J0D01*
G01*
G37*
G36*
G01*
X82450000Y-92524999D02*
X82450000Y-93425001D01*
G75*
G02*
X82200001Y-93675000I-249999J0D01*
G01*
X81499999Y-93675000D01*
G75*
G02*
X81250000Y-93425001I0J249999D01*
G01*
X81250000Y-92524999D01*
G75*
G02*
X81499999Y-92275000I249999J0D01*
G01*
X82200001Y-92275000D01*
G75*
G02*
X82450000Y-92524999I0J-249999D01*
G01*
G37*
G36*
G01*
X80450000Y-92524999D02*
X80450000Y-93425001D01*
G75*
G02*
X80200001Y-93675000I-249999J0D01*
G01*
X79499999Y-93675000D01*
G75*
G02*
X79250000Y-93425001I0J249999D01*
G01*
X79250000Y-92524999D01*
G75*
G02*
X79499999Y-92275000I249999J0D01*
G01*
X80200001Y-92275000D01*
G75*
G02*
X80450000Y-92524999I0J-249999D01*
G01*
G37*
G36*
G01*
X79950001Y-97600000D02*
X79049999Y-97600000D01*
G75*
G02*
X78800000Y-97350001I0J249999D01*
G01*
X78800000Y-96649999D01*
G75*
G02*
X79049999Y-96400000I249999J0D01*
G01*
X79950001Y-96400000D01*
G75*
G02*
X80200000Y-96649999I0J-249999D01*
G01*
X80200000Y-97350001D01*
G75*
G02*
X79950001Y-97600000I-249999J0D01*
G01*
G37*
G36*
G01*
X79950001Y-99600000D02*
X79049999Y-99600000D01*
G75*
G02*
X78800000Y-99350001I0J249999D01*
G01*
X78800000Y-98649999D01*
G75*
G02*
X79049999Y-98400000I249999J0D01*
G01*
X79950001Y-98400000D01*
G75*
G02*
X80200000Y-98649999I0J-249999D01*
G01*
X80200000Y-99350001D01*
G75*
G02*
X79950001Y-99600000I-249999J0D01*
G01*
G37*
G36*
G01*
X65950001Y-81600000D02*
X65049999Y-81600000D01*
G75*
G02*
X64800000Y-81350001I0J249999D01*
G01*
X64800000Y-80649999D01*
G75*
G02*
X65049999Y-80400000I249999J0D01*
G01*
X65950001Y-80400000D01*
G75*
G02*
X66200000Y-80649999I0J-249999D01*
G01*
X66200000Y-81350001D01*
G75*
G02*
X65950001Y-81600000I-249999J0D01*
G01*
G37*
G36*
G01*
X65950001Y-79600000D02*
X65049999Y-79600000D01*
G75*
G02*
X64800000Y-79350001I0J249999D01*
G01*
X64800000Y-78649999D01*
G75*
G02*
X65049999Y-78400000I249999J0D01*
G01*
X65950001Y-78400000D01*
G75*
G02*
X66200000Y-78649999I0J-249999D01*
G01*
X66200000Y-79350001D01*
G75*
G02*
X65950001Y-79600000I-249999J0D01*
G01*
G37*
G36*
G01*
X81299999Y-98400000D02*
X82200001Y-98400000D01*
G75*
G02*
X82450000Y-98649999I0J-249999D01*
G01*
X82450000Y-99350001D01*
G75*
G02*
X82200001Y-99600000I-249999J0D01*
G01*
X81299999Y-99600000D01*
G75*
G02*
X81050000Y-99350001I0J249999D01*
G01*
X81050000Y-98649999D01*
G75*
G02*
X81299999Y-98400000I249999J0D01*
G01*
G37*
G36*
G01*
X81299999Y-96400000D02*
X82200001Y-96400000D01*
G75*
G02*
X82450000Y-96649999I0J-249999D01*
G01*
X82450000Y-97350001D01*
G75*
G02*
X82200001Y-97600000I-249999J0D01*
G01*
X81299999Y-97600000D01*
G75*
G02*
X81050000Y-97350001I0J249999D01*
G01*
X81050000Y-96649999D01*
G75*
G02*
X81299999Y-96400000I249999J0D01*
G01*
G37*
G36*
G01*
X74549999Y-96400000D02*
X75450001Y-96400000D01*
G75*
G02*
X75700000Y-96649999I0J-249999D01*
G01*
X75700000Y-97350001D01*
G75*
G02*
X75450001Y-97600000I-249999J0D01*
G01*
X74549999Y-97600000D01*
G75*
G02*
X74300000Y-97350001I0J249999D01*
G01*
X74300000Y-96649999D01*
G75*
G02*
X74549999Y-96400000I249999J0D01*
G01*
G37*
G36*
G01*
X74549999Y-98400000D02*
X75450001Y-98400000D01*
G75*
G02*
X75700000Y-98649999I0J-249999D01*
G01*
X75700000Y-99350001D01*
G75*
G02*
X75450001Y-99600000I-249999J0D01*
G01*
X74549999Y-99600000D01*
G75*
G02*
X74300000Y-99350001I0J249999D01*
G01*
X74300000Y-98649999D01*
G75*
G02*
X74549999Y-98400000I249999J0D01*
G01*
G37*
D15*
X64250000Y-95925000D03*
X66750000Y-95925000D03*
X69250000Y-95925000D03*
X64250000Y-101575000D03*
X66750000Y-101575000D03*
X69250000Y-101575000D03*
X90000000Y-101575000D03*
X87500000Y-101575000D03*
X85000000Y-101575000D03*
X90000000Y-95925000D03*
X87500000Y-95925000D03*
X85000000Y-95925000D03*
D16*
X74500000Y-61650000D03*
X80500000Y-61650000D03*
X74500000Y-65350000D03*
X80500000Y-65350000D03*
X90750000Y-72600000D03*
X84750000Y-72600000D03*
X90750000Y-68900000D03*
X84750000Y-68900000D03*
X75250000Y-68900000D03*
X81250000Y-68900000D03*
X75250000Y-72600000D03*
X81250000Y-72600000D03*
D17*
X94400000Y-55650000D03*
X87250000Y-60000000D03*
X93900000Y-60150000D03*
D10*
X48500000Y-61400000D03*
X57650000Y-98500000D03*
X50000000Y-48750000D03*
G36*
G01*
X77050000Y-55275000D02*
X77050000Y-55075000D01*
G75*
G02*
X77150000Y-54975000I100000J0D01*
G01*
X78425000Y-54975000D01*
G75*
G02*
X78525000Y-55075000I0J-100000D01*
G01*
X78525000Y-55275000D01*
G75*
G02*
X78425000Y-55375000I-100000J0D01*
G01*
X77150000Y-55375000D01*
G75*
G02*
X77050000Y-55275000I0J100000D01*
G01*
G37*
G36*
G01*
X77050000Y-55925000D02*
X77050000Y-55725000D01*
G75*
G02*
X77150000Y-55625000I100000J0D01*
G01*
X78425000Y-55625000D01*
G75*
G02*
X78525000Y-55725000I0J-100000D01*
G01*
X78525000Y-55925000D01*
G75*
G02*
X78425000Y-56025000I-100000J0D01*
G01*
X77150000Y-56025000D01*
G75*
G02*
X77050000Y-55925000I0J100000D01*
G01*
G37*
G36*
G01*
X77050000Y-56575000D02*
X77050000Y-56375000D01*
G75*
G02*
X77150000Y-56275000I100000J0D01*
G01*
X78425000Y-56275000D01*
G75*
G02*
X78525000Y-56375000I0J-100000D01*
G01*
X78525000Y-56575000D01*
G75*
G02*
X78425000Y-56675000I-100000J0D01*
G01*
X77150000Y-56675000D01*
G75*
G02*
X77050000Y-56575000I0J100000D01*
G01*
G37*
G36*
G01*
X77050000Y-57225000D02*
X77050000Y-57025000D01*
G75*
G02*
X77150000Y-56925000I100000J0D01*
G01*
X78425000Y-56925000D01*
G75*
G02*
X78525000Y-57025000I0J-100000D01*
G01*
X78525000Y-57225000D01*
G75*
G02*
X78425000Y-57325000I-100000J0D01*
G01*
X77150000Y-57325000D01*
G75*
G02*
X77050000Y-57225000I0J100000D01*
G01*
G37*
G36*
G01*
X82775000Y-57225000D02*
X82775000Y-57025000D01*
G75*
G02*
X82875000Y-56925000I100000J0D01*
G01*
X84150000Y-56925000D01*
G75*
G02*
X84250000Y-57025000I0J-100000D01*
G01*
X84250000Y-57225000D01*
G75*
G02*
X84150000Y-57325000I-100000J0D01*
G01*
X82875000Y-57325000D01*
G75*
G02*
X82775000Y-57225000I0J100000D01*
G01*
G37*
G36*
G01*
X82775000Y-56575000D02*
X82775000Y-56375000D01*
G75*
G02*
X82875000Y-56275000I100000J0D01*
G01*
X84150000Y-56275000D01*
G75*
G02*
X84250000Y-56375000I0J-100000D01*
G01*
X84250000Y-56575000D01*
G75*
G02*
X84150000Y-56675000I-100000J0D01*
G01*
X82875000Y-56675000D01*
G75*
G02*
X82775000Y-56575000I0J100000D01*
G01*
G37*
G36*
G01*
X82775000Y-55925000D02*
X82775000Y-55725000D01*
G75*
G02*
X82875000Y-55625000I100000J0D01*
G01*
X84150000Y-55625000D01*
G75*
G02*
X84250000Y-55725000I0J-100000D01*
G01*
X84250000Y-55925000D01*
G75*
G02*
X84150000Y-56025000I-100000J0D01*
G01*
X82875000Y-56025000D01*
G75*
G02*
X82775000Y-55925000I0J100000D01*
G01*
G37*
G36*
G01*
X82775000Y-55275000D02*
X82775000Y-55075000D01*
G75*
G02*
X82875000Y-54975000I100000J0D01*
G01*
X84150000Y-54975000D01*
G75*
G02*
X84250000Y-55075000I0J-100000D01*
G01*
X84250000Y-55275000D01*
G75*
G02*
X84150000Y-55375000I-100000J0D01*
G01*
X82875000Y-55375000D01*
G75*
G02*
X82775000Y-55275000I0J100000D01*
G01*
G37*
D18*
X52200000Y-65025000D03*
X52200000Y-65675000D03*
X52200000Y-66325000D03*
X52200000Y-66975000D03*
X52200000Y-67625000D03*
X52200000Y-68275000D03*
X52200000Y-68925000D03*
X52200000Y-69575000D03*
X52200000Y-70225000D03*
X52200000Y-70875000D03*
X52200000Y-71525000D03*
X52200000Y-72175000D03*
X52200000Y-72825000D03*
X52200000Y-73475000D03*
X59300000Y-73475000D03*
X59300000Y-72825000D03*
X59300000Y-72175000D03*
X59300000Y-71525000D03*
X59300000Y-70875000D03*
X59300000Y-70225000D03*
X59300000Y-69575000D03*
X59300000Y-68925000D03*
X59300000Y-68275000D03*
X59300000Y-67625000D03*
X59300000Y-66975000D03*
X59300000Y-66325000D03*
X59300000Y-65675000D03*
X59300000Y-65025000D03*
D19*
X78950000Y-82312000D03*
X78300000Y-82312000D03*
X77650000Y-82312000D03*
X77000000Y-82312000D03*
X76350000Y-82312000D03*
X75700000Y-82312000D03*
X75050000Y-82312000D03*
X75050000Y-88188000D03*
X75700000Y-88188000D03*
X76350000Y-88188000D03*
X77000000Y-88188000D03*
X77650000Y-88188000D03*
X78300000Y-88188000D03*
X78950000Y-88188000D03*
D20*
X53700000Y-60150000D03*
X57500000Y-60150000D03*
X57500000Y-57850000D03*
X53700000Y-57850000D03*
D21*
X93643000Y-99173000D02*
X93257000Y-99173000D01*
X93257000Y-98247000D01*
X93643000Y-98247000D01*
X93643000Y-99173000D01*
D14*
G36*
X93643000Y-99173000D02*
G01*
X93257000Y-99173000D01*
X93257000Y-98247000D01*
X93643000Y-98247000D01*
X93643000Y-99173000D01*
G37*
M02*
