G04 #@! TF.GenerationSoftware,KiCad,Pcbnew,(5.1.7)-1*
G04 #@! TF.CreationDate,2022-01-01T19:06:31+01:00*
G04 #@! TF.ProjectId,expressDAC,65787072-6573-4734-9441-432e6b696361,rev?*
G04 #@! TF.SameCoordinates,Original*
G04 #@! TF.FileFunction,Copper,L4,Bot*
G04 #@! TF.FilePolarity,Positive*
%FSLAX46Y46*%
G04 Gerber Fmt 4.6, Leading zero omitted, Abs format (unit mm)*
G04 Created by KiCad (PCBNEW (5.1.7)-1) date 2022-01-01 19:06:31*
%MOMM*%
%LPD*%
G01*
G04 APERTURE LIST*
G04 #@! TA.AperFunction,EtchedComponent*
%ADD10C,0.010000*%
G04 #@! TD*
G04 #@! TA.AperFunction,SMDPad,CuDef*
%ADD11C,1.524000*%
G04 #@! TD*
G04 #@! TA.AperFunction,ComponentPad*
%ADD12O,1.200000X2.400000*%
G04 #@! TD*
G04 #@! TA.AperFunction,ViaPad*
%ADD13C,0.600000*%
G04 #@! TD*
G04 #@! TA.AperFunction,ViaPad*
%ADD14C,0.800000*%
G04 #@! TD*
G04 #@! TA.AperFunction,Conductor*
%ADD15C,0.200000*%
G04 #@! TD*
G04 #@! TA.AperFunction,Conductor*
%ADD16C,0.250000*%
G04 #@! TD*
G04 #@! TA.AperFunction,Conductor*
%ADD17C,0.400000*%
G04 #@! TD*
G04 #@! TA.AperFunction,Conductor*
%ADD18C,0.300000*%
G04 #@! TD*
G04 #@! TA.AperFunction,Conductor*
%ADD19C,0.255000*%
G04 #@! TD*
G04 #@! TA.AperFunction,Conductor*
%ADD20C,0.254000*%
G04 #@! TD*
G04 #@! TA.AperFunction,Conductor*
%ADD21C,0.100000*%
G04 #@! TD*
G04 APERTURE END LIST*
D10*
G36*
X90289294Y-101792706D02*
G01*
X94995764Y-101792706D01*
X94995764Y-98971876D01*
X94801896Y-98971876D01*
X94801284Y-98973727D01*
X94778841Y-98977338D01*
X94732769Y-98982606D01*
X94669231Y-98988893D01*
X94594392Y-98995561D01*
X94573340Y-98997320D01*
X94477803Y-99006427D01*
X94373834Y-99018351D01*
X94274598Y-99031481D01*
X94199811Y-99043064D01*
X94125542Y-99058275D01*
X94027473Y-99082145D01*
X93909982Y-99113399D01*
X93777452Y-99150761D01*
X93634263Y-99192955D01*
X93484795Y-99238704D01*
X93333430Y-99286732D01*
X93184548Y-99335763D01*
X93120647Y-99357432D01*
X93030540Y-99389806D01*
X92937257Y-99425997D01*
X92844850Y-99464143D01*
X92757369Y-99502381D01*
X92678867Y-99538847D01*
X92613395Y-99571678D01*
X92565005Y-99599011D01*
X92537749Y-99618983D01*
X92533377Y-99627484D01*
X92548345Y-99638762D01*
X92586221Y-99659286D01*
X92642351Y-99686756D01*
X92712082Y-99718872D01*
X92770069Y-99744437D01*
X93123419Y-99908216D01*
X93452022Y-100083365D01*
X93759600Y-100272180D01*
X94049878Y-100476959D01*
X94326580Y-100699997D01*
X94344623Y-100715562D01*
X94408978Y-100773286D01*
X94472631Y-100833804D01*
X94527964Y-100889680D01*
X94565396Y-100931098D01*
X94637957Y-101018255D01*
X94551655Y-101074129D01*
X94497986Y-101112623D01*
X94447034Y-101155325D01*
X94416682Y-101185590D01*
X94348080Y-101283285D01*
X94294681Y-101398406D01*
X94260294Y-101520756D01*
X94248706Y-101635314D01*
X94244630Y-101679427D01*
X94233930Y-101705322D01*
X94230029Y-101708105D01*
X94207978Y-101710967D01*
X94161078Y-101713149D01*
X94094357Y-101714676D01*
X94012841Y-101715569D01*
X93921556Y-101715852D01*
X93825527Y-101715547D01*
X93729782Y-101714677D01*
X93639347Y-101713264D01*
X93559247Y-101711332D01*
X93494510Y-101708904D01*
X93450161Y-101706001D01*
X93438004Y-101704515D01*
X93394796Y-101696145D01*
X93365379Y-101688105D01*
X93359008Y-101684930D01*
X93357391Y-101667780D01*
X93359043Y-101627321D01*
X93363582Y-101569905D01*
X93369405Y-101512670D01*
X93377755Y-101336726D01*
X93361527Y-101177397D01*
X93320361Y-101033797D01*
X93253899Y-100905039D01*
X93161784Y-100790237D01*
X93043657Y-100688503D01*
X93033409Y-100681142D01*
X92883123Y-100588632D01*
X92709857Y-100506606D01*
X92519253Y-100436958D01*
X92316952Y-100381582D01*
X92108595Y-100342373D01*
X91978818Y-100327011D01*
X91735354Y-100319530D01*
X91487077Y-100340141D01*
X91236992Y-100388092D01*
X90988104Y-100462632D01*
X90743418Y-100563011D01*
X90505938Y-100688478D01*
X90487264Y-100699622D01*
X90434828Y-100730162D01*
X90393483Y-100752279D01*
X90368680Y-100763167D01*
X90364000Y-100763043D01*
X90369759Y-100731175D01*
X90385032Y-100680526D01*
X90406818Y-100619448D01*
X90432110Y-100556293D01*
X90457905Y-100499415D01*
X90461174Y-100492849D01*
X90522336Y-100385450D01*
X90598089Y-100278715D01*
X90692365Y-100167587D01*
X90803963Y-100052059D01*
X90931160Y-99934304D01*
X91079094Y-99810513D01*
X91244155Y-99682905D01*
X91422732Y-99553694D01*
X91611215Y-99425098D01*
X91805996Y-99299333D01*
X92003464Y-99178615D01*
X92200008Y-99065162D01*
X92392021Y-98961189D01*
X92575890Y-98868913D01*
X92748008Y-98790550D01*
X92904763Y-98728318D01*
X93022130Y-98690071D01*
X93021690Y-98678067D01*
X92999300Y-98649644D01*
X92956609Y-98606713D01*
X92925013Y-98577554D01*
X92845626Y-98503902D01*
X92751799Y-98413502D01*
X92649007Y-98311884D01*
X92542724Y-98204579D01*
X92438425Y-98097115D01*
X92341586Y-97995023D01*
X92257682Y-97903834D01*
X92254707Y-97900530D01*
X92142408Y-97773140D01*
X92039399Y-97650352D01*
X91943218Y-97528492D01*
X91851405Y-97403887D01*
X91761500Y-97272861D01*
X91671041Y-97131742D01*
X91577566Y-96976855D01*
X91478617Y-96804526D01*
X91371730Y-96611081D01*
X91292062Y-96463368D01*
X91116465Y-96116154D01*
X90966969Y-95779112D01*
X90842630Y-95449710D01*
X90742504Y-95125413D01*
X90665647Y-94803687D01*
X90656678Y-94758644D01*
X90618399Y-94525778D01*
X90598471Y-94310930D01*
X90597172Y-94108322D01*
X90614780Y-93912173D01*
X90651572Y-93716705D01*
X90707827Y-93516137D01*
X90717909Y-93485412D01*
X90745839Y-93402924D01*
X90766328Y-93345867D01*
X90780829Y-93311141D01*
X90790790Y-93295648D01*
X90797664Y-93296289D01*
X90801851Y-93306118D01*
X90805862Y-93328403D01*
X90812427Y-93374437D01*
X90820753Y-93438274D01*
X90830047Y-93513968D01*
X90833734Y-93545177D01*
X90877985Y-93855038D01*
X90938132Y-94168803D01*
X91012426Y-94479748D01*
X91099118Y-94781152D01*
X91196459Y-95066291D01*
X91290555Y-95300765D01*
X91444377Y-95628078D01*
X91621826Y-95957998D01*
X91819662Y-96285933D01*
X92034646Y-96607290D01*
X92263538Y-96917477D01*
X92503100Y-97211901D01*
X92750092Y-97485970D01*
X93001274Y-97735091D01*
X93019580Y-97752076D01*
X93285926Y-97988087D01*
X93549019Y-98200243D01*
X93815187Y-98392997D01*
X94090756Y-98570798D01*
X94382055Y-98738099D01*
X94539813Y-98821377D01*
X94621970Y-98864377D01*
X94692746Y-98902959D01*
X94748652Y-98935092D01*
X94786198Y-98958742D01*
X94801896Y-98971876D01*
X94995764Y-98971876D01*
X94995764Y-93022236D01*
X90289294Y-93022236D01*
X90289294Y-101792706D01*
G37*
X90289294Y-101792706D02*
X94995764Y-101792706D01*
X94995764Y-98971876D01*
X94801896Y-98971876D01*
X94801284Y-98973727D01*
X94778841Y-98977338D01*
X94732769Y-98982606D01*
X94669231Y-98988893D01*
X94594392Y-98995561D01*
X94573340Y-98997320D01*
X94477803Y-99006427D01*
X94373834Y-99018351D01*
X94274598Y-99031481D01*
X94199811Y-99043064D01*
X94125542Y-99058275D01*
X94027473Y-99082145D01*
X93909982Y-99113399D01*
X93777452Y-99150761D01*
X93634263Y-99192955D01*
X93484795Y-99238704D01*
X93333430Y-99286732D01*
X93184548Y-99335763D01*
X93120647Y-99357432D01*
X93030540Y-99389806D01*
X92937257Y-99425997D01*
X92844850Y-99464143D01*
X92757369Y-99502381D01*
X92678867Y-99538847D01*
X92613395Y-99571678D01*
X92565005Y-99599011D01*
X92537749Y-99618983D01*
X92533377Y-99627484D01*
X92548345Y-99638762D01*
X92586221Y-99659286D01*
X92642351Y-99686756D01*
X92712082Y-99718872D01*
X92770069Y-99744437D01*
X93123419Y-99908216D01*
X93452022Y-100083365D01*
X93759600Y-100272180D01*
X94049878Y-100476959D01*
X94326580Y-100699997D01*
X94344623Y-100715562D01*
X94408978Y-100773286D01*
X94472631Y-100833804D01*
X94527964Y-100889680D01*
X94565396Y-100931098D01*
X94637957Y-101018255D01*
X94551655Y-101074129D01*
X94497986Y-101112623D01*
X94447034Y-101155325D01*
X94416682Y-101185590D01*
X94348080Y-101283285D01*
X94294681Y-101398406D01*
X94260294Y-101520756D01*
X94248706Y-101635314D01*
X94244630Y-101679427D01*
X94233930Y-101705322D01*
X94230029Y-101708105D01*
X94207978Y-101710967D01*
X94161078Y-101713149D01*
X94094357Y-101714676D01*
X94012841Y-101715569D01*
X93921556Y-101715852D01*
X93825527Y-101715547D01*
X93729782Y-101714677D01*
X93639347Y-101713264D01*
X93559247Y-101711332D01*
X93494510Y-101708904D01*
X93450161Y-101706001D01*
X93438004Y-101704515D01*
X93394796Y-101696145D01*
X93365379Y-101688105D01*
X93359008Y-101684930D01*
X93357391Y-101667780D01*
X93359043Y-101627321D01*
X93363582Y-101569905D01*
X93369405Y-101512670D01*
X93377755Y-101336726D01*
X93361527Y-101177397D01*
X93320361Y-101033797D01*
X93253899Y-100905039D01*
X93161784Y-100790237D01*
X93043657Y-100688503D01*
X93033409Y-100681142D01*
X92883123Y-100588632D01*
X92709857Y-100506606D01*
X92519253Y-100436958D01*
X92316952Y-100381582D01*
X92108595Y-100342373D01*
X91978818Y-100327011D01*
X91735354Y-100319530D01*
X91487077Y-100340141D01*
X91236992Y-100388092D01*
X90988104Y-100462632D01*
X90743418Y-100563011D01*
X90505938Y-100688478D01*
X90487264Y-100699622D01*
X90434828Y-100730162D01*
X90393483Y-100752279D01*
X90368680Y-100763167D01*
X90364000Y-100763043D01*
X90369759Y-100731175D01*
X90385032Y-100680526D01*
X90406818Y-100619448D01*
X90432110Y-100556293D01*
X90457905Y-100499415D01*
X90461174Y-100492849D01*
X90522336Y-100385450D01*
X90598089Y-100278715D01*
X90692365Y-100167587D01*
X90803963Y-100052059D01*
X90931160Y-99934304D01*
X91079094Y-99810513D01*
X91244155Y-99682905D01*
X91422732Y-99553694D01*
X91611215Y-99425098D01*
X91805996Y-99299333D01*
X92003464Y-99178615D01*
X92200008Y-99065162D01*
X92392021Y-98961189D01*
X92575890Y-98868913D01*
X92748008Y-98790550D01*
X92904763Y-98728318D01*
X93022130Y-98690071D01*
X93021690Y-98678067D01*
X92999300Y-98649644D01*
X92956609Y-98606713D01*
X92925013Y-98577554D01*
X92845626Y-98503902D01*
X92751799Y-98413502D01*
X92649007Y-98311884D01*
X92542724Y-98204579D01*
X92438425Y-98097115D01*
X92341586Y-97995023D01*
X92257682Y-97903834D01*
X92254707Y-97900530D01*
X92142408Y-97773140D01*
X92039399Y-97650352D01*
X91943218Y-97528492D01*
X91851405Y-97403887D01*
X91761500Y-97272861D01*
X91671041Y-97131742D01*
X91577566Y-96976855D01*
X91478617Y-96804526D01*
X91371730Y-96611081D01*
X91292062Y-96463368D01*
X91116465Y-96116154D01*
X90966969Y-95779112D01*
X90842630Y-95449710D01*
X90742504Y-95125413D01*
X90665647Y-94803687D01*
X90656678Y-94758644D01*
X90618399Y-94525778D01*
X90598471Y-94310930D01*
X90597172Y-94108322D01*
X90614780Y-93912173D01*
X90651572Y-93716705D01*
X90707827Y-93516137D01*
X90717909Y-93485412D01*
X90745839Y-93402924D01*
X90766328Y-93345867D01*
X90780829Y-93311141D01*
X90790790Y-93295648D01*
X90797664Y-93296289D01*
X90801851Y-93306118D01*
X90805862Y-93328403D01*
X90812427Y-93374437D01*
X90820753Y-93438274D01*
X90830047Y-93513968D01*
X90833734Y-93545177D01*
X90877985Y-93855038D01*
X90938132Y-94168803D01*
X91012426Y-94479748D01*
X91099118Y-94781152D01*
X91196459Y-95066291D01*
X91290555Y-95300765D01*
X91444377Y-95628078D01*
X91621826Y-95957998D01*
X91819662Y-96285933D01*
X92034646Y-96607290D01*
X92263538Y-96917477D01*
X92503100Y-97211901D01*
X92750092Y-97485970D01*
X93001274Y-97735091D01*
X93019580Y-97752076D01*
X93285926Y-97988087D01*
X93549019Y-98200243D01*
X93815187Y-98392997D01*
X94090756Y-98570798D01*
X94382055Y-98738099D01*
X94539813Y-98821377D01*
X94621970Y-98864377D01*
X94692746Y-98902959D01*
X94748652Y-98935092D01*
X94786198Y-98958742D01*
X94801896Y-98971876D01*
X94995764Y-98971876D01*
X94995764Y-93022236D01*
X90289294Y-93022236D01*
X90289294Y-101792706D01*
D11*
X94174000Y-93844000D03*
D12*
X46450000Y-89850000D03*
X54050000Y-98750000D03*
X54050000Y-89850000D03*
X54050000Y-95550000D03*
X46450000Y-95550000D03*
X46450000Y-98750000D03*
D13*
X77075000Y-80625000D03*
X76350000Y-92100000D03*
X45700000Y-41975000D03*
X52475000Y-50800000D03*
X54825000Y-51025000D03*
X51650000Y-56725000D03*
X55750000Y-60325000D03*
X49025000Y-64250000D03*
X51250000Y-46100000D03*
X55200000Y-42425000D03*
X58275000Y-44925000D03*
D14*
X46990000Y-71628000D03*
X50038000Y-71628000D03*
D13*
X63750000Y-42500000D03*
X70500000Y-48650000D03*
X73700000Y-77400000D03*
X81000000Y-87350000D03*
X76850000Y-83900000D03*
X61500000Y-88800000D03*
X63300000Y-75150000D03*
X64300000Y-70600000D03*
X72650000Y-55250000D03*
X78300000Y-83900000D03*
X87800000Y-84700000D03*
X93000000Y-84700000D03*
X57500000Y-66950000D03*
X49800000Y-69800000D03*
X84737500Y-84212500D03*
X75499992Y-89700008D03*
D14*
X65050000Y-56800000D03*
X64000000Y-56775000D03*
X62975000Y-56750000D03*
X63775000Y-57775000D03*
X64850000Y-57800000D03*
D13*
X61000000Y-44650000D03*
X58850000Y-49800000D03*
D14*
X61000000Y-56525000D03*
X50000000Y-73100000D03*
X61000000Y-74900000D03*
X48850000Y-68900000D03*
X61600000Y-68154510D03*
X60100000Y-56125000D03*
D13*
X51400000Y-52500000D03*
D14*
X59650000Y-54000000D03*
X59825000Y-55000000D03*
D13*
X52200000Y-74850000D03*
X60000000Y-81750000D03*
X73250000Y-97000000D03*
X59300000Y-75250000D03*
X67325002Y-75375002D03*
X72800000Y-87750000D03*
X81100000Y-90800000D03*
X88400000Y-63400000D03*
X55999992Y-65500000D03*
X82500000Y-88500000D03*
X77700000Y-86700000D03*
X87500000Y-81500000D03*
X80000000Y-82000000D03*
X54750000Y-66150000D03*
X81550000Y-59200000D03*
X53950000Y-65650000D03*
X80400000Y-58550000D03*
X55500000Y-68500000D03*
X74502843Y-62547990D03*
X83000000Y-71400000D03*
X57224974Y-68275000D03*
X56500000Y-69500000D03*
X76500000Y-64100000D03*
X54550000Y-67800000D03*
X50150000Y-62350000D03*
D15*
X87800000Y-84700000D02*
X93000000Y-84700000D01*
D16*
X58850000Y-46800000D02*
X58850000Y-49800000D01*
X61000000Y-44650000D02*
X58850000Y-46800000D01*
D17*
X60000000Y-78900000D02*
X60000000Y-81750000D01*
X58000000Y-76900000D02*
X60000000Y-78900000D01*
X53400000Y-76900000D02*
X58000000Y-76900000D01*
X52200000Y-75700000D02*
X53400000Y-76900000D01*
X52200000Y-74850000D02*
X52200000Y-75700000D01*
X55500000Y-97000000D02*
X54050000Y-95550000D01*
X73250000Y-97000000D02*
X55500000Y-97000000D01*
X65738004Y-76962000D02*
X67325002Y-75375002D01*
X60706000Y-76962000D02*
X65738004Y-76962000D01*
X59300000Y-75556000D02*
X60706000Y-76962000D01*
X59300000Y-75250000D02*
X59300000Y-75556000D01*
D18*
X81100000Y-90800000D02*
X78050000Y-87750000D01*
X78050000Y-87750000D02*
X72800000Y-87750000D01*
D16*
X59504004Y-61995988D02*
X56299991Y-65200001D01*
X56299991Y-65200001D02*
X55999992Y-65500000D01*
X86995988Y-61995988D02*
X59504004Y-61995988D01*
X88400000Y-63400000D02*
X86995988Y-61995988D01*
D18*
X79500000Y-88500000D02*
X77700000Y-86700000D01*
X82500000Y-88500000D02*
X79500000Y-88500000D01*
X87000000Y-82000000D02*
X80000000Y-82000000D01*
X87500000Y-81500000D02*
X87000000Y-82000000D01*
D16*
X81125736Y-59200000D02*
X81550000Y-59200000D01*
X61275736Y-59200000D02*
X81125736Y-59200000D01*
X54750000Y-65725736D02*
X61275736Y-59200000D01*
X54750000Y-66150000D02*
X54750000Y-65725736D01*
X61050000Y-58550000D02*
X80400000Y-58550000D01*
X53950000Y-65650000D02*
X61050000Y-58550000D01*
X60952010Y-62547990D02*
X74502843Y-62547990D01*
X55500000Y-68000000D02*
X60952010Y-62547990D01*
X55500000Y-68500000D02*
X55500000Y-68000000D01*
D19*
X58725000Y-68275000D02*
X57224974Y-68275000D01*
X72400000Y-63700000D02*
X63300000Y-63700000D01*
X73500000Y-64800000D02*
X72400000Y-63700000D01*
X73500000Y-67020664D02*
X73500000Y-64800000D01*
X63300000Y-63700000D02*
X58725000Y-68275000D01*
X77879336Y-71400000D02*
X73500000Y-67020664D01*
X83000000Y-71400000D02*
X77879336Y-71400000D01*
D16*
X62700000Y-63100000D02*
X75500000Y-63100000D01*
X75500000Y-63100000D02*
X76500000Y-64100000D01*
X58077002Y-67722998D02*
X62700000Y-63100000D01*
X56500000Y-67722998D02*
X58077002Y-67722998D01*
X56200001Y-68022997D02*
X56500000Y-67722998D01*
X56200001Y-69200001D02*
X56200001Y-68022997D01*
X56500000Y-69500000D02*
X56200001Y-69200001D01*
X50150000Y-66200000D02*
X50150000Y-62350000D01*
X51750000Y-67800000D02*
X50150000Y-66200000D01*
X54550000Y-67800000D02*
X51750000Y-67800000D01*
D20*
X75373000Y-52750000D02*
X75375440Y-52774776D01*
X75382667Y-52798601D01*
X75394403Y-52820557D01*
X75410197Y-52839803D01*
X75429443Y-52855597D01*
X75451399Y-52867333D01*
X75475224Y-52874560D01*
X75500000Y-52877000D01*
X94873000Y-52877000D01*
X94873000Y-92636236D01*
X90289294Y-92636236D01*
X90253157Y-92639779D01*
X90216965Y-92643073D01*
X90215667Y-92643455D01*
X90214320Y-92643587D01*
X90179524Y-92654092D01*
X90144696Y-92664343D01*
X90143498Y-92664970D01*
X90142201Y-92665361D01*
X90110085Y-92682437D01*
X90077935Y-92699245D01*
X90076882Y-92700091D01*
X90075685Y-92700728D01*
X90047491Y-92723723D01*
X90019224Y-92746450D01*
X90018355Y-92747486D01*
X90017305Y-92748342D01*
X89994133Y-92776353D01*
X89970800Y-92804159D01*
X89970148Y-92805344D01*
X89969285Y-92806388D01*
X89952007Y-92838344D01*
X89934508Y-92870174D01*
X89934099Y-92871465D01*
X89933455Y-92872655D01*
X89922717Y-92907343D01*
X89911729Y-92941982D01*
X89911578Y-92943328D01*
X89911178Y-92944620D01*
X89907375Y-92980801D01*
X89903332Y-93016847D01*
X89903314Y-93019439D01*
X89903303Y-93019541D01*
X89903312Y-93019643D01*
X89903294Y-93022236D01*
X89903294Y-101623000D01*
X53696234Y-101623000D01*
X53700118Y-101615734D01*
X53724763Y-101534491D01*
X53733085Y-101450000D01*
X53731000Y-101428832D01*
X53731000Y-100278374D01*
X53857691Y-100316805D01*
X54050000Y-100335746D01*
X54242310Y-100316805D01*
X54427229Y-100260711D01*
X54597651Y-100169618D01*
X54747028Y-100047028D01*
X54869618Y-99897651D01*
X54960711Y-99727229D01*
X55016805Y-99542310D01*
X55031000Y-99398187D01*
X55031000Y-98670616D01*
X64444000Y-98670616D01*
X64444000Y-98829384D01*
X64474974Y-98985102D01*
X64535732Y-99131784D01*
X64623939Y-99263795D01*
X64736205Y-99376061D01*
X64868216Y-99464268D01*
X65014898Y-99525026D01*
X65170616Y-99556000D01*
X65329384Y-99556000D01*
X65485102Y-99525026D01*
X65631784Y-99464268D01*
X65763795Y-99376061D01*
X65876061Y-99263795D01*
X65964268Y-99131784D01*
X66025026Y-98985102D01*
X66056000Y-98829384D01*
X66056000Y-98670616D01*
X67444000Y-98670616D01*
X67444000Y-98829384D01*
X67474974Y-98985102D01*
X67535732Y-99131784D01*
X67623939Y-99263795D01*
X67736205Y-99376061D01*
X67868216Y-99464268D01*
X68014898Y-99525026D01*
X68170616Y-99556000D01*
X68329384Y-99556000D01*
X68485102Y-99525026D01*
X68631784Y-99464268D01*
X68763795Y-99376061D01*
X68876061Y-99263795D01*
X68964268Y-99131784D01*
X69025026Y-98985102D01*
X69056000Y-98829384D01*
X69056000Y-98670616D01*
X85194000Y-98670616D01*
X85194000Y-98829384D01*
X85224974Y-98985102D01*
X85285732Y-99131784D01*
X85373939Y-99263795D01*
X85486205Y-99376061D01*
X85618216Y-99464268D01*
X85764898Y-99525026D01*
X85920616Y-99556000D01*
X86079384Y-99556000D01*
X86235102Y-99525026D01*
X86381784Y-99464268D01*
X86513795Y-99376061D01*
X86626061Y-99263795D01*
X86714268Y-99131784D01*
X86775026Y-98985102D01*
X86806000Y-98829384D01*
X86806000Y-98670616D01*
X88194000Y-98670616D01*
X88194000Y-98829384D01*
X88224974Y-98985102D01*
X88285732Y-99131784D01*
X88373939Y-99263795D01*
X88486205Y-99376061D01*
X88618216Y-99464268D01*
X88764898Y-99525026D01*
X88920616Y-99556000D01*
X89079384Y-99556000D01*
X89235102Y-99525026D01*
X89381784Y-99464268D01*
X89513795Y-99376061D01*
X89626061Y-99263795D01*
X89714268Y-99131784D01*
X89775026Y-98985102D01*
X89806000Y-98829384D01*
X89806000Y-98670616D01*
X89775026Y-98514898D01*
X89714268Y-98368216D01*
X89626061Y-98236205D01*
X89513795Y-98123939D01*
X89381784Y-98035732D01*
X89235102Y-97974974D01*
X89079384Y-97944000D01*
X88920616Y-97944000D01*
X88764898Y-97974974D01*
X88618216Y-98035732D01*
X88486205Y-98123939D01*
X88373939Y-98236205D01*
X88285732Y-98368216D01*
X88224974Y-98514898D01*
X88194000Y-98670616D01*
X86806000Y-98670616D01*
X86775026Y-98514898D01*
X86714268Y-98368216D01*
X86626061Y-98236205D01*
X86513795Y-98123939D01*
X86381784Y-98035732D01*
X86235102Y-97974974D01*
X86079384Y-97944000D01*
X85920616Y-97944000D01*
X85764898Y-97974974D01*
X85618216Y-98035732D01*
X85486205Y-98123939D01*
X85373939Y-98236205D01*
X85285732Y-98368216D01*
X85224974Y-98514898D01*
X85194000Y-98670616D01*
X69056000Y-98670616D01*
X69025026Y-98514898D01*
X68964268Y-98368216D01*
X68876061Y-98236205D01*
X68763795Y-98123939D01*
X68631784Y-98035732D01*
X68485102Y-97974974D01*
X68329384Y-97944000D01*
X68170616Y-97944000D01*
X68014898Y-97974974D01*
X67868216Y-98035732D01*
X67736205Y-98123939D01*
X67623939Y-98236205D01*
X67535732Y-98368216D01*
X67474974Y-98514898D01*
X67444000Y-98670616D01*
X66056000Y-98670616D01*
X66025026Y-98514898D01*
X65964268Y-98368216D01*
X65876061Y-98236205D01*
X65763795Y-98123939D01*
X65631784Y-98035732D01*
X65485102Y-97974974D01*
X65329384Y-97944000D01*
X65170616Y-97944000D01*
X65014898Y-97974974D01*
X64868216Y-98035732D01*
X64736205Y-98123939D01*
X64623939Y-98236205D01*
X64535732Y-98368216D01*
X64474974Y-98514898D01*
X64444000Y-98670616D01*
X55031000Y-98670616D01*
X55031000Y-98101813D01*
X55016805Y-97957690D01*
X54960711Y-97772771D01*
X54869618Y-97602349D01*
X54747028Y-97452972D01*
X54597651Y-97330382D01*
X54427228Y-97239289D01*
X54242309Y-97183195D01*
X54050000Y-97164254D01*
X53857690Y-97183195D01*
X53731000Y-97221626D01*
X53731000Y-97078374D01*
X53857691Y-97116805D01*
X54050000Y-97135746D01*
X54242310Y-97116805D01*
X54427229Y-97060711D01*
X54597651Y-96969618D01*
X54625283Y-96946941D01*
X55068987Y-97390645D01*
X55087183Y-97412817D01*
X55157567Y-97470579D01*
X55175652Y-97485421D01*
X55276585Y-97539371D01*
X55386104Y-97572593D01*
X55500000Y-97583811D01*
X55528540Y-97581000D01*
X72893761Y-97581000D01*
X72927426Y-97603494D01*
X73051360Y-97654829D01*
X73182927Y-97681000D01*
X73317073Y-97681000D01*
X73448640Y-97654829D01*
X73572574Y-97603494D01*
X73684112Y-97528967D01*
X73778967Y-97434112D01*
X73853494Y-97322574D01*
X73904829Y-97198640D01*
X73931000Y-97067073D01*
X73931000Y-96932927D01*
X73904829Y-96801360D01*
X73853494Y-96677426D01*
X73778967Y-96565888D01*
X73684112Y-96471033D01*
X73572574Y-96396506D01*
X73448640Y-96345171D01*
X73317073Y-96319000D01*
X73182927Y-96319000D01*
X73051360Y-96345171D01*
X72927426Y-96396506D01*
X72893761Y-96419000D01*
X55740658Y-96419000D01*
X55031000Y-95709343D01*
X55031000Y-94901813D01*
X55016805Y-94757690D01*
X54960711Y-94572771D01*
X54869618Y-94402349D01*
X54747028Y-94252972D01*
X54597651Y-94130382D01*
X54427228Y-94039289D01*
X54242309Y-93983195D01*
X54050000Y-93964254D01*
X53857690Y-93983195D01*
X53731000Y-94021626D01*
X53731000Y-91378374D01*
X53857691Y-91416805D01*
X54050000Y-91435746D01*
X54242310Y-91416805D01*
X54427229Y-91360711D01*
X54597651Y-91269618D01*
X54747028Y-91147028D01*
X54869618Y-90997651D01*
X54960711Y-90827229D01*
X55016805Y-90642310D01*
X55031000Y-90498187D01*
X55031000Y-89632935D01*
X74818992Y-89632935D01*
X74818992Y-89767081D01*
X74845163Y-89898648D01*
X74896498Y-90022582D01*
X74971025Y-90134120D01*
X75065880Y-90228975D01*
X75177418Y-90303502D01*
X75301352Y-90354837D01*
X75432919Y-90381008D01*
X75567065Y-90381008D01*
X75698632Y-90354837D01*
X75822566Y-90303502D01*
X75934104Y-90228975D01*
X76028959Y-90134120D01*
X76103486Y-90022582D01*
X76154821Y-89898648D01*
X76180992Y-89767081D01*
X76180992Y-89632935D01*
X76154821Y-89501368D01*
X76103486Y-89377434D01*
X76028959Y-89265896D01*
X75934104Y-89171041D01*
X75822566Y-89096514D01*
X75698632Y-89045179D01*
X75567065Y-89019008D01*
X75432919Y-89019008D01*
X75301352Y-89045179D01*
X75177418Y-89096514D01*
X75065880Y-89171041D01*
X74971025Y-89265896D01*
X74896498Y-89377434D01*
X74845163Y-89501368D01*
X74818992Y-89632935D01*
X55031000Y-89632935D01*
X55031000Y-89201813D01*
X55016805Y-89057690D01*
X54960711Y-88872771D01*
X54869618Y-88702349D01*
X54747028Y-88552972D01*
X54597651Y-88430382D01*
X54427228Y-88339289D01*
X54242309Y-88283195D01*
X54050000Y-88264254D01*
X53857690Y-88283195D01*
X53672771Y-88339289D01*
X53642164Y-88355649D01*
X53640119Y-88350687D01*
X53637261Y-88345402D01*
X53637257Y-88345393D01*
X53637252Y-88345386D01*
X53590245Y-88259881D01*
X53568189Y-88227669D01*
X53546557Y-88195110D01*
X53542721Y-88190473D01*
X53479996Y-88115721D01*
X53452103Y-88088406D01*
X53424563Y-88060673D01*
X53419899Y-88056870D01*
X53343849Y-87995724D01*
X53311146Y-87974323D01*
X53278776Y-87952490D01*
X53273473Y-87949670D01*
X53273464Y-87949664D01*
X53273455Y-87949660D01*
X53186983Y-87904454D01*
X53150748Y-87889814D01*
X53114755Y-87874684D01*
X53108994Y-87872944D01*
X53108992Y-87872943D01*
X53108988Y-87872942D01*
X53015382Y-87845392D01*
X52977027Y-87838075D01*
X52938742Y-87830217D01*
X52932759Y-87829631D01*
X52932756Y-87829630D01*
X52932753Y-87829630D01*
X52835571Y-87820786D01*
X52796509Y-87821059D01*
X52757448Y-87820786D01*
X52751458Y-87821373D01*
X52751454Y-87821373D01*
X52654410Y-87831573D01*
X52616162Y-87839424D01*
X52577772Y-87846747D01*
X52572021Y-87848484D01*
X52572011Y-87848486D01*
X52572002Y-87848490D01*
X52478792Y-87877343D01*
X52442800Y-87892472D01*
X52406559Y-87907115D01*
X52401256Y-87909935D01*
X52401248Y-87909939D01*
X52401241Y-87909944D01*
X52315408Y-87956354D01*
X52283046Y-87978182D01*
X52250337Y-87999587D01*
X52245673Y-88003390D01*
X52170485Y-88065592D01*
X52142964Y-88093305D01*
X52115052Y-88120639D01*
X52111216Y-88125276D01*
X52111213Y-88125279D01*
X52111212Y-88125281D01*
X52049540Y-88200897D01*
X52027918Y-88233440D01*
X52005850Y-88265670D01*
X52002987Y-88270964D01*
X51977446Y-88319000D01*
X48522746Y-88319000D01*
X48490245Y-88259881D01*
X48468189Y-88227669D01*
X48446557Y-88195110D01*
X48442721Y-88190473D01*
X48379996Y-88115721D01*
X48352103Y-88088406D01*
X48324563Y-88060673D01*
X48319899Y-88056870D01*
X48243849Y-87995724D01*
X48211146Y-87974323D01*
X48178776Y-87952490D01*
X48173473Y-87949670D01*
X48173464Y-87949664D01*
X48173455Y-87949660D01*
X48086983Y-87904454D01*
X48050748Y-87889814D01*
X48014755Y-87874684D01*
X48008994Y-87872944D01*
X48008992Y-87872943D01*
X48008988Y-87872942D01*
X47915382Y-87845392D01*
X47877027Y-87838075D01*
X47838742Y-87830217D01*
X47832759Y-87829631D01*
X47832756Y-87829630D01*
X47832753Y-87829630D01*
X47735571Y-87820786D01*
X47696509Y-87821059D01*
X47657448Y-87820786D01*
X47651458Y-87821373D01*
X47651454Y-87821373D01*
X47554410Y-87831573D01*
X47516162Y-87839424D01*
X47477772Y-87846747D01*
X47472021Y-87848484D01*
X47472011Y-87848486D01*
X47472002Y-87848490D01*
X47378792Y-87877343D01*
X47342800Y-87892472D01*
X47306559Y-87907115D01*
X47301256Y-87909935D01*
X47301248Y-87909939D01*
X47301241Y-87909944D01*
X47215408Y-87956354D01*
X47183046Y-87978182D01*
X47150337Y-87999587D01*
X47145673Y-88003390D01*
X47070485Y-88065592D01*
X47042964Y-88093305D01*
X47015052Y-88120639D01*
X47011216Y-88125276D01*
X47011213Y-88125279D01*
X47011212Y-88125281D01*
X46949540Y-88200897D01*
X46927918Y-88233440D01*
X46905850Y-88265670D01*
X46902987Y-88270964D01*
X46857932Y-88355701D01*
X46827228Y-88339289D01*
X46642309Y-88283195D01*
X46450000Y-88264254D01*
X46257690Y-88283195D01*
X46072771Y-88339289D01*
X45902349Y-88430382D01*
X45752972Y-88552972D01*
X45630382Y-88702349D01*
X45539289Y-88872772D01*
X45483195Y-89057691D01*
X45469000Y-89201814D01*
X45469001Y-90498187D01*
X45483196Y-90642310D01*
X45539290Y-90827229D01*
X45630383Y-90997651D01*
X45752973Y-91147028D01*
X45902350Y-91269618D01*
X46072772Y-91360711D01*
X46257691Y-91416805D01*
X46450000Y-91435746D01*
X46642310Y-91416805D01*
X46769001Y-91378374D01*
X46769001Y-94021626D01*
X46642309Y-93983195D01*
X46450000Y-93964254D01*
X46257690Y-93983195D01*
X46072771Y-94039289D01*
X45902349Y-94130382D01*
X45752972Y-94252972D01*
X45630382Y-94402349D01*
X45539289Y-94572772D01*
X45483195Y-94757691D01*
X45469000Y-94901814D01*
X45469001Y-96198187D01*
X45483196Y-96342310D01*
X45539290Y-96527229D01*
X45630383Y-96697651D01*
X45752973Y-96847028D01*
X45902350Y-96969618D01*
X46072772Y-97060711D01*
X46257691Y-97116805D01*
X46426998Y-97133480D01*
X46426998Y-97230036D01*
X46266665Y-97139497D01*
X46078233Y-97192374D01*
X45898553Y-97283303D01*
X45740065Y-97407538D01*
X45608859Y-97560306D01*
X45509978Y-97735735D01*
X45447221Y-97927084D01*
X45423000Y-98127000D01*
X45423000Y-98727000D01*
X46427000Y-98727000D01*
X46427000Y-98707000D01*
X46473000Y-98707000D01*
X46473000Y-98727000D01*
X46493000Y-98727000D01*
X46493000Y-98773000D01*
X46473000Y-98773000D01*
X46473000Y-100269963D01*
X46633335Y-100360503D01*
X46769000Y-100322433D01*
X46769000Y-101428832D01*
X46766915Y-101450000D01*
X46775237Y-101534491D01*
X46799882Y-101615734D01*
X46803766Y-101623000D01*
X44627000Y-101623000D01*
X44627000Y-98773000D01*
X45423000Y-98773000D01*
X45423000Y-99373000D01*
X45447221Y-99572916D01*
X45509978Y-99764265D01*
X45608859Y-99939694D01*
X45740065Y-100092462D01*
X45898553Y-100216697D01*
X46078233Y-100307626D01*
X46266665Y-100360503D01*
X46427000Y-100269963D01*
X46427000Y-98773000D01*
X45423000Y-98773000D01*
X44627000Y-98773000D01*
X44627000Y-87682927D01*
X72119000Y-87682927D01*
X72119000Y-87817073D01*
X72145171Y-87948640D01*
X72196506Y-88072574D01*
X72271033Y-88184112D01*
X72365888Y-88278967D01*
X72477426Y-88353494D01*
X72601360Y-88404829D01*
X72732927Y-88431000D01*
X72867073Y-88431000D01*
X72998640Y-88404829D01*
X73122574Y-88353494D01*
X73231069Y-88281000D01*
X77830054Y-88281000D01*
X80419714Y-90870661D01*
X80445171Y-90998640D01*
X80496506Y-91122574D01*
X80571033Y-91234112D01*
X80665888Y-91328967D01*
X80777426Y-91403494D01*
X80901360Y-91454829D01*
X81032927Y-91481000D01*
X81167073Y-91481000D01*
X81298640Y-91454829D01*
X81422574Y-91403494D01*
X81534112Y-91328967D01*
X81628967Y-91234112D01*
X81703494Y-91122574D01*
X81754829Y-90998640D01*
X81781000Y-90867073D01*
X81781000Y-90732927D01*
X81754829Y-90601360D01*
X81703494Y-90477426D01*
X81628967Y-90365888D01*
X81534112Y-90271033D01*
X81422574Y-90196506D01*
X81298640Y-90145171D01*
X81170661Y-90119714D01*
X80081947Y-89031000D01*
X82068931Y-89031000D01*
X82177426Y-89103494D01*
X82301360Y-89154829D01*
X82432927Y-89181000D01*
X82567073Y-89181000D01*
X82698640Y-89154829D01*
X82822574Y-89103494D01*
X82934112Y-89028967D01*
X83028967Y-88934112D01*
X83103494Y-88822574D01*
X83154829Y-88698640D01*
X83181000Y-88567073D01*
X83181000Y-88432927D01*
X83154829Y-88301360D01*
X83103494Y-88177426D01*
X83028967Y-88065888D01*
X82934112Y-87971033D01*
X82822574Y-87896506D01*
X82698640Y-87845171D01*
X82567073Y-87819000D01*
X82432927Y-87819000D01*
X82301360Y-87845171D01*
X82177426Y-87896506D01*
X82068931Y-87969000D01*
X79719947Y-87969000D01*
X78380287Y-86629340D01*
X78354829Y-86501360D01*
X78303494Y-86377426D01*
X78228967Y-86265888D01*
X78134112Y-86171033D01*
X78022574Y-86096506D01*
X77898640Y-86045171D01*
X77767073Y-86019000D01*
X77632927Y-86019000D01*
X77501360Y-86045171D01*
X77377426Y-86096506D01*
X77265888Y-86171033D01*
X77171033Y-86265888D01*
X77096506Y-86377426D01*
X77045171Y-86501360D01*
X77019000Y-86632927D01*
X77019000Y-86767073D01*
X77045171Y-86898640D01*
X77096506Y-87022574D01*
X77171033Y-87134112D01*
X77255921Y-87219000D01*
X73231069Y-87219000D01*
X73122574Y-87146506D01*
X72998640Y-87095171D01*
X72867073Y-87069000D01*
X72732927Y-87069000D01*
X72601360Y-87095171D01*
X72477426Y-87146506D01*
X72365888Y-87221033D01*
X72271033Y-87315888D01*
X72196506Y-87427426D01*
X72145171Y-87551360D01*
X72119000Y-87682927D01*
X44627000Y-87682927D01*
X44627000Y-78500000D01*
X49066915Y-78500000D01*
X49069000Y-78521169D01*
X49069001Y-83978821D01*
X49066915Y-84000000D01*
X49075237Y-84084491D01*
X49099882Y-84165734D01*
X49139903Y-84240609D01*
X49193763Y-84306237D01*
X49259391Y-84360097D01*
X49334266Y-84400118D01*
X49415509Y-84424763D01*
X49478832Y-84431000D01*
X49500000Y-84433085D01*
X49521168Y-84431000D01*
X57978832Y-84431000D01*
X58000000Y-84433085D01*
X58021168Y-84431000D01*
X58084491Y-84424763D01*
X58165734Y-84400118D01*
X58240609Y-84360097D01*
X58306237Y-84306237D01*
X58360097Y-84240609D01*
X58400118Y-84165734D01*
X58424763Y-84084491D01*
X58433085Y-84000000D01*
X58431000Y-83978832D01*
X58431000Y-83832927D01*
X77619000Y-83832927D01*
X77619000Y-83967073D01*
X77645171Y-84098640D01*
X77696506Y-84222574D01*
X77771033Y-84334112D01*
X77865888Y-84428967D01*
X77977426Y-84503494D01*
X78101360Y-84554829D01*
X78232927Y-84581000D01*
X78367073Y-84581000D01*
X78498640Y-84554829D01*
X78622574Y-84503494D01*
X78734112Y-84428967D01*
X78828967Y-84334112D01*
X78903494Y-84222574D01*
X78935449Y-84145427D01*
X84056500Y-84145427D01*
X84056500Y-84279573D01*
X84082671Y-84411140D01*
X84134006Y-84535074D01*
X84208533Y-84646612D01*
X84303388Y-84741467D01*
X84414926Y-84815994D01*
X84538860Y-84867329D01*
X84670427Y-84893500D01*
X84804573Y-84893500D01*
X84936140Y-84867329D01*
X85060074Y-84815994D01*
X85171612Y-84741467D01*
X85266467Y-84646612D01*
X85275610Y-84632927D01*
X87119000Y-84632927D01*
X87119000Y-84767073D01*
X87145171Y-84898640D01*
X87196506Y-85022574D01*
X87271033Y-85134112D01*
X87365888Y-85228967D01*
X87477426Y-85303494D01*
X87601360Y-85354829D01*
X87732927Y-85381000D01*
X87867073Y-85381000D01*
X87998640Y-85354829D01*
X88122574Y-85303494D01*
X88234112Y-85228967D01*
X88282079Y-85181000D01*
X92517921Y-85181000D01*
X92565888Y-85228967D01*
X92677426Y-85303494D01*
X92801360Y-85354829D01*
X92932927Y-85381000D01*
X93067073Y-85381000D01*
X93198640Y-85354829D01*
X93322574Y-85303494D01*
X93434112Y-85228967D01*
X93528967Y-85134112D01*
X93603494Y-85022574D01*
X93654829Y-84898640D01*
X93681000Y-84767073D01*
X93681000Y-84632927D01*
X93654829Y-84501360D01*
X93603494Y-84377426D01*
X93528967Y-84265888D01*
X93434112Y-84171033D01*
X93322574Y-84096506D01*
X93198640Y-84045171D01*
X93067073Y-84019000D01*
X92932927Y-84019000D01*
X92801360Y-84045171D01*
X92677426Y-84096506D01*
X92565888Y-84171033D01*
X92517921Y-84219000D01*
X88282079Y-84219000D01*
X88234112Y-84171033D01*
X88122574Y-84096506D01*
X87998640Y-84045171D01*
X87867073Y-84019000D01*
X87732927Y-84019000D01*
X87601360Y-84045171D01*
X87477426Y-84096506D01*
X87365888Y-84171033D01*
X87271033Y-84265888D01*
X87196506Y-84377426D01*
X87145171Y-84501360D01*
X87119000Y-84632927D01*
X85275610Y-84632927D01*
X85340994Y-84535074D01*
X85392329Y-84411140D01*
X85418500Y-84279573D01*
X85418500Y-84145427D01*
X85392329Y-84013860D01*
X85340994Y-83889926D01*
X85266467Y-83778388D01*
X85171612Y-83683533D01*
X85060074Y-83609006D01*
X84936140Y-83557671D01*
X84804573Y-83531500D01*
X84670427Y-83531500D01*
X84538860Y-83557671D01*
X84414926Y-83609006D01*
X84303388Y-83683533D01*
X84208533Y-83778388D01*
X84134006Y-83889926D01*
X84082671Y-84013860D01*
X84056500Y-84145427D01*
X78935449Y-84145427D01*
X78954829Y-84098640D01*
X78981000Y-83967073D01*
X78981000Y-83832927D01*
X78954829Y-83701360D01*
X78903494Y-83577426D01*
X78828967Y-83465888D01*
X78734112Y-83371033D01*
X78622574Y-83296506D01*
X78498640Y-83245171D01*
X78367073Y-83219000D01*
X78232927Y-83219000D01*
X78101360Y-83245171D01*
X77977426Y-83296506D01*
X77865888Y-83371033D01*
X77771033Y-83465888D01*
X77696506Y-83577426D01*
X77645171Y-83701360D01*
X77619000Y-83832927D01*
X58431000Y-83832927D01*
X58431000Y-78521168D01*
X58433085Y-78500000D01*
X58424763Y-78415509D01*
X58400118Y-78334266D01*
X58360097Y-78259391D01*
X58306237Y-78193763D01*
X58240609Y-78139903D01*
X58165734Y-78099882D01*
X58084491Y-78075237D01*
X58021168Y-78069000D01*
X58000000Y-78066915D01*
X57978832Y-78069000D01*
X49521168Y-78069000D01*
X49500000Y-78066915D01*
X49478832Y-78069000D01*
X49415509Y-78075237D01*
X49334266Y-78099882D01*
X49259391Y-78139903D01*
X49193763Y-78193763D01*
X49139903Y-78259391D01*
X49099882Y-78334266D01*
X49075237Y-78415509D01*
X49066915Y-78500000D01*
X44627000Y-78500000D01*
X44627000Y-74782927D01*
X51519000Y-74782927D01*
X51519000Y-74917073D01*
X51545171Y-75048640D01*
X51596506Y-75172574D01*
X51619000Y-75206239D01*
X51619000Y-75671460D01*
X51616189Y-75700000D01*
X51627407Y-75813895D01*
X51660629Y-75923414D01*
X51714579Y-76024347D01*
X51714580Y-76024348D01*
X51787184Y-76112817D01*
X51809355Y-76131012D01*
X52968987Y-77290645D01*
X52987183Y-77312817D01*
X53075652Y-77385421D01*
X53176585Y-77439371D01*
X53286104Y-77472593D01*
X53371460Y-77481000D01*
X53371462Y-77481000D01*
X53399999Y-77483811D01*
X53428536Y-77481000D01*
X57759343Y-77481000D01*
X59419000Y-79140658D01*
X59419001Y-81393760D01*
X59396506Y-81427426D01*
X59345171Y-81551360D01*
X59319000Y-81682927D01*
X59319000Y-81817073D01*
X59345171Y-81948640D01*
X59396506Y-82072574D01*
X59471033Y-82184112D01*
X59565888Y-82278967D01*
X59677426Y-82353494D01*
X59801360Y-82404829D01*
X59932927Y-82431000D01*
X60067073Y-82431000D01*
X60198640Y-82404829D01*
X60322574Y-82353494D01*
X60434112Y-82278967D01*
X60528967Y-82184112D01*
X60603494Y-82072574D01*
X60654829Y-81948640D01*
X60657954Y-81932927D01*
X79319000Y-81932927D01*
X79319000Y-82067073D01*
X79345171Y-82198640D01*
X79396506Y-82322574D01*
X79471033Y-82434112D01*
X79565888Y-82528967D01*
X79677426Y-82603494D01*
X79801360Y-82654829D01*
X79932927Y-82681000D01*
X80067073Y-82681000D01*
X80198640Y-82654829D01*
X80322574Y-82603494D01*
X80431069Y-82531000D01*
X86973926Y-82531000D01*
X87000000Y-82533568D01*
X87026074Y-82531000D01*
X87026084Y-82531000D01*
X87104094Y-82523317D01*
X87204188Y-82492953D01*
X87296435Y-82443646D01*
X87377290Y-82377290D01*
X87393921Y-82357025D01*
X87570660Y-82180286D01*
X87698640Y-82154829D01*
X87822574Y-82103494D01*
X87934112Y-82028967D01*
X88028967Y-81934112D01*
X88103494Y-81822574D01*
X88154829Y-81698640D01*
X88181000Y-81567073D01*
X88181000Y-81432927D01*
X88154829Y-81301360D01*
X88103494Y-81177426D01*
X88028967Y-81065888D01*
X87934112Y-80971033D01*
X87822574Y-80896506D01*
X87698640Y-80845171D01*
X87567073Y-80819000D01*
X87432927Y-80819000D01*
X87301360Y-80845171D01*
X87177426Y-80896506D01*
X87065888Y-80971033D01*
X86971033Y-81065888D01*
X86896506Y-81177426D01*
X86845171Y-81301360D01*
X86819714Y-81429340D01*
X86780053Y-81469000D01*
X80431069Y-81469000D01*
X80322574Y-81396506D01*
X80198640Y-81345171D01*
X80067073Y-81319000D01*
X79932927Y-81319000D01*
X79801360Y-81345171D01*
X79677426Y-81396506D01*
X79565888Y-81471033D01*
X79471033Y-81565888D01*
X79396506Y-81677426D01*
X79345171Y-81801360D01*
X79319000Y-81932927D01*
X60657954Y-81932927D01*
X60681000Y-81817073D01*
X60681000Y-81682927D01*
X60654829Y-81551360D01*
X60603494Y-81427426D01*
X60581000Y-81393761D01*
X60581000Y-78928539D01*
X60583811Y-78899999D01*
X60572593Y-78786104D01*
X60539371Y-78676585D01*
X60533571Y-78665734D01*
X60485421Y-78575652D01*
X60412817Y-78487183D01*
X60390646Y-78468988D01*
X58431017Y-76509360D01*
X58412817Y-76487183D01*
X58324348Y-76414579D01*
X58223415Y-76360629D01*
X58113896Y-76327407D01*
X58028540Y-76319000D01*
X58000000Y-76316189D01*
X57971460Y-76319000D01*
X53640658Y-76319000D01*
X52781000Y-75459343D01*
X52781000Y-75206239D01*
X52796576Y-75182927D01*
X58619000Y-75182927D01*
X58619000Y-75317073D01*
X58645171Y-75448640D01*
X58696506Y-75572574D01*
X58721507Y-75609990D01*
X58727407Y-75669896D01*
X58760629Y-75779415D01*
X58814580Y-75880348D01*
X58887184Y-75968817D01*
X58909355Y-75987012D01*
X60274987Y-77352645D01*
X60293183Y-77374817D01*
X60381652Y-77447421D01*
X60482585Y-77501371D01*
X60592104Y-77534593D01*
X60677460Y-77543000D01*
X60677462Y-77543000D01*
X60705999Y-77545811D01*
X60734536Y-77543000D01*
X65709464Y-77543000D01*
X65738004Y-77545811D01*
X65766544Y-77543000D01*
X65851900Y-77534593D01*
X65961419Y-77501371D01*
X66062352Y-77447421D01*
X66150821Y-77374817D01*
X66169021Y-77352640D01*
X67483932Y-76037730D01*
X67523642Y-76029831D01*
X67647576Y-75978496D01*
X67759114Y-75903969D01*
X67853969Y-75809114D01*
X67928496Y-75697576D01*
X67979831Y-75573642D01*
X68006002Y-75442075D01*
X68006002Y-75307929D01*
X67979831Y-75176362D01*
X67928496Y-75052428D01*
X67853969Y-74940890D01*
X67759114Y-74846035D01*
X67647576Y-74771508D01*
X67523642Y-74720173D01*
X67392075Y-74694002D01*
X67257929Y-74694002D01*
X67126362Y-74720173D01*
X67002428Y-74771508D01*
X66890890Y-74846035D01*
X66796035Y-74940890D01*
X66721508Y-75052428D01*
X66670173Y-75176362D01*
X66662274Y-75216072D01*
X65497347Y-76381000D01*
X60946658Y-76381000D01*
X59964696Y-75399038D01*
X59981000Y-75317073D01*
X59981000Y-75182927D01*
X59954829Y-75051360D01*
X59903494Y-74927426D01*
X59833772Y-74823078D01*
X60219000Y-74823078D01*
X60219000Y-74976922D01*
X60249013Y-75127809D01*
X60307887Y-75269942D01*
X60393358Y-75397859D01*
X60502141Y-75506642D01*
X60630058Y-75592113D01*
X60772191Y-75650987D01*
X60923078Y-75681000D01*
X61076922Y-75681000D01*
X61227809Y-75650987D01*
X61369942Y-75592113D01*
X61497859Y-75506642D01*
X61606642Y-75397859D01*
X61692113Y-75269942D01*
X61750987Y-75127809D01*
X61781000Y-74976922D01*
X61781000Y-74823078D01*
X61750987Y-74672191D01*
X61692113Y-74530058D01*
X61606642Y-74402141D01*
X61497859Y-74293358D01*
X61369942Y-74207887D01*
X61227809Y-74149013D01*
X61076922Y-74119000D01*
X60923078Y-74119000D01*
X60772191Y-74149013D01*
X60630058Y-74207887D01*
X60502141Y-74293358D01*
X60393358Y-74402141D01*
X60307887Y-74530058D01*
X60249013Y-74672191D01*
X60219000Y-74823078D01*
X59833772Y-74823078D01*
X59828967Y-74815888D01*
X59734112Y-74721033D01*
X59622574Y-74646506D01*
X59498640Y-74595171D01*
X59367073Y-74569000D01*
X59232927Y-74569000D01*
X59101360Y-74595171D01*
X58977426Y-74646506D01*
X58865888Y-74721033D01*
X58771033Y-74815888D01*
X58696506Y-74927426D01*
X58645171Y-75051360D01*
X58619000Y-75182927D01*
X52796576Y-75182927D01*
X52803494Y-75172574D01*
X52854829Y-75048640D01*
X52881000Y-74917073D01*
X52881000Y-74782927D01*
X52854829Y-74651360D01*
X52803494Y-74527426D01*
X52728967Y-74415888D01*
X52634112Y-74321033D01*
X52522574Y-74246506D01*
X52398640Y-74195171D01*
X52267073Y-74169000D01*
X52132927Y-74169000D01*
X52001360Y-74195171D01*
X51877426Y-74246506D01*
X51765888Y-74321033D01*
X51671033Y-74415888D01*
X51596506Y-74527426D01*
X51545171Y-74651360D01*
X51519000Y-74782927D01*
X44627000Y-74782927D01*
X44627000Y-73023078D01*
X49219000Y-73023078D01*
X49219000Y-73176922D01*
X49249013Y-73327809D01*
X49307887Y-73469942D01*
X49393358Y-73597859D01*
X49502141Y-73706642D01*
X49630058Y-73792113D01*
X49772191Y-73850987D01*
X49923078Y-73881000D01*
X50076922Y-73881000D01*
X50227809Y-73850987D01*
X50369942Y-73792113D01*
X50497859Y-73706642D01*
X50606642Y-73597859D01*
X50692113Y-73469942D01*
X50750987Y-73327809D01*
X50781000Y-73176922D01*
X50781000Y-73023078D01*
X50750987Y-72872191D01*
X50692113Y-72730058D01*
X50606642Y-72602141D01*
X50497859Y-72493358D01*
X50369942Y-72407887D01*
X50227809Y-72349013D01*
X50076922Y-72319000D01*
X49923078Y-72319000D01*
X49772191Y-72349013D01*
X49630058Y-72407887D01*
X49502141Y-72493358D01*
X49393358Y-72602141D01*
X49307887Y-72730058D01*
X49249013Y-72872191D01*
X49219000Y-73023078D01*
X44627000Y-73023078D01*
X44627000Y-68823078D01*
X48069000Y-68823078D01*
X48069000Y-68976922D01*
X48099013Y-69127809D01*
X48157887Y-69269942D01*
X48243358Y-69397859D01*
X48352141Y-69506642D01*
X48480058Y-69592113D01*
X48622191Y-69650987D01*
X48773078Y-69681000D01*
X48926922Y-69681000D01*
X49077809Y-69650987D01*
X49140462Y-69625035D01*
X49119000Y-69732927D01*
X49119000Y-69867073D01*
X49145171Y-69998640D01*
X49196506Y-70122574D01*
X49271033Y-70234112D01*
X49365888Y-70328967D01*
X49477426Y-70403494D01*
X49601360Y-70454829D01*
X49732927Y-70481000D01*
X49867073Y-70481000D01*
X49998640Y-70454829D01*
X50122574Y-70403494D01*
X50234112Y-70328967D01*
X50328967Y-70234112D01*
X50403494Y-70122574D01*
X50454829Y-69998640D01*
X50481000Y-69867073D01*
X50481000Y-69732927D01*
X50454829Y-69601360D01*
X50403494Y-69477426D01*
X50328967Y-69365888D01*
X50234112Y-69271033D01*
X50122574Y-69196506D01*
X49998640Y-69145171D01*
X49867073Y-69119000D01*
X49732927Y-69119000D01*
X49601360Y-69145171D01*
X49592229Y-69148953D01*
X49600987Y-69127809D01*
X49631000Y-68976922D01*
X49631000Y-68823078D01*
X49600987Y-68672191D01*
X49542113Y-68530058D01*
X49456642Y-68402141D01*
X49347859Y-68293358D01*
X49219942Y-68207887D01*
X49077809Y-68149013D01*
X48926922Y-68119000D01*
X48773078Y-68119000D01*
X48622191Y-68149013D01*
X48480058Y-68207887D01*
X48352141Y-68293358D01*
X48243358Y-68402141D01*
X48157887Y-68530058D01*
X48099013Y-68672191D01*
X48069000Y-68823078D01*
X44627000Y-68823078D01*
X44627000Y-62282927D01*
X49469000Y-62282927D01*
X49469000Y-62417073D01*
X49495171Y-62548640D01*
X49546506Y-62672574D01*
X49621033Y-62784112D01*
X49644001Y-62807080D01*
X49644000Y-66175154D01*
X49641553Y-66200000D01*
X49644000Y-66224846D01*
X49644000Y-66224853D01*
X49651322Y-66299192D01*
X49680255Y-66394574D01*
X49727241Y-66482479D01*
X49790473Y-66559527D01*
X49809785Y-66575376D01*
X51374628Y-68140220D01*
X51390473Y-68159527D01*
X51467521Y-68222759D01*
X51555425Y-68269745D01*
X51650807Y-68298678D01*
X51750000Y-68308448D01*
X51774854Y-68306000D01*
X54092921Y-68306000D01*
X54115888Y-68328967D01*
X54227426Y-68403494D01*
X54351360Y-68454829D01*
X54482927Y-68481000D01*
X54617073Y-68481000D01*
X54748640Y-68454829D01*
X54820570Y-68425035D01*
X54819000Y-68432927D01*
X54819000Y-68567073D01*
X54845171Y-68698640D01*
X54896506Y-68822574D01*
X54971033Y-68934112D01*
X55065888Y-69028967D01*
X55177426Y-69103494D01*
X55301360Y-69154829D01*
X55432927Y-69181000D01*
X55567073Y-69181000D01*
X55694001Y-69155752D01*
X55694001Y-69175154D01*
X55691554Y-69200001D01*
X55694001Y-69224847D01*
X55694001Y-69224854D01*
X55701323Y-69299193D01*
X55730256Y-69394575D01*
X55777242Y-69482480D01*
X55819000Y-69533362D01*
X55819000Y-69567073D01*
X55845171Y-69698640D01*
X55896506Y-69822574D01*
X55971033Y-69934112D01*
X56065888Y-70028967D01*
X56177426Y-70103494D01*
X56301360Y-70154829D01*
X56432927Y-70181000D01*
X56567073Y-70181000D01*
X56698640Y-70154829D01*
X56822574Y-70103494D01*
X56934112Y-70028967D01*
X57028967Y-69934112D01*
X57103494Y-69822574D01*
X57154829Y-69698640D01*
X57181000Y-69567073D01*
X57181000Y-69432927D01*
X57154829Y-69301360D01*
X57103494Y-69177426D01*
X57028967Y-69065888D01*
X56934112Y-68971033D01*
X56822574Y-68896506D01*
X56706001Y-68848220D01*
X56706001Y-68719106D01*
X56790862Y-68803967D01*
X56902400Y-68878494D01*
X57026334Y-68929829D01*
X57157901Y-68956000D01*
X57292047Y-68956000D01*
X57423614Y-68929829D01*
X57547548Y-68878494D01*
X57659086Y-68803967D01*
X57679553Y-68783500D01*
X58700031Y-68783500D01*
X58725000Y-68785959D01*
X58749969Y-68783500D01*
X58749977Y-68783500D01*
X58824683Y-68776142D01*
X58920536Y-68747065D01*
X59008874Y-68699848D01*
X59086303Y-68636303D01*
X59102226Y-68616901D01*
X59641539Y-68077588D01*
X60819000Y-68077588D01*
X60819000Y-68231432D01*
X60849013Y-68382319D01*
X60907887Y-68524452D01*
X60993358Y-68652369D01*
X61102141Y-68761152D01*
X61230058Y-68846623D01*
X61372191Y-68905497D01*
X61523078Y-68935510D01*
X61676922Y-68935510D01*
X61827809Y-68905497D01*
X61969942Y-68846623D01*
X62097859Y-68761152D01*
X62206642Y-68652369D01*
X62292113Y-68524452D01*
X62350987Y-68382319D01*
X62381000Y-68231432D01*
X62381000Y-68077588D01*
X62350987Y-67926701D01*
X62292113Y-67784568D01*
X62206642Y-67656651D01*
X62097859Y-67547868D01*
X61969942Y-67462397D01*
X61827809Y-67403523D01*
X61676922Y-67373510D01*
X61523078Y-67373510D01*
X61372191Y-67403523D01*
X61230058Y-67462397D01*
X61102141Y-67547868D01*
X60993358Y-67656651D01*
X60907887Y-67784568D01*
X60849013Y-67926701D01*
X60819000Y-68077588D01*
X59641539Y-68077588D01*
X62219127Y-65500000D01*
X66566915Y-65500000D01*
X66569000Y-65521168D01*
X66569001Y-73978821D01*
X66566915Y-74000000D01*
X66575237Y-74084491D01*
X66599882Y-74165734D01*
X66639903Y-74240609D01*
X66693763Y-74306237D01*
X66759391Y-74360097D01*
X66834266Y-74400118D01*
X66915509Y-74424763D01*
X66978832Y-74431000D01*
X67000000Y-74433085D01*
X67021168Y-74431000D01*
X72478832Y-74431000D01*
X72500000Y-74433085D01*
X72521168Y-74431000D01*
X72584491Y-74424763D01*
X72665734Y-74400118D01*
X72740609Y-74360097D01*
X72806237Y-74306237D01*
X72860097Y-74240609D01*
X72900118Y-74165734D01*
X72924763Y-74084491D01*
X72933085Y-74000000D01*
X72931000Y-73978832D01*
X72931000Y-65521168D01*
X72933085Y-65500000D01*
X72924763Y-65415509D01*
X72900118Y-65334266D01*
X72860097Y-65259391D01*
X72806237Y-65193763D01*
X72740609Y-65139903D01*
X72665734Y-65099882D01*
X72584491Y-65075237D01*
X72521168Y-65069000D01*
X72500000Y-65066915D01*
X72478832Y-65069000D01*
X67021168Y-65069000D01*
X67000000Y-65066915D01*
X66978832Y-65069000D01*
X66915509Y-65075237D01*
X66834266Y-65099882D01*
X66759391Y-65139903D01*
X66693763Y-65193763D01*
X66639903Y-65259391D01*
X66599882Y-65334266D01*
X66575237Y-65415509D01*
X66566915Y-65500000D01*
X62219127Y-65500000D01*
X63510628Y-64208500D01*
X72189373Y-64208500D01*
X72991501Y-65010629D01*
X72991500Y-66995695D01*
X72989041Y-67020664D01*
X72991500Y-67045633D01*
X72991500Y-67045640D01*
X72997940Y-67111029D01*
X72998858Y-67120347D01*
X73007441Y-67148640D01*
X73027935Y-67216199D01*
X73075152Y-67304538D01*
X73138697Y-67381967D01*
X73158099Y-67397890D01*
X77502110Y-71741901D01*
X77518033Y-71761303D01*
X77595462Y-71824848D01*
X77683800Y-71872065D01*
X77779653Y-71901142D01*
X77854359Y-71908500D01*
X77854369Y-71908500D01*
X77879335Y-71910959D01*
X77904302Y-71908500D01*
X82545421Y-71908500D01*
X82565888Y-71928967D01*
X82677426Y-72003494D01*
X82801360Y-72054829D01*
X82932927Y-72081000D01*
X83067073Y-72081000D01*
X83198640Y-72054829D01*
X83322574Y-72003494D01*
X83434112Y-71928967D01*
X83528967Y-71834112D01*
X83603494Y-71722574D01*
X83654829Y-71598640D01*
X83681000Y-71467073D01*
X83681000Y-71332927D01*
X83654829Y-71201360D01*
X83603494Y-71077426D01*
X83528967Y-70965888D01*
X83434112Y-70871033D01*
X83322574Y-70796506D01*
X83198640Y-70745171D01*
X83067073Y-70719000D01*
X82932927Y-70719000D01*
X82801360Y-70745171D01*
X82677426Y-70796506D01*
X82565888Y-70871033D01*
X82545421Y-70891500D01*
X78089963Y-70891500D01*
X74008500Y-66810037D01*
X74008500Y-64824969D01*
X74010959Y-64800000D01*
X74008500Y-64775031D01*
X74008500Y-64775023D01*
X74001142Y-64700317D01*
X73998484Y-64691553D01*
X73972065Y-64604464D01*
X73968972Y-64598678D01*
X73924848Y-64516126D01*
X73891400Y-64475370D01*
X73877225Y-64458097D01*
X73877221Y-64458093D01*
X73861303Y-64438697D01*
X73841907Y-64422779D01*
X73025127Y-63606000D01*
X75290409Y-63606000D01*
X75819000Y-64134592D01*
X75819000Y-64167073D01*
X75845171Y-64298640D01*
X75896506Y-64422574D01*
X75971033Y-64534112D01*
X76065888Y-64628967D01*
X76177426Y-64703494D01*
X76301360Y-64754829D01*
X76432927Y-64781000D01*
X76567073Y-64781000D01*
X76698640Y-64754829D01*
X76822574Y-64703494D01*
X76934112Y-64628967D01*
X77028967Y-64534112D01*
X77103494Y-64422574D01*
X77154829Y-64298640D01*
X77181000Y-64167073D01*
X77181000Y-64032927D01*
X77154829Y-63901360D01*
X77103494Y-63777426D01*
X77028967Y-63665888D01*
X76934112Y-63571033D01*
X76822574Y-63496506D01*
X76698640Y-63445171D01*
X76567073Y-63419000D01*
X76534592Y-63419000D01*
X75875376Y-62759785D01*
X75859527Y-62740473D01*
X75782479Y-62677241D01*
X75694575Y-62630255D01*
X75599193Y-62601322D01*
X75524854Y-62594000D01*
X75524846Y-62594000D01*
X75500000Y-62591553D01*
X75475154Y-62594000D01*
X75183843Y-62594000D01*
X75183843Y-62501988D01*
X86786397Y-62501988D01*
X87719000Y-63434592D01*
X87719000Y-63467073D01*
X87745171Y-63598640D01*
X87796506Y-63722574D01*
X87871033Y-63834112D01*
X87965888Y-63928967D01*
X88077426Y-64003494D01*
X88201360Y-64054829D01*
X88332927Y-64081000D01*
X88467073Y-64081000D01*
X88598640Y-64054829D01*
X88722574Y-64003494D01*
X88834112Y-63928967D01*
X88928967Y-63834112D01*
X89003494Y-63722574D01*
X89054829Y-63598640D01*
X89081000Y-63467073D01*
X89081000Y-63332927D01*
X89054829Y-63201360D01*
X89003494Y-63077426D01*
X88928967Y-62965888D01*
X88834112Y-62871033D01*
X88722574Y-62796506D01*
X88598640Y-62745171D01*
X88467073Y-62719000D01*
X88434592Y-62719000D01*
X87371364Y-61655773D01*
X87355515Y-61636461D01*
X87278467Y-61573229D01*
X87190563Y-61526243D01*
X87095181Y-61497310D01*
X87020842Y-61489988D01*
X87020834Y-61489988D01*
X86995988Y-61487541D01*
X86971142Y-61489988D01*
X59701340Y-61489988D01*
X61485328Y-59706000D01*
X81092921Y-59706000D01*
X81115888Y-59728967D01*
X81227426Y-59803494D01*
X81351360Y-59854829D01*
X81482927Y-59881000D01*
X81617073Y-59881000D01*
X81748640Y-59854829D01*
X81872574Y-59803494D01*
X81984112Y-59728967D01*
X82078967Y-59634112D01*
X82153494Y-59522574D01*
X82204829Y-59398640D01*
X82231000Y-59267073D01*
X82231000Y-59132927D01*
X82204829Y-59001360D01*
X82153494Y-58877426D01*
X82078967Y-58765888D01*
X81984112Y-58671033D01*
X81872574Y-58596506D01*
X81748640Y-58545171D01*
X81617073Y-58519000D01*
X81482927Y-58519000D01*
X81351360Y-58545171D01*
X81227426Y-58596506D01*
X81115888Y-58671033D01*
X81092921Y-58694000D01*
X81065698Y-58694000D01*
X81081000Y-58617073D01*
X81081000Y-58482927D01*
X81054829Y-58351360D01*
X81003494Y-58227426D01*
X80928967Y-58115888D01*
X80834112Y-58021033D01*
X80722574Y-57946506D01*
X80598640Y-57895171D01*
X80467073Y-57869000D01*
X80332927Y-57869000D01*
X80201360Y-57895171D01*
X80077426Y-57946506D01*
X79965888Y-58021033D01*
X79942921Y-58044000D01*
X65594280Y-58044000D01*
X65600987Y-58027809D01*
X65631000Y-57876922D01*
X65631000Y-57723078D01*
X65600987Y-57572191D01*
X65542113Y-57430058D01*
X65533070Y-57416524D01*
X65547859Y-57406642D01*
X65656642Y-57297859D01*
X65742113Y-57169942D01*
X65800987Y-57027809D01*
X65831000Y-56876922D01*
X65831000Y-56723078D01*
X65800987Y-56572191D01*
X65742113Y-56430058D01*
X65656642Y-56302141D01*
X65547859Y-56193358D01*
X65419942Y-56107887D01*
X65277809Y-56049013D01*
X65126922Y-56019000D01*
X64973078Y-56019000D01*
X64822191Y-56049013D01*
X64680058Y-56107887D01*
X64552141Y-56193358D01*
X64537500Y-56207999D01*
X64497859Y-56168358D01*
X64369942Y-56082887D01*
X64227809Y-56024013D01*
X64076922Y-55994000D01*
X63923078Y-55994000D01*
X63772191Y-56024013D01*
X63630058Y-56082887D01*
X63502141Y-56168358D01*
X63500000Y-56170499D01*
X63472859Y-56143358D01*
X63344942Y-56057887D01*
X63202809Y-55999013D01*
X63051922Y-55969000D01*
X62898078Y-55969000D01*
X62747191Y-55999013D01*
X62605058Y-56057887D01*
X62477141Y-56143358D01*
X62368358Y-56252141D01*
X62282887Y-56380058D01*
X62224013Y-56522191D01*
X62194000Y-56673078D01*
X62194000Y-56826922D01*
X62224013Y-56977809D01*
X62282887Y-57119942D01*
X62368358Y-57247859D01*
X62477141Y-57356642D01*
X62605058Y-57442113D01*
X62747191Y-57500987D01*
X62898078Y-57531000D01*
X63030720Y-57531000D01*
X63024013Y-57547191D01*
X62994000Y-57698078D01*
X62994000Y-57851922D01*
X63024013Y-58002809D01*
X63041075Y-58044000D01*
X61074845Y-58044000D01*
X61049999Y-58041553D01*
X61025153Y-58044000D01*
X61025146Y-58044000D01*
X60960694Y-58050348D01*
X60950806Y-58051322D01*
X60928607Y-58058056D01*
X60855425Y-58080255D01*
X60767521Y-58127241D01*
X60690473Y-58190473D01*
X60674628Y-58209780D01*
X53915409Y-64969000D01*
X53882927Y-64969000D01*
X53751360Y-64995171D01*
X53627426Y-65046506D01*
X53515888Y-65121033D01*
X53421033Y-65215888D01*
X53346506Y-65327426D01*
X53295171Y-65451360D01*
X53269000Y-65582927D01*
X53269000Y-65717073D01*
X53295171Y-65848640D01*
X53346506Y-65972574D01*
X53421033Y-66084112D01*
X53515888Y-66178967D01*
X53627426Y-66253494D01*
X53751360Y-66304829D01*
X53882927Y-66331000D01*
X54017073Y-66331000D01*
X54088823Y-66316728D01*
X54095171Y-66348640D01*
X54146506Y-66472574D01*
X54221033Y-66584112D01*
X54315888Y-66678967D01*
X54427426Y-66753494D01*
X54551360Y-66804829D01*
X54682927Y-66831000D01*
X54817073Y-66831000D01*
X54948640Y-66804829D01*
X55072574Y-66753494D01*
X55184112Y-66678967D01*
X55278967Y-66584112D01*
X55353494Y-66472574D01*
X55404829Y-66348640D01*
X55431000Y-66217073D01*
X55431000Y-66082927D01*
X55404829Y-65951360D01*
X55356542Y-65834785D01*
X55388372Y-65802955D01*
X55396498Y-65822574D01*
X55471025Y-65934112D01*
X55565880Y-66028967D01*
X55677418Y-66103494D01*
X55801352Y-66154829D01*
X55932919Y-66181000D01*
X56067065Y-66181000D01*
X56198632Y-66154829D01*
X56322566Y-66103494D01*
X56434104Y-66028967D01*
X56528959Y-65934112D01*
X56603486Y-65822574D01*
X56654821Y-65698640D01*
X56680992Y-65567073D01*
X56680992Y-65534591D01*
X59713596Y-62501988D01*
X60282420Y-62501988D01*
X55198450Y-67585959D01*
X55153494Y-67477426D01*
X55078967Y-67365888D01*
X54984112Y-67271033D01*
X54872574Y-67196506D01*
X54748640Y-67145171D01*
X54617073Y-67119000D01*
X54482927Y-67119000D01*
X54351360Y-67145171D01*
X54227426Y-67196506D01*
X54115888Y-67271033D01*
X54092921Y-67294000D01*
X51959592Y-67294000D01*
X50656000Y-65990409D01*
X50656000Y-62807079D01*
X50678967Y-62784112D01*
X50753494Y-62672574D01*
X50804829Y-62548640D01*
X50831000Y-62417073D01*
X50831000Y-62282927D01*
X50804829Y-62151360D01*
X50753494Y-62027426D01*
X50678967Y-61915888D01*
X50584112Y-61821033D01*
X50472574Y-61746506D01*
X50348640Y-61695171D01*
X50217073Y-61669000D01*
X50082927Y-61669000D01*
X49951360Y-61695171D01*
X49827426Y-61746506D01*
X49715888Y-61821033D01*
X49621033Y-61915888D01*
X49546506Y-62027426D01*
X49495171Y-62151360D01*
X49469000Y-62282927D01*
X44627000Y-62282927D01*
X44627000Y-53923078D01*
X58869000Y-53923078D01*
X58869000Y-54076922D01*
X58899013Y-54227809D01*
X58957887Y-54369942D01*
X59043358Y-54497859D01*
X59149978Y-54604479D01*
X59132887Y-54630058D01*
X59074013Y-54772191D01*
X59044000Y-54923078D01*
X59044000Y-55076922D01*
X59074013Y-55227809D01*
X59132887Y-55369942D01*
X59218358Y-55497859D01*
X59327141Y-55606642D01*
X59451523Y-55689751D01*
X59407887Y-55755058D01*
X59349013Y-55897191D01*
X59319000Y-56048078D01*
X59319000Y-56201922D01*
X59349013Y-56352809D01*
X59407887Y-56494942D01*
X59493358Y-56622859D01*
X59602141Y-56731642D01*
X59730058Y-56817113D01*
X59872191Y-56875987D01*
X60023078Y-56906000D01*
X60176922Y-56906000D01*
X60302150Y-56881091D01*
X60307887Y-56894942D01*
X60393358Y-57022859D01*
X60502141Y-57131642D01*
X60630058Y-57217113D01*
X60772191Y-57275987D01*
X60923078Y-57306000D01*
X61076922Y-57306000D01*
X61227809Y-57275987D01*
X61369942Y-57217113D01*
X61497859Y-57131642D01*
X61606642Y-57022859D01*
X61692113Y-56894942D01*
X61750987Y-56752809D01*
X61781000Y-56601922D01*
X61781000Y-56448078D01*
X61750987Y-56297191D01*
X61692113Y-56155058D01*
X61606642Y-56027141D01*
X61497859Y-55918358D01*
X61369942Y-55832887D01*
X61227809Y-55774013D01*
X61076922Y-55744000D01*
X60923078Y-55744000D01*
X60797850Y-55768909D01*
X60792113Y-55755058D01*
X60706642Y-55627141D01*
X60597859Y-55518358D01*
X60473477Y-55435249D01*
X60517113Y-55369942D01*
X60575987Y-55227809D01*
X60584914Y-55182927D01*
X71969000Y-55182927D01*
X71969000Y-55317073D01*
X71995171Y-55448640D01*
X72046506Y-55572574D01*
X72121033Y-55684112D01*
X72215888Y-55778967D01*
X72327426Y-55853494D01*
X72451360Y-55904829D01*
X72582927Y-55931000D01*
X72717073Y-55931000D01*
X72848640Y-55904829D01*
X72972574Y-55853494D01*
X73084112Y-55778967D01*
X73178967Y-55684112D01*
X73253494Y-55572574D01*
X73304829Y-55448640D01*
X73331000Y-55317073D01*
X73331000Y-55182927D01*
X73304829Y-55051360D01*
X73253494Y-54927426D01*
X73178967Y-54815888D01*
X73084112Y-54721033D01*
X72972574Y-54646506D01*
X72848640Y-54595171D01*
X72717073Y-54569000D01*
X72582927Y-54569000D01*
X72451360Y-54595171D01*
X72327426Y-54646506D01*
X72215888Y-54721033D01*
X72121033Y-54815888D01*
X72046506Y-54927426D01*
X71995171Y-55051360D01*
X71969000Y-55182927D01*
X60584914Y-55182927D01*
X60606000Y-55076922D01*
X60606000Y-54923078D01*
X60575987Y-54772191D01*
X60517113Y-54630058D01*
X60431642Y-54502141D01*
X60325022Y-54395521D01*
X60342113Y-54369942D01*
X60400987Y-54227809D01*
X60431000Y-54076922D01*
X60431000Y-53923078D01*
X60400987Y-53772191D01*
X60342113Y-53630058D01*
X60256642Y-53502141D01*
X60147859Y-53393358D01*
X60019942Y-53307887D01*
X59877809Y-53249013D01*
X59726922Y-53219000D01*
X59573078Y-53219000D01*
X59422191Y-53249013D01*
X59280058Y-53307887D01*
X59152141Y-53393358D01*
X59043358Y-53502141D01*
X58957887Y-53630058D01*
X58899013Y-53772191D01*
X58869000Y-53923078D01*
X44627000Y-53923078D01*
X44627000Y-52432927D01*
X50719000Y-52432927D01*
X50719000Y-52567073D01*
X50745171Y-52698640D01*
X50796506Y-52822574D01*
X50871033Y-52934112D01*
X50965888Y-53028967D01*
X51077426Y-53103494D01*
X51201360Y-53154829D01*
X51332927Y-53181000D01*
X51467073Y-53181000D01*
X51598640Y-53154829D01*
X51722574Y-53103494D01*
X51834112Y-53028967D01*
X51928967Y-52934112D01*
X52003494Y-52822574D01*
X52054829Y-52698640D01*
X52081000Y-52567073D01*
X52081000Y-52432927D01*
X52054829Y-52301360D01*
X52003494Y-52177426D01*
X51928967Y-52065888D01*
X51834112Y-51971033D01*
X51722574Y-51896506D01*
X51598640Y-51845171D01*
X51467073Y-51819000D01*
X51332927Y-51819000D01*
X51201360Y-51845171D01*
X51077426Y-51896506D01*
X50965888Y-51971033D01*
X50871033Y-52065888D01*
X50796506Y-52177426D01*
X50745171Y-52301360D01*
X50719000Y-52432927D01*
X44627000Y-52432927D01*
X44627000Y-49732927D01*
X58169000Y-49732927D01*
X58169000Y-49867073D01*
X58195171Y-49998640D01*
X58246506Y-50122574D01*
X58321033Y-50234112D01*
X58415888Y-50328967D01*
X58527426Y-50403494D01*
X58651360Y-50454829D01*
X58782927Y-50481000D01*
X58917073Y-50481000D01*
X59048640Y-50454829D01*
X59172574Y-50403494D01*
X59284112Y-50328967D01*
X59378967Y-50234112D01*
X59453494Y-50122574D01*
X59504829Y-49998640D01*
X59531000Y-49867073D01*
X59531000Y-49732927D01*
X59504829Y-49601360D01*
X59453494Y-49477426D01*
X59378967Y-49365888D01*
X59356000Y-49342921D01*
X59356000Y-47009591D01*
X61034592Y-45331000D01*
X61067073Y-45331000D01*
X61198640Y-45304829D01*
X61322574Y-45253494D01*
X61434112Y-45178967D01*
X61528967Y-45084112D01*
X61603494Y-44972574D01*
X61654829Y-44848640D01*
X61681000Y-44717073D01*
X61681000Y-44582927D01*
X61654829Y-44451360D01*
X61603494Y-44327426D01*
X61528967Y-44215888D01*
X61434112Y-44121033D01*
X61322574Y-44046506D01*
X61198640Y-43995171D01*
X61067073Y-43969000D01*
X60932927Y-43969000D01*
X60801360Y-43995171D01*
X60677426Y-44046506D01*
X60565888Y-44121033D01*
X60471033Y-44215888D01*
X60396506Y-44327426D01*
X60345171Y-44451360D01*
X60319000Y-44582927D01*
X60319000Y-44615408D01*
X58509785Y-46424624D01*
X58490473Y-46440473D01*
X58427241Y-46517521D01*
X58380255Y-46605426D01*
X58351322Y-46700808D01*
X58344000Y-46775147D01*
X58344000Y-46775154D01*
X58341553Y-46800000D01*
X58344000Y-46824846D01*
X58344001Y-49342920D01*
X58321033Y-49365888D01*
X58246506Y-49477426D01*
X58195171Y-49601360D01*
X58169000Y-49732927D01*
X44627000Y-49732927D01*
X44627000Y-41877000D01*
X75373000Y-41877000D01*
X75373000Y-52750000D01*
G04 #@! TA.AperFunction,Conductor*
D21*
G36*
X75373000Y-52750000D02*
G01*
X75375440Y-52774776D01*
X75382667Y-52798601D01*
X75394403Y-52820557D01*
X75410197Y-52839803D01*
X75429443Y-52855597D01*
X75451399Y-52867333D01*
X75475224Y-52874560D01*
X75500000Y-52877000D01*
X94873000Y-52877000D01*
X94873000Y-92636236D01*
X90289294Y-92636236D01*
X90253157Y-92639779D01*
X90216965Y-92643073D01*
X90215667Y-92643455D01*
X90214320Y-92643587D01*
X90179524Y-92654092D01*
X90144696Y-92664343D01*
X90143498Y-92664970D01*
X90142201Y-92665361D01*
X90110085Y-92682437D01*
X90077935Y-92699245D01*
X90076882Y-92700091D01*
X90075685Y-92700728D01*
X90047491Y-92723723D01*
X90019224Y-92746450D01*
X90018355Y-92747486D01*
X90017305Y-92748342D01*
X89994133Y-92776353D01*
X89970800Y-92804159D01*
X89970148Y-92805344D01*
X89969285Y-92806388D01*
X89952007Y-92838344D01*
X89934508Y-92870174D01*
X89934099Y-92871465D01*
X89933455Y-92872655D01*
X89922717Y-92907343D01*
X89911729Y-92941982D01*
X89911578Y-92943328D01*
X89911178Y-92944620D01*
X89907375Y-92980801D01*
X89903332Y-93016847D01*
X89903314Y-93019439D01*
X89903303Y-93019541D01*
X89903312Y-93019643D01*
X89903294Y-93022236D01*
X89903294Y-101623000D01*
X53696234Y-101623000D01*
X53700118Y-101615734D01*
X53724763Y-101534491D01*
X53733085Y-101450000D01*
X53731000Y-101428832D01*
X53731000Y-100278374D01*
X53857691Y-100316805D01*
X54050000Y-100335746D01*
X54242310Y-100316805D01*
X54427229Y-100260711D01*
X54597651Y-100169618D01*
X54747028Y-100047028D01*
X54869618Y-99897651D01*
X54960711Y-99727229D01*
X55016805Y-99542310D01*
X55031000Y-99398187D01*
X55031000Y-98670616D01*
X64444000Y-98670616D01*
X64444000Y-98829384D01*
X64474974Y-98985102D01*
X64535732Y-99131784D01*
X64623939Y-99263795D01*
X64736205Y-99376061D01*
X64868216Y-99464268D01*
X65014898Y-99525026D01*
X65170616Y-99556000D01*
X65329384Y-99556000D01*
X65485102Y-99525026D01*
X65631784Y-99464268D01*
X65763795Y-99376061D01*
X65876061Y-99263795D01*
X65964268Y-99131784D01*
X66025026Y-98985102D01*
X66056000Y-98829384D01*
X66056000Y-98670616D01*
X67444000Y-98670616D01*
X67444000Y-98829384D01*
X67474974Y-98985102D01*
X67535732Y-99131784D01*
X67623939Y-99263795D01*
X67736205Y-99376061D01*
X67868216Y-99464268D01*
X68014898Y-99525026D01*
X68170616Y-99556000D01*
X68329384Y-99556000D01*
X68485102Y-99525026D01*
X68631784Y-99464268D01*
X68763795Y-99376061D01*
X68876061Y-99263795D01*
X68964268Y-99131784D01*
X69025026Y-98985102D01*
X69056000Y-98829384D01*
X69056000Y-98670616D01*
X85194000Y-98670616D01*
X85194000Y-98829384D01*
X85224974Y-98985102D01*
X85285732Y-99131784D01*
X85373939Y-99263795D01*
X85486205Y-99376061D01*
X85618216Y-99464268D01*
X85764898Y-99525026D01*
X85920616Y-99556000D01*
X86079384Y-99556000D01*
X86235102Y-99525026D01*
X86381784Y-99464268D01*
X86513795Y-99376061D01*
X86626061Y-99263795D01*
X86714268Y-99131784D01*
X86775026Y-98985102D01*
X86806000Y-98829384D01*
X86806000Y-98670616D01*
X88194000Y-98670616D01*
X88194000Y-98829384D01*
X88224974Y-98985102D01*
X88285732Y-99131784D01*
X88373939Y-99263795D01*
X88486205Y-99376061D01*
X88618216Y-99464268D01*
X88764898Y-99525026D01*
X88920616Y-99556000D01*
X89079384Y-99556000D01*
X89235102Y-99525026D01*
X89381784Y-99464268D01*
X89513795Y-99376061D01*
X89626061Y-99263795D01*
X89714268Y-99131784D01*
X89775026Y-98985102D01*
X89806000Y-98829384D01*
X89806000Y-98670616D01*
X89775026Y-98514898D01*
X89714268Y-98368216D01*
X89626061Y-98236205D01*
X89513795Y-98123939D01*
X89381784Y-98035732D01*
X89235102Y-97974974D01*
X89079384Y-97944000D01*
X88920616Y-97944000D01*
X88764898Y-97974974D01*
X88618216Y-98035732D01*
X88486205Y-98123939D01*
X88373939Y-98236205D01*
X88285732Y-98368216D01*
X88224974Y-98514898D01*
X88194000Y-98670616D01*
X86806000Y-98670616D01*
X86775026Y-98514898D01*
X86714268Y-98368216D01*
X86626061Y-98236205D01*
X86513795Y-98123939D01*
X86381784Y-98035732D01*
X86235102Y-97974974D01*
X86079384Y-97944000D01*
X85920616Y-97944000D01*
X85764898Y-97974974D01*
X85618216Y-98035732D01*
X85486205Y-98123939D01*
X85373939Y-98236205D01*
X85285732Y-98368216D01*
X85224974Y-98514898D01*
X85194000Y-98670616D01*
X69056000Y-98670616D01*
X69025026Y-98514898D01*
X68964268Y-98368216D01*
X68876061Y-98236205D01*
X68763795Y-98123939D01*
X68631784Y-98035732D01*
X68485102Y-97974974D01*
X68329384Y-97944000D01*
X68170616Y-97944000D01*
X68014898Y-97974974D01*
X67868216Y-98035732D01*
X67736205Y-98123939D01*
X67623939Y-98236205D01*
X67535732Y-98368216D01*
X67474974Y-98514898D01*
X67444000Y-98670616D01*
X66056000Y-98670616D01*
X66025026Y-98514898D01*
X65964268Y-98368216D01*
X65876061Y-98236205D01*
X65763795Y-98123939D01*
X65631784Y-98035732D01*
X65485102Y-97974974D01*
X65329384Y-97944000D01*
X65170616Y-97944000D01*
X65014898Y-97974974D01*
X64868216Y-98035732D01*
X64736205Y-98123939D01*
X64623939Y-98236205D01*
X64535732Y-98368216D01*
X64474974Y-98514898D01*
X64444000Y-98670616D01*
X55031000Y-98670616D01*
X55031000Y-98101813D01*
X55016805Y-97957690D01*
X54960711Y-97772771D01*
X54869618Y-97602349D01*
X54747028Y-97452972D01*
X54597651Y-97330382D01*
X54427228Y-97239289D01*
X54242309Y-97183195D01*
X54050000Y-97164254D01*
X53857690Y-97183195D01*
X53731000Y-97221626D01*
X53731000Y-97078374D01*
X53857691Y-97116805D01*
X54050000Y-97135746D01*
X54242310Y-97116805D01*
X54427229Y-97060711D01*
X54597651Y-96969618D01*
X54625283Y-96946941D01*
X55068987Y-97390645D01*
X55087183Y-97412817D01*
X55157567Y-97470579D01*
X55175652Y-97485421D01*
X55276585Y-97539371D01*
X55386104Y-97572593D01*
X55500000Y-97583811D01*
X55528540Y-97581000D01*
X72893761Y-97581000D01*
X72927426Y-97603494D01*
X73051360Y-97654829D01*
X73182927Y-97681000D01*
X73317073Y-97681000D01*
X73448640Y-97654829D01*
X73572574Y-97603494D01*
X73684112Y-97528967D01*
X73778967Y-97434112D01*
X73853494Y-97322574D01*
X73904829Y-97198640D01*
X73931000Y-97067073D01*
X73931000Y-96932927D01*
X73904829Y-96801360D01*
X73853494Y-96677426D01*
X73778967Y-96565888D01*
X73684112Y-96471033D01*
X73572574Y-96396506D01*
X73448640Y-96345171D01*
X73317073Y-96319000D01*
X73182927Y-96319000D01*
X73051360Y-96345171D01*
X72927426Y-96396506D01*
X72893761Y-96419000D01*
X55740658Y-96419000D01*
X55031000Y-95709343D01*
X55031000Y-94901813D01*
X55016805Y-94757690D01*
X54960711Y-94572771D01*
X54869618Y-94402349D01*
X54747028Y-94252972D01*
X54597651Y-94130382D01*
X54427228Y-94039289D01*
X54242309Y-93983195D01*
X54050000Y-93964254D01*
X53857690Y-93983195D01*
X53731000Y-94021626D01*
X53731000Y-91378374D01*
X53857691Y-91416805D01*
X54050000Y-91435746D01*
X54242310Y-91416805D01*
X54427229Y-91360711D01*
X54597651Y-91269618D01*
X54747028Y-91147028D01*
X54869618Y-90997651D01*
X54960711Y-90827229D01*
X55016805Y-90642310D01*
X55031000Y-90498187D01*
X55031000Y-89632935D01*
X74818992Y-89632935D01*
X74818992Y-89767081D01*
X74845163Y-89898648D01*
X74896498Y-90022582D01*
X74971025Y-90134120D01*
X75065880Y-90228975D01*
X75177418Y-90303502D01*
X75301352Y-90354837D01*
X75432919Y-90381008D01*
X75567065Y-90381008D01*
X75698632Y-90354837D01*
X75822566Y-90303502D01*
X75934104Y-90228975D01*
X76028959Y-90134120D01*
X76103486Y-90022582D01*
X76154821Y-89898648D01*
X76180992Y-89767081D01*
X76180992Y-89632935D01*
X76154821Y-89501368D01*
X76103486Y-89377434D01*
X76028959Y-89265896D01*
X75934104Y-89171041D01*
X75822566Y-89096514D01*
X75698632Y-89045179D01*
X75567065Y-89019008D01*
X75432919Y-89019008D01*
X75301352Y-89045179D01*
X75177418Y-89096514D01*
X75065880Y-89171041D01*
X74971025Y-89265896D01*
X74896498Y-89377434D01*
X74845163Y-89501368D01*
X74818992Y-89632935D01*
X55031000Y-89632935D01*
X55031000Y-89201813D01*
X55016805Y-89057690D01*
X54960711Y-88872771D01*
X54869618Y-88702349D01*
X54747028Y-88552972D01*
X54597651Y-88430382D01*
X54427228Y-88339289D01*
X54242309Y-88283195D01*
X54050000Y-88264254D01*
X53857690Y-88283195D01*
X53672771Y-88339289D01*
X53642164Y-88355649D01*
X53640119Y-88350687D01*
X53637261Y-88345402D01*
X53637257Y-88345393D01*
X53637252Y-88345386D01*
X53590245Y-88259881D01*
X53568189Y-88227669D01*
X53546557Y-88195110D01*
X53542721Y-88190473D01*
X53479996Y-88115721D01*
X53452103Y-88088406D01*
X53424563Y-88060673D01*
X53419899Y-88056870D01*
X53343849Y-87995724D01*
X53311146Y-87974323D01*
X53278776Y-87952490D01*
X53273473Y-87949670D01*
X53273464Y-87949664D01*
X53273455Y-87949660D01*
X53186983Y-87904454D01*
X53150748Y-87889814D01*
X53114755Y-87874684D01*
X53108994Y-87872944D01*
X53108992Y-87872943D01*
X53108988Y-87872942D01*
X53015382Y-87845392D01*
X52977027Y-87838075D01*
X52938742Y-87830217D01*
X52932759Y-87829631D01*
X52932756Y-87829630D01*
X52932753Y-87829630D01*
X52835571Y-87820786D01*
X52796509Y-87821059D01*
X52757448Y-87820786D01*
X52751458Y-87821373D01*
X52751454Y-87821373D01*
X52654410Y-87831573D01*
X52616162Y-87839424D01*
X52577772Y-87846747D01*
X52572021Y-87848484D01*
X52572011Y-87848486D01*
X52572002Y-87848490D01*
X52478792Y-87877343D01*
X52442800Y-87892472D01*
X52406559Y-87907115D01*
X52401256Y-87909935D01*
X52401248Y-87909939D01*
X52401241Y-87909944D01*
X52315408Y-87956354D01*
X52283046Y-87978182D01*
X52250337Y-87999587D01*
X52245673Y-88003390D01*
X52170485Y-88065592D01*
X52142964Y-88093305D01*
X52115052Y-88120639D01*
X52111216Y-88125276D01*
X52111213Y-88125279D01*
X52111212Y-88125281D01*
X52049540Y-88200897D01*
X52027918Y-88233440D01*
X52005850Y-88265670D01*
X52002987Y-88270964D01*
X51977446Y-88319000D01*
X48522746Y-88319000D01*
X48490245Y-88259881D01*
X48468189Y-88227669D01*
X48446557Y-88195110D01*
X48442721Y-88190473D01*
X48379996Y-88115721D01*
X48352103Y-88088406D01*
X48324563Y-88060673D01*
X48319899Y-88056870D01*
X48243849Y-87995724D01*
X48211146Y-87974323D01*
X48178776Y-87952490D01*
X48173473Y-87949670D01*
X48173464Y-87949664D01*
X48173455Y-87949660D01*
X48086983Y-87904454D01*
X48050748Y-87889814D01*
X48014755Y-87874684D01*
X48008994Y-87872944D01*
X48008992Y-87872943D01*
X48008988Y-87872942D01*
X47915382Y-87845392D01*
X47877027Y-87838075D01*
X47838742Y-87830217D01*
X47832759Y-87829631D01*
X47832756Y-87829630D01*
X47832753Y-87829630D01*
X47735571Y-87820786D01*
X47696509Y-87821059D01*
X47657448Y-87820786D01*
X47651458Y-87821373D01*
X47651454Y-87821373D01*
X47554410Y-87831573D01*
X47516162Y-87839424D01*
X47477772Y-87846747D01*
X47472021Y-87848484D01*
X47472011Y-87848486D01*
X47472002Y-87848490D01*
X47378792Y-87877343D01*
X47342800Y-87892472D01*
X47306559Y-87907115D01*
X47301256Y-87909935D01*
X47301248Y-87909939D01*
X47301241Y-87909944D01*
X47215408Y-87956354D01*
X47183046Y-87978182D01*
X47150337Y-87999587D01*
X47145673Y-88003390D01*
X47070485Y-88065592D01*
X47042964Y-88093305D01*
X47015052Y-88120639D01*
X47011216Y-88125276D01*
X47011213Y-88125279D01*
X47011212Y-88125281D01*
X46949540Y-88200897D01*
X46927918Y-88233440D01*
X46905850Y-88265670D01*
X46902987Y-88270964D01*
X46857932Y-88355701D01*
X46827228Y-88339289D01*
X46642309Y-88283195D01*
X46450000Y-88264254D01*
X46257690Y-88283195D01*
X46072771Y-88339289D01*
X45902349Y-88430382D01*
X45752972Y-88552972D01*
X45630382Y-88702349D01*
X45539289Y-88872772D01*
X45483195Y-89057691D01*
X45469000Y-89201814D01*
X45469001Y-90498187D01*
X45483196Y-90642310D01*
X45539290Y-90827229D01*
X45630383Y-90997651D01*
X45752973Y-91147028D01*
X45902350Y-91269618D01*
X46072772Y-91360711D01*
X46257691Y-91416805D01*
X46450000Y-91435746D01*
X46642310Y-91416805D01*
X46769001Y-91378374D01*
X46769001Y-94021626D01*
X46642309Y-93983195D01*
X46450000Y-93964254D01*
X46257690Y-93983195D01*
X46072771Y-94039289D01*
X45902349Y-94130382D01*
X45752972Y-94252972D01*
X45630382Y-94402349D01*
X45539289Y-94572772D01*
X45483195Y-94757691D01*
X45469000Y-94901814D01*
X45469001Y-96198187D01*
X45483196Y-96342310D01*
X45539290Y-96527229D01*
X45630383Y-96697651D01*
X45752973Y-96847028D01*
X45902350Y-96969618D01*
X46072772Y-97060711D01*
X46257691Y-97116805D01*
X46426998Y-97133480D01*
X46426998Y-97230036D01*
X46266665Y-97139497D01*
X46078233Y-97192374D01*
X45898553Y-97283303D01*
X45740065Y-97407538D01*
X45608859Y-97560306D01*
X45509978Y-97735735D01*
X45447221Y-97927084D01*
X45423000Y-98127000D01*
X45423000Y-98727000D01*
X46427000Y-98727000D01*
X46427000Y-98707000D01*
X46473000Y-98707000D01*
X46473000Y-98727000D01*
X46493000Y-98727000D01*
X46493000Y-98773000D01*
X46473000Y-98773000D01*
X46473000Y-100269963D01*
X46633335Y-100360503D01*
X46769000Y-100322433D01*
X46769000Y-101428832D01*
X46766915Y-101450000D01*
X46775237Y-101534491D01*
X46799882Y-101615734D01*
X46803766Y-101623000D01*
X44627000Y-101623000D01*
X44627000Y-98773000D01*
X45423000Y-98773000D01*
X45423000Y-99373000D01*
X45447221Y-99572916D01*
X45509978Y-99764265D01*
X45608859Y-99939694D01*
X45740065Y-100092462D01*
X45898553Y-100216697D01*
X46078233Y-100307626D01*
X46266665Y-100360503D01*
X46427000Y-100269963D01*
X46427000Y-98773000D01*
X45423000Y-98773000D01*
X44627000Y-98773000D01*
X44627000Y-87682927D01*
X72119000Y-87682927D01*
X72119000Y-87817073D01*
X72145171Y-87948640D01*
X72196506Y-88072574D01*
X72271033Y-88184112D01*
X72365888Y-88278967D01*
X72477426Y-88353494D01*
X72601360Y-88404829D01*
X72732927Y-88431000D01*
X72867073Y-88431000D01*
X72998640Y-88404829D01*
X73122574Y-88353494D01*
X73231069Y-88281000D01*
X77830054Y-88281000D01*
X80419714Y-90870661D01*
X80445171Y-90998640D01*
X80496506Y-91122574D01*
X80571033Y-91234112D01*
X80665888Y-91328967D01*
X80777426Y-91403494D01*
X80901360Y-91454829D01*
X81032927Y-91481000D01*
X81167073Y-91481000D01*
X81298640Y-91454829D01*
X81422574Y-91403494D01*
X81534112Y-91328967D01*
X81628967Y-91234112D01*
X81703494Y-91122574D01*
X81754829Y-90998640D01*
X81781000Y-90867073D01*
X81781000Y-90732927D01*
X81754829Y-90601360D01*
X81703494Y-90477426D01*
X81628967Y-90365888D01*
X81534112Y-90271033D01*
X81422574Y-90196506D01*
X81298640Y-90145171D01*
X81170661Y-90119714D01*
X80081947Y-89031000D01*
X82068931Y-89031000D01*
X82177426Y-89103494D01*
X82301360Y-89154829D01*
X82432927Y-89181000D01*
X82567073Y-89181000D01*
X82698640Y-89154829D01*
X82822574Y-89103494D01*
X82934112Y-89028967D01*
X83028967Y-88934112D01*
X83103494Y-88822574D01*
X83154829Y-88698640D01*
X83181000Y-88567073D01*
X83181000Y-88432927D01*
X83154829Y-88301360D01*
X83103494Y-88177426D01*
X83028967Y-88065888D01*
X82934112Y-87971033D01*
X82822574Y-87896506D01*
X82698640Y-87845171D01*
X82567073Y-87819000D01*
X82432927Y-87819000D01*
X82301360Y-87845171D01*
X82177426Y-87896506D01*
X82068931Y-87969000D01*
X79719947Y-87969000D01*
X78380287Y-86629340D01*
X78354829Y-86501360D01*
X78303494Y-86377426D01*
X78228967Y-86265888D01*
X78134112Y-86171033D01*
X78022574Y-86096506D01*
X77898640Y-86045171D01*
X77767073Y-86019000D01*
X77632927Y-86019000D01*
X77501360Y-86045171D01*
X77377426Y-86096506D01*
X77265888Y-86171033D01*
X77171033Y-86265888D01*
X77096506Y-86377426D01*
X77045171Y-86501360D01*
X77019000Y-86632927D01*
X77019000Y-86767073D01*
X77045171Y-86898640D01*
X77096506Y-87022574D01*
X77171033Y-87134112D01*
X77255921Y-87219000D01*
X73231069Y-87219000D01*
X73122574Y-87146506D01*
X72998640Y-87095171D01*
X72867073Y-87069000D01*
X72732927Y-87069000D01*
X72601360Y-87095171D01*
X72477426Y-87146506D01*
X72365888Y-87221033D01*
X72271033Y-87315888D01*
X72196506Y-87427426D01*
X72145171Y-87551360D01*
X72119000Y-87682927D01*
X44627000Y-87682927D01*
X44627000Y-78500000D01*
X49066915Y-78500000D01*
X49069000Y-78521169D01*
X49069001Y-83978821D01*
X49066915Y-84000000D01*
X49075237Y-84084491D01*
X49099882Y-84165734D01*
X49139903Y-84240609D01*
X49193763Y-84306237D01*
X49259391Y-84360097D01*
X49334266Y-84400118D01*
X49415509Y-84424763D01*
X49478832Y-84431000D01*
X49500000Y-84433085D01*
X49521168Y-84431000D01*
X57978832Y-84431000D01*
X58000000Y-84433085D01*
X58021168Y-84431000D01*
X58084491Y-84424763D01*
X58165734Y-84400118D01*
X58240609Y-84360097D01*
X58306237Y-84306237D01*
X58360097Y-84240609D01*
X58400118Y-84165734D01*
X58424763Y-84084491D01*
X58433085Y-84000000D01*
X58431000Y-83978832D01*
X58431000Y-83832927D01*
X77619000Y-83832927D01*
X77619000Y-83967073D01*
X77645171Y-84098640D01*
X77696506Y-84222574D01*
X77771033Y-84334112D01*
X77865888Y-84428967D01*
X77977426Y-84503494D01*
X78101360Y-84554829D01*
X78232927Y-84581000D01*
X78367073Y-84581000D01*
X78498640Y-84554829D01*
X78622574Y-84503494D01*
X78734112Y-84428967D01*
X78828967Y-84334112D01*
X78903494Y-84222574D01*
X78935449Y-84145427D01*
X84056500Y-84145427D01*
X84056500Y-84279573D01*
X84082671Y-84411140D01*
X84134006Y-84535074D01*
X84208533Y-84646612D01*
X84303388Y-84741467D01*
X84414926Y-84815994D01*
X84538860Y-84867329D01*
X84670427Y-84893500D01*
X84804573Y-84893500D01*
X84936140Y-84867329D01*
X85060074Y-84815994D01*
X85171612Y-84741467D01*
X85266467Y-84646612D01*
X85275610Y-84632927D01*
X87119000Y-84632927D01*
X87119000Y-84767073D01*
X87145171Y-84898640D01*
X87196506Y-85022574D01*
X87271033Y-85134112D01*
X87365888Y-85228967D01*
X87477426Y-85303494D01*
X87601360Y-85354829D01*
X87732927Y-85381000D01*
X87867073Y-85381000D01*
X87998640Y-85354829D01*
X88122574Y-85303494D01*
X88234112Y-85228967D01*
X88282079Y-85181000D01*
X92517921Y-85181000D01*
X92565888Y-85228967D01*
X92677426Y-85303494D01*
X92801360Y-85354829D01*
X92932927Y-85381000D01*
X93067073Y-85381000D01*
X93198640Y-85354829D01*
X93322574Y-85303494D01*
X93434112Y-85228967D01*
X93528967Y-85134112D01*
X93603494Y-85022574D01*
X93654829Y-84898640D01*
X93681000Y-84767073D01*
X93681000Y-84632927D01*
X93654829Y-84501360D01*
X93603494Y-84377426D01*
X93528967Y-84265888D01*
X93434112Y-84171033D01*
X93322574Y-84096506D01*
X93198640Y-84045171D01*
X93067073Y-84019000D01*
X92932927Y-84019000D01*
X92801360Y-84045171D01*
X92677426Y-84096506D01*
X92565888Y-84171033D01*
X92517921Y-84219000D01*
X88282079Y-84219000D01*
X88234112Y-84171033D01*
X88122574Y-84096506D01*
X87998640Y-84045171D01*
X87867073Y-84019000D01*
X87732927Y-84019000D01*
X87601360Y-84045171D01*
X87477426Y-84096506D01*
X87365888Y-84171033D01*
X87271033Y-84265888D01*
X87196506Y-84377426D01*
X87145171Y-84501360D01*
X87119000Y-84632927D01*
X85275610Y-84632927D01*
X85340994Y-84535074D01*
X85392329Y-84411140D01*
X85418500Y-84279573D01*
X85418500Y-84145427D01*
X85392329Y-84013860D01*
X85340994Y-83889926D01*
X85266467Y-83778388D01*
X85171612Y-83683533D01*
X85060074Y-83609006D01*
X84936140Y-83557671D01*
X84804573Y-83531500D01*
X84670427Y-83531500D01*
X84538860Y-83557671D01*
X84414926Y-83609006D01*
X84303388Y-83683533D01*
X84208533Y-83778388D01*
X84134006Y-83889926D01*
X84082671Y-84013860D01*
X84056500Y-84145427D01*
X78935449Y-84145427D01*
X78954829Y-84098640D01*
X78981000Y-83967073D01*
X78981000Y-83832927D01*
X78954829Y-83701360D01*
X78903494Y-83577426D01*
X78828967Y-83465888D01*
X78734112Y-83371033D01*
X78622574Y-83296506D01*
X78498640Y-83245171D01*
X78367073Y-83219000D01*
X78232927Y-83219000D01*
X78101360Y-83245171D01*
X77977426Y-83296506D01*
X77865888Y-83371033D01*
X77771033Y-83465888D01*
X77696506Y-83577426D01*
X77645171Y-83701360D01*
X77619000Y-83832927D01*
X58431000Y-83832927D01*
X58431000Y-78521168D01*
X58433085Y-78500000D01*
X58424763Y-78415509D01*
X58400118Y-78334266D01*
X58360097Y-78259391D01*
X58306237Y-78193763D01*
X58240609Y-78139903D01*
X58165734Y-78099882D01*
X58084491Y-78075237D01*
X58021168Y-78069000D01*
X58000000Y-78066915D01*
X57978832Y-78069000D01*
X49521168Y-78069000D01*
X49500000Y-78066915D01*
X49478832Y-78069000D01*
X49415509Y-78075237D01*
X49334266Y-78099882D01*
X49259391Y-78139903D01*
X49193763Y-78193763D01*
X49139903Y-78259391D01*
X49099882Y-78334266D01*
X49075237Y-78415509D01*
X49066915Y-78500000D01*
X44627000Y-78500000D01*
X44627000Y-74782927D01*
X51519000Y-74782927D01*
X51519000Y-74917073D01*
X51545171Y-75048640D01*
X51596506Y-75172574D01*
X51619000Y-75206239D01*
X51619000Y-75671460D01*
X51616189Y-75700000D01*
X51627407Y-75813895D01*
X51660629Y-75923414D01*
X51714579Y-76024347D01*
X51714580Y-76024348D01*
X51787184Y-76112817D01*
X51809355Y-76131012D01*
X52968987Y-77290645D01*
X52987183Y-77312817D01*
X53075652Y-77385421D01*
X53176585Y-77439371D01*
X53286104Y-77472593D01*
X53371460Y-77481000D01*
X53371462Y-77481000D01*
X53399999Y-77483811D01*
X53428536Y-77481000D01*
X57759343Y-77481000D01*
X59419000Y-79140658D01*
X59419001Y-81393760D01*
X59396506Y-81427426D01*
X59345171Y-81551360D01*
X59319000Y-81682927D01*
X59319000Y-81817073D01*
X59345171Y-81948640D01*
X59396506Y-82072574D01*
X59471033Y-82184112D01*
X59565888Y-82278967D01*
X59677426Y-82353494D01*
X59801360Y-82404829D01*
X59932927Y-82431000D01*
X60067073Y-82431000D01*
X60198640Y-82404829D01*
X60322574Y-82353494D01*
X60434112Y-82278967D01*
X60528967Y-82184112D01*
X60603494Y-82072574D01*
X60654829Y-81948640D01*
X60657954Y-81932927D01*
X79319000Y-81932927D01*
X79319000Y-82067073D01*
X79345171Y-82198640D01*
X79396506Y-82322574D01*
X79471033Y-82434112D01*
X79565888Y-82528967D01*
X79677426Y-82603494D01*
X79801360Y-82654829D01*
X79932927Y-82681000D01*
X80067073Y-82681000D01*
X80198640Y-82654829D01*
X80322574Y-82603494D01*
X80431069Y-82531000D01*
X86973926Y-82531000D01*
X87000000Y-82533568D01*
X87026074Y-82531000D01*
X87026084Y-82531000D01*
X87104094Y-82523317D01*
X87204188Y-82492953D01*
X87296435Y-82443646D01*
X87377290Y-82377290D01*
X87393921Y-82357025D01*
X87570660Y-82180286D01*
X87698640Y-82154829D01*
X87822574Y-82103494D01*
X87934112Y-82028967D01*
X88028967Y-81934112D01*
X88103494Y-81822574D01*
X88154829Y-81698640D01*
X88181000Y-81567073D01*
X88181000Y-81432927D01*
X88154829Y-81301360D01*
X88103494Y-81177426D01*
X88028967Y-81065888D01*
X87934112Y-80971033D01*
X87822574Y-80896506D01*
X87698640Y-80845171D01*
X87567073Y-80819000D01*
X87432927Y-80819000D01*
X87301360Y-80845171D01*
X87177426Y-80896506D01*
X87065888Y-80971033D01*
X86971033Y-81065888D01*
X86896506Y-81177426D01*
X86845171Y-81301360D01*
X86819714Y-81429340D01*
X86780053Y-81469000D01*
X80431069Y-81469000D01*
X80322574Y-81396506D01*
X80198640Y-81345171D01*
X80067073Y-81319000D01*
X79932927Y-81319000D01*
X79801360Y-81345171D01*
X79677426Y-81396506D01*
X79565888Y-81471033D01*
X79471033Y-81565888D01*
X79396506Y-81677426D01*
X79345171Y-81801360D01*
X79319000Y-81932927D01*
X60657954Y-81932927D01*
X60681000Y-81817073D01*
X60681000Y-81682927D01*
X60654829Y-81551360D01*
X60603494Y-81427426D01*
X60581000Y-81393761D01*
X60581000Y-78928539D01*
X60583811Y-78899999D01*
X60572593Y-78786104D01*
X60539371Y-78676585D01*
X60533571Y-78665734D01*
X60485421Y-78575652D01*
X60412817Y-78487183D01*
X60390646Y-78468988D01*
X58431017Y-76509360D01*
X58412817Y-76487183D01*
X58324348Y-76414579D01*
X58223415Y-76360629D01*
X58113896Y-76327407D01*
X58028540Y-76319000D01*
X58000000Y-76316189D01*
X57971460Y-76319000D01*
X53640658Y-76319000D01*
X52781000Y-75459343D01*
X52781000Y-75206239D01*
X52796576Y-75182927D01*
X58619000Y-75182927D01*
X58619000Y-75317073D01*
X58645171Y-75448640D01*
X58696506Y-75572574D01*
X58721507Y-75609990D01*
X58727407Y-75669896D01*
X58760629Y-75779415D01*
X58814580Y-75880348D01*
X58887184Y-75968817D01*
X58909355Y-75987012D01*
X60274987Y-77352645D01*
X60293183Y-77374817D01*
X60381652Y-77447421D01*
X60482585Y-77501371D01*
X60592104Y-77534593D01*
X60677460Y-77543000D01*
X60677462Y-77543000D01*
X60705999Y-77545811D01*
X60734536Y-77543000D01*
X65709464Y-77543000D01*
X65738004Y-77545811D01*
X65766544Y-77543000D01*
X65851900Y-77534593D01*
X65961419Y-77501371D01*
X66062352Y-77447421D01*
X66150821Y-77374817D01*
X66169021Y-77352640D01*
X67483932Y-76037730D01*
X67523642Y-76029831D01*
X67647576Y-75978496D01*
X67759114Y-75903969D01*
X67853969Y-75809114D01*
X67928496Y-75697576D01*
X67979831Y-75573642D01*
X68006002Y-75442075D01*
X68006002Y-75307929D01*
X67979831Y-75176362D01*
X67928496Y-75052428D01*
X67853969Y-74940890D01*
X67759114Y-74846035D01*
X67647576Y-74771508D01*
X67523642Y-74720173D01*
X67392075Y-74694002D01*
X67257929Y-74694002D01*
X67126362Y-74720173D01*
X67002428Y-74771508D01*
X66890890Y-74846035D01*
X66796035Y-74940890D01*
X66721508Y-75052428D01*
X66670173Y-75176362D01*
X66662274Y-75216072D01*
X65497347Y-76381000D01*
X60946658Y-76381000D01*
X59964696Y-75399038D01*
X59981000Y-75317073D01*
X59981000Y-75182927D01*
X59954829Y-75051360D01*
X59903494Y-74927426D01*
X59833772Y-74823078D01*
X60219000Y-74823078D01*
X60219000Y-74976922D01*
X60249013Y-75127809D01*
X60307887Y-75269942D01*
X60393358Y-75397859D01*
X60502141Y-75506642D01*
X60630058Y-75592113D01*
X60772191Y-75650987D01*
X60923078Y-75681000D01*
X61076922Y-75681000D01*
X61227809Y-75650987D01*
X61369942Y-75592113D01*
X61497859Y-75506642D01*
X61606642Y-75397859D01*
X61692113Y-75269942D01*
X61750987Y-75127809D01*
X61781000Y-74976922D01*
X61781000Y-74823078D01*
X61750987Y-74672191D01*
X61692113Y-74530058D01*
X61606642Y-74402141D01*
X61497859Y-74293358D01*
X61369942Y-74207887D01*
X61227809Y-74149013D01*
X61076922Y-74119000D01*
X60923078Y-74119000D01*
X60772191Y-74149013D01*
X60630058Y-74207887D01*
X60502141Y-74293358D01*
X60393358Y-74402141D01*
X60307887Y-74530058D01*
X60249013Y-74672191D01*
X60219000Y-74823078D01*
X59833772Y-74823078D01*
X59828967Y-74815888D01*
X59734112Y-74721033D01*
X59622574Y-74646506D01*
X59498640Y-74595171D01*
X59367073Y-74569000D01*
X59232927Y-74569000D01*
X59101360Y-74595171D01*
X58977426Y-74646506D01*
X58865888Y-74721033D01*
X58771033Y-74815888D01*
X58696506Y-74927426D01*
X58645171Y-75051360D01*
X58619000Y-75182927D01*
X52796576Y-75182927D01*
X52803494Y-75172574D01*
X52854829Y-75048640D01*
X52881000Y-74917073D01*
X52881000Y-74782927D01*
X52854829Y-74651360D01*
X52803494Y-74527426D01*
X52728967Y-74415888D01*
X52634112Y-74321033D01*
X52522574Y-74246506D01*
X52398640Y-74195171D01*
X52267073Y-74169000D01*
X52132927Y-74169000D01*
X52001360Y-74195171D01*
X51877426Y-74246506D01*
X51765888Y-74321033D01*
X51671033Y-74415888D01*
X51596506Y-74527426D01*
X51545171Y-74651360D01*
X51519000Y-74782927D01*
X44627000Y-74782927D01*
X44627000Y-73023078D01*
X49219000Y-73023078D01*
X49219000Y-73176922D01*
X49249013Y-73327809D01*
X49307887Y-73469942D01*
X49393358Y-73597859D01*
X49502141Y-73706642D01*
X49630058Y-73792113D01*
X49772191Y-73850987D01*
X49923078Y-73881000D01*
X50076922Y-73881000D01*
X50227809Y-73850987D01*
X50369942Y-73792113D01*
X50497859Y-73706642D01*
X50606642Y-73597859D01*
X50692113Y-73469942D01*
X50750987Y-73327809D01*
X50781000Y-73176922D01*
X50781000Y-73023078D01*
X50750987Y-72872191D01*
X50692113Y-72730058D01*
X50606642Y-72602141D01*
X50497859Y-72493358D01*
X50369942Y-72407887D01*
X50227809Y-72349013D01*
X50076922Y-72319000D01*
X49923078Y-72319000D01*
X49772191Y-72349013D01*
X49630058Y-72407887D01*
X49502141Y-72493358D01*
X49393358Y-72602141D01*
X49307887Y-72730058D01*
X49249013Y-72872191D01*
X49219000Y-73023078D01*
X44627000Y-73023078D01*
X44627000Y-68823078D01*
X48069000Y-68823078D01*
X48069000Y-68976922D01*
X48099013Y-69127809D01*
X48157887Y-69269942D01*
X48243358Y-69397859D01*
X48352141Y-69506642D01*
X48480058Y-69592113D01*
X48622191Y-69650987D01*
X48773078Y-69681000D01*
X48926922Y-69681000D01*
X49077809Y-69650987D01*
X49140462Y-69625035D01*
X49119000Y-69732927D01*
X49119000Y-69867073D01*
X49145171Y-69998640D01*
X49196506Y-70122574D01*
X49271033Y-70234112D01*
X49365888Y-70328967D01*
X49477426Y-70403494D01*
X49601360Y-70454829D01*
X49732927Y-70481000D01*
X49867073Y-70481000D01*
X49998640Y-70454829D01*
X50122574Y-70403494D01*
X50234112Y-70328967D01*
X50328967Y-70234112D01*
X50403494Y-70122574D01*
X50454829Y-69998640D01*
X50481000Y-69867073D01*
X50481000Y-69732927D01*
X50454829Y-69601360D01*
X50403494Y-69477426D01*
X50328967Y-69365888D01*
X50234112Y-69271033D01*
X50122574Y-69196506D01*
X49998640Y-69145171D01*
X49867073Y-69119000D01*
X49732927Y-69119000D01*
X49601360Y-69145171D01*
X49592229Y-69148953D01*
X49600987Y-69127809D01*
X49631000Y-68976922D01*
X49631000Y-68823078D01*
X49600987Y-68672191D01*
X49542113Y-68530058D01*
X49456642Y-68402141D01*
X49347859Y-68293358D01*
X49219942Y-68207887D01*
X49077809Y-68149013D01*
X48926922Y-68119000D01*
X48773078Y-68119000D01*
X48622191Y-68149013D01*
X48480058Y-68207887D01*
X48352141Y-68293358D01*
X48243358Y-68402141D01*
X48157887Y-68530058D01*
X48099013Y-68672191D01*
X48069000Y-68823078D01*
X44627000Y-68823078D01*
X44627000Y-62282927D01*
X49469000Y-62282927D01*
X49469000Y-62417073D01*
X49495171Y-62548640D01*
X49546506Y-62672574D01*
X49621033Y-62784112D01*
X49644001Y-62807080D01*
X49644000Y-66175154D01*
X49641553Y-66200000D01*
X49644000Y-66224846D01*
X49644000Y-66224853D01*
X49651322Y-66299192D01*
X49680255Y-66394574D01*
X49727241Y-66482479D01*
X49790473Y-66559527D01*
X49809785Y-66575376D01*
X51374628Y-68140220D01*
X51390473Y-68159527D01*
X51467521Y-68222759D01*
X51555425Y-68269745D01*
X51650807Y-68298678D01*
X51750000Y-68308448D01*
X51774854Y-68306000D01*
X54092921Y-68306000D01*
X54115888Y-68328967D01*
X54227426Y-68403494D01*
X54351360Y-68454829D01*
X54482927Y-68481000D01*
X54617073Y-68481000D01*
X54748640Y-68454829D01*
X54820570Y-68425035D01*
X54819000Y-68432927D01*
X54819000Y-68567073D01*
X54845171Y-68698640D01*
X54896506Y-68822574D01*
X54971033Y-68934112D01*
X55065888Y-69028967D01*
X55177426Y-69103494D01*
X55301360Y-69154829D01*
X55432927Y-69181000D01*
X55567073Y-69181000D01*
X55694001Y-69155752D01*
X55694001Y-69175154D01*
X55691554Y-69200001D01*
X55694001Y-69224847D01*
X55694001Y-69224854D01*
X55701323Y-69299193D01*
X55730256Y-69394575D01*
X55777242Y-69482480D01*
X55819000Y-69533362D01*
X55819000Y-69567073D01*
X55845171Y-69698640D01*
X55896506Y-69822574D01*
X55971033Y-69934112D01*
X56065888Y-70028967D01*
X56177426Y-70103494D01*
X56301360Y-70154829D01*
X56432927Y-70181000D01*
X56567073Y-70181000D01*
X56698640Y-70154829D01*
X56822574Y-70103494D01*
X56934112Y-70028967D01*
X57028967Y-69934112D01*
X57103494Y-69822574D01*
X57154829Y-69698640D01*
X57181000Y-69567073D01*
X57181000Y-69432927D01*
X57154829Y-69301360D01*
X57103494Y-69177426D01*
X57028967Y-69065888D01*
X56934112Y-68971033D01*
X56822574Y-68896506D01*
X56706001Y-68848220D01*
X56706001Y-68719106D01*
X56790862Y-68803967D01*
X56902400Y-68878494D01*
X57026334Y-68929829D01*
X57157901Y-68956000D01*
X57292047Y-68956000D01*
X57423614Y-68929829D01*
X57547548Y-68878494D01*
X57659086Y-68803967D01*
X57679553Y-68783500D01*
X58700031Y-68783500D01*
X58725000Y-68785959D01*
X58749969Y-68783500D01*
X58749977Y-68783500D01*
X58824683Y-68776142D01*
X58920536Y-68747065D01*
X59008874Y-68699848D01*
X59086303Y-68636303D01*
X59102226Y-68616901D01*
X59641539Y-68077588D01*
X60819000Y-68077588D01*
X60819000Y-68231432D01*
X60849013Y-68382319D01*
X60907887Y-68524452D01*
X60993358Y-68652369D01*
X61102141Y-68761152D01*
X61230058Y-68846623D01*
X61372191Y-68905497D01*
X61523078Y-68935510D01*
X61676922Y-68935510D01*
X61827809Y-68905497D01*
X61969942Y-68846623D01*
X62097859Y-68761152D01*
X62206642Y-68652369D01*
X62292113Y-68524452D01*
X62350987Y-68382319D01*
X62381000Y-68231432D01*
X62381000Y-68077588D01*
X62350987Y-67926701D01*
X62292113Y-67784568D01*
X62206642Y-67656651D01*
X62097859Y-67547868D01*
X61969942Y-67462397D01*
X61827809Y-67403523D01*
X61676922Y-67373510D01*
X61523078Y-67373510D01*
X61372191Y-67403523D01*
X61230058Y-67462397D01*
X61102141Y-67547868D01*
X60993358Y-67656651D01*
X60907887Y-67784568D01*
X60849013Y-67926701D01*
X60819000Y-68077588D01*
X59641539Y-68077588D01*
X62219127Y-65500000D01*
X66566915Y-65500000D01*
X66569000Y-65521168D01*
X66569001Y-73978821D01*
X66566915Y-74000000D01*
X66575237Y-74084491D01*
X66599882Y-74165734D01*
X66639903Y-74240609D01*
X66693763Y-74306237D01*
X66759391Y-74360097D01*
X66834266Y-74400118D01*
X66915509Y-74424763D01*
X66978832Y-74431000D01*
X67000000Y-74433085D01*
X67021168Y-74431000D01*
X72478832Y-74431000D01*
X72500000Y-74433085D01*
X72521168Y-74431000D01*
X72584491Y-74424763D01*
X72665734Y-74400118D01*
X72740609Y-74360097D01*
X72806237Y-74306237D01*
X72860097Y-74240609D01*
X72900118Y-74165734D01*
X72924763Y-74084491D01*
X72933085Y-74000000D01*
X72931000Y-73978832D01*
X72931000Y-65521168D01*
X72933085Y-65500000D01*
X72924763Y-65415509D01*
X72900118Y-65334266D01*
X72860097Y-65259391D01*
X72806237Y-65193763D01*
X72740609Y-65139903D01*
X72665734Y-65099882D01*
X72584491Y-65075237D01*
X72521168Y-65069000D01*
X72500000Y-65066915D01*
X72478832Y-65069000D01*
X67021168Y-65069000D01*
X67000000Y-65066915D01*
X66978832Y-65069000D01*
X66915509Y-65075237D01*
X66834266Y-65099882D01*
X66759391Y-65139903D01*
X66693763Y-65193763D01*
X66639903Y-65259391D01*
X66599882Y-65334266D01*
X66575237Y-65415509D01*
X66566915Y-65500000D01*
X62219127Y-65500000D01*
X63510628Y-64208500D01*
X72189373Y-64208500D01*
X72991501Y-65010629D01*
X72991500Y-66995695D01*
X72989041Y-67020664D01*
X72991500Y-67045633D01*
X72991500Y-67045640D01*
X72997940Y-67111029D01*
X72998858Y-67120347D01*
X73007441Y-67148640D01*
X73027935Y-67216199D01*
X73075152Y-67304538D01*
X73138697Y-67381967D01*
X73158099Y-67397890D01*
X77502110Y-71741901D01*
X77518033Y-71761303D01*
X77595462Y-71824848D01*
X77683800Y-71872065D01*
X77779653Y-71901142D01*
X77854359Y-71908500D01*
X77854369Y-71908500D01*
X77879335Y-71910959D01*
X77904302Y-71908500D01*
X82545421Y-71908500D01*
X82565888Y-71928967D01*
X82677426Y-72003494D01*
X82801360Y-72054829D01*
X82932927Y-72081000D01*
X83067073Y-72081000D01*
X83198640Y-72054829D01*
X83322574Y-72003494D01*
X83434112Y-71928967D01*
X83528967Y-71834112D01*
X83603494Y-71722574D01*
X83654829Y-71598640D01*
X83681000Y-71467073D01*
X83681000Y-71332927D01*
X83654829Y-71201360D01*
X83603494Y-71077426D01*
X83528967Y-70965888D01*
X83434112Y-70871033D01*
X83322574Y-70796506D01*
X83198640Y-70745171D01*
X83067073Y-70719000D01*
X82932927Y-70719000D01*
X82801360Y-70745171D01*
X82677426Y-70796506D01*
X82565888Y-70871033D01*
X82545421Y-70891500D01*
X78089963Y-70891500D01*
X74008500Y-66810037D01*
X74008500Y-64824969D01*
X74010959Y-64800000D01*
X74008500Y-64775031D01*
X74008500Y-64775023D01*
X74001142Y-64700317D01*
X73998484Y-64691553D01*
X73972065Y-64604464D01*
X73968972Y-64598678D01*
X73924848Y-64516126D01*
X73891400Y-64475370D01*
X73877225Y-64458097D01*
X73877221Y-64458093D01*
X73861303Y-64438697D01*
X73841907Y-64422779D01*
X73025127Y-63606000D01*
X75290409Y-63606000D01*
X75819000Y-64134592D01*
X75819000Y-64167073D01*
X75845171Y-64298640D01*
X75896506Y-64422574D01*
X75971033Y-64534112D01*
X76065888Y-64628967D01*
X76177426Y-64703494D01*
X76301360Y-64754829D01*
X76432927Y-64781000D01*
X76567073Y-64781000D01*
X76698640Y-64754829D01*
X76822574Y-64703494D01*
X76934112Y-64628967D01*
X77028967Y-64534112D01*
X77103494Y-64422574D01*
X77154829Y-64298640D01*
X77181000Y-64167073D01*
X77181000Y-64032927D01*
X77154829Y-63901360D01*
X77103494Y-63777426D01*
X77028967Y-63665888D01*
X76934112Y-63571033D01*
X76822574Y-63496506D01*
X76698640Y-63445171D01*
X76567073Y-63419000D01*
X76534592Y-63419000D01*
X75875376Y-62759785D01*
X75859527Y-62740473D01*
X75782479Y-62677241D01*
X75694575Y-62630255D01*
X75599193Y-62601322D01*
X75524854Y-62594000D01*
X75524846Y-62594000D01*
X75500000Y-62591553D01*
X75475154Y-62594000D01*
X75183843Y-62594000D01*
X75183843Y-62501988D01*
X86786397Y-62501988D01*
X87719000Y-63434592D01*
X87719000Y-63467073D01*
X87745171Y-63598640D01*
X87796506Y-63722574D01*
X87871033Y-63834112D01*
X87965888Y-63928967D01*
X88077426Y-64003494D01*
X88201360Y-64054829D01*
X88332927Y-64081000D01*
X88467073Y-64081000D01*
X88598640Y-64054829D01*
X88722574Y-64003494D01*
X88834112Y-63928967D01*
X88928967Y-63834112D01*
X89003494Y-63722574D01*
X89054829Y-63598640D01*
X89081000Y-63467073D01*
X89081000Y-63332927D01*
X89054829Y-63201360D01*
X89003494Y-63077426D01*
X88928967Y-62965888D01*
X88834112Y-62871033D01*
X88722574Y-62796506D01*
X88598640Y-62745171D01*
X88467073Y-62719000D01*
X88434592Y-62719000D01*
X87371364Y-61655773D01*
X87355515Y-61636461D01*
X87278467Y-61573229D01*
X87190563Y-61526243D01*
X87095181Y-61497310D01*
X87020842Y-61489988D01*
X87020834Y-61489988D01*
X86995988Y-61487541D01*
X86971142Y-61489988D01*
X59701340Y-61489988D01*
X61485328Y-59706000D01*
X81092921Y-59706000D01*
X81115888Y-59728967D01*
X81227426Y-59803494D01*
X81351360Y-59854829D01*
X81482927Y-59881000D01*
X81617073Y-59881000D01*
X81748640Y-59854829D01*
X81872574Y-59803494D01*
X81984112Y-59728967D01*
X82078967Y-59634112D01*
X82153494Y-59522574D01*
X82204829Y-59398640D01*
X82231000Y-59267073D01*
X82231000Y-59132927D01*
X82204829Y-59001360D01*
X82153494Y-58877426D01*
X82078967Y-58765888D01*
X81984112Y-58671033D01*
X81872574Y-58596506D01*
X81748640Y-58545171D01*
X81617073Y-58519000D01*
X81482927Y-58519000D01*
X81351360Y-58545171D01*
X81227426Y-58596506D01*
X81115888Y-58671033D01*
X81092921Y-58694000D01*
X81065698Y-58694000D01*
X81081000Y-58617073D01*
X81081000Y-58482927D01*
X81054829Y-58351360D01*
X81003494Y-58227426D01*
X80928967Y-58115888D01*
X80834112Y-58021033D01*
X80722574Y-57946506D01*
X80598640Y-57895171D01*
X80467073Y-57869000D01*
X80332927Y-57869000D01*
X80201360Y-57895171D01*
X80077426Y-57946506D01*
X79965888Y-58021033D01*
X79942921Y-58044000D01*
X65594280Y-58044000D01*
X65600987Y-58027809D01*
X65631000Y-57876922D01*
X65631000Y-57723078D01*
X65600987Y-57572191D01*
X65542113Y-57430058D01*
X65533070Y-57416524D01*
X65547859Y-57406642D01*
X65656642Y-57297859D01*
X65742113Y-57169942D01*
X65800987Y-57027809D01*
X65831000Y-56876922D01*
X65831000Y-56723078D01*
X65800987Y-56572191D01*
X65742113Y-56430058D01*
X65656642Y-56302141D01*
X65547859Y-56193358D01*
X65419942Y-56107887D01*
X65277809Y-56049013D01*
X65126922Y-56019000D01*
X64973078Y-56019000D01*
X64822191Y-56049013D01*
X64680058Y-56107887D01*
X64552141Y-56193358D01*
X64537500Y-56207999D01*
X64497859Y-56168358D01*
X64369942Y-56082887D01*
X64227809Y-56024013D01*
X64076922Y-55994000D01*
X63923078Y-55994000D01*
X63772191Y-56024013D01*
X63630058Y-56082887D01*
X63502141Y-56168358D01*
X63500000Y-56170499D01*
X63472859Y-56143358D01*
X63344942Y-56057887D01*
X63202809Y-55999013D01*
X63051922Y-55969000D01*
X62898078Y-55969000D01*
X62747191Y-55999013D01*
X62605058Y-56057887D01*
X62477141Y-56143358D01*
X62368358Y-56252141D01*
X62282887Y-56380058D01*
X62224013Y-56522191D01*
X62194000Y-56673078D01*
X62194000Y-56826922D01*
X62224013Y-56977809D01*
X62282887Y-57119942D01*
X62368358Y-57247859D01*
X62477141Y-57356642D01*
X62605058Y-57442113D01*
X62747191Y-57500987D01*
X62898078Y-57531000D01*
X63030720Y-57531000D01*
X63024013Y-57547191D01*
X62994000Y-57698078D01*
X62994000Y-57851922D01*
X63024013Y-58002809D01*
X63041075Y-58044000D01*
X61074845Y-58044000D01*
X61049999Y-58041553D01*
X61025153Y-58044000D01*
X61025146Y-58044000D01*
X60960694Y-58050348D01*
X60950806Y-58051322D01*
X60928607Y-58058056D01*
X60855425Y-58080255D01*
X60767521Y-58127241D01*
X60690473Y-58190473D01*
X60674628Y-58209780D01*
X53915409Y-64969000D01*
X53882927Y-64969000D01*
X53751360Y-64995171D01*
X53627426Y-65046506D01*
X53515888Y-65121033D01*
X53421033Y-65215888D01*
X53346506Y-65327426D01*
X53295171Y-65451360D01*
X53269000Y-65582927D01*
X53269000Y-65717073D01*
X53295171Y-65848640D01*
X53346506Y-65972574D01*
X53421033Y-66084112D01*
X53515888Y-66178967D01*
X53627426Y-66253494D01*
X53751360Y-66304829D01*
X53882927Y-66331000D01*
X54017073Y-66331000D01*
X54088823Y-66316728D01*
X54095171Y-66348640D01*
X54146506Y-66472574D01*
X54221033Y-66584112D01*
X54315888Y-66678967D01*
X54427426Y-66753494D01*
X54551360Y-66804829D01*
X54682927Y-66831000D01*
X54817073Y-66831000D01*
X54948640Y-66804829D01*
X55072574Y-66753494D01*
X55184112Y-66678967D01*
X55278967Y-66584112D01*
X55353494Y-66472574D01*
X55404829Y-66348640D01*
X55431000Y-66217073D01*
X55431000Y-66082927D01*
X55404829Y-65951360D01*
X55356542Y-65834785D01*
X55388372Y-65802955D01*
X55396498Y-65822574D01*
X55471025Y-65934112D01*
X55565880Y-66028967D01*
X55677418Y-66103494D01*
X55801352Y-66154829D01*
X55932919Y-66181000D01*
X56067065Y-66181000D01*
X56198632Y-66154829D01*
X56322566Y-66103494D01*
X56434104Y-66028967D01*
X56528959Y-65934112D01*
X56603486Y-65822574D01*
X56654821Y-65698640D01*
X56680992Y-65567073D01*
X56680992Y-65534591D01*
X59713596Y-62501988D01*
X60282420Y-62501988D01*
X55198450Y-67585959D01*
X55153494Y-67477426D01*
X55078967Y-67365888D01*
X54984112Y-67271033D01*
X54872574Y-67196506D01*
X54748640Y-67145171D01*
X54617073Y-67119000D01*
X54482927Y-67119000D01*
X54351360Y-67145171D01*
X54227426Y-67196506D01*
X54115888Y-67271033D01*
X54092921Y-67294000D01*
X51959592Y-67294000D01*
X50656000Y-65990409D01*
X50656000Y-62807079D01*
X50678967Y-62784112D01*
X50753494Y-62672574D01*
X50804829Y-62548640D01*
X50831000Y-62417073D01*
X50831000Y-62282927D01*
X50804829Y-62151360D01*
X50753494Y-62027426D01*
X50678967Y-61915888D01*
X50584112Y-61821033D01*
X50472574Y-61746506D01*
X50348640Y-61695171D01*
X50217073Y-61669000D01*
X50082927Y-61669000D01*
X49951360Y-61695171D01*
X49827426Y-61746506D01*
X49715888Y-61821033D01*
X49621033Y-61915888D01*
X49546506Y-62027426D01*
X49495171Y-62151360D01*
X49469000Y-62282927D01*
X44627000Y-62282927D01*
X44627000Y-53923078D01*
X58869000Y-53923078D01*
X58869000Y-54076922D01*
X58899013Y-54227809D01*
X58957887Y-54369942D01*
X59043358Y-54497859D01*
X59149978Y-54604479D01*
X59132887Y-54630058D01*
X59074013Y-54772191D01*
X59044000Y-54923078D01*
X59044000Y-55076922D01*
X59074013Y-55227809D01*
X59132887Y-55369942D01*
X59218358Y-55497859D01*
X59327141Y-55606642D01*
X59451523Y-55689751D01*
X59407887Y-55755058D01*
X59349013Y-55897191D01*
X59319000Y-56048078D01*
X59319000Y-56201922D01*
X59349013Y-56352809D01*
X59407887Y-56494942D01*
X59493358Y-56622859D01*
X59602141Y-56731642D01*
X59730058Y-56817113D01*
X59872191Y-56875987D01*
X60023078Y-56906000D01*
X60176922Y-56906000D01*
X60302150Y-56881091D01*
X60307887Y-56894942D01*
X60393358Y-57022859D01*
X60502141Y-57131642D01*
X60630058Y-57217113D01*
X60772191Y-57275987D01*
X60923078Y-57306000D01*
X61076922Y-57306000D01*
X61227809Y-57275987D01*
X61369942Y-57217113D01*
X61497859Y-57131642D01*
X61606642Y-57022859D01*
X61692113Y-56894942D01*
X61750987Y-56752809D01*
X61781000Y-56601922D01*
X61781000Y-56448078D01*
X61750987Y-56297191D01*
X61692113Y-56155058D01*
X61606642Y-56027141D01*
X61497859Y-55918358D01*
X61369942Y-55832887D01*
X61227809Y-55774013D01*
X61076922Y-55744000D01*
X60923078Y-55744000D01*
X60797850Y-55768909D01*
X60792113Y-55755058D01*
X60706642Y-55627141D01*
X60597859Y-55518358D01*
X60473477Y-55435249D01*
X60517113Y-55369942D01*
X60575987Y-55227809D01*
X60584914Y-55182927D01*
X71969000Y-55182927D01*
X71969000Y-55317073D01*
X71995171Y-55448640D01*
X72046506Y-55572574D01*
X72121033Y-55684112D01*
X72215888Y-55778967D01*
X72327426Y-55853494D01*
X72451360Y-55904829D01*
X72582927Y-55931000D01*
X72717073Y-55931000D01*
X72848640Y-55904829D01*
X72972574Y-55853494D01*
X73084112Y-55778967D01*
X73178967Y-55684112D01*
X73253494Y-55572574D01*
X73304829Y-55448640D01*
X73331000Y-55317073D01*
X73331000Y-55182927D01*
X73304829Y-55051360D01*
X73253494Y-54927426D01*
X73178967Y-54815888D01*
X73084112Y-54721033D01*
X72972574Y-54646506D01*
X72848640Y-54595171D01*
X72717073Y-54569000D01*
X72582927Y-54569000D01*
X72451360Y-54595171D01*
X72327426Y-54646506D01*
X72215888Y-54721033D01*
X72121033Y-54815888D01*
X72046506Y-54927426D01*
X71995171Y-55051360D01*
X71969000Y-55182927D01*
X60584914Y-55182927D01*
X60606000Y-55076922D01*
X60606000Y-54923078D01*
X60575987Y-54772191D01*
X60517113Y-54630058D01*
X60431642Y-54502141D01*
X60325022Y-54395521D01*
X60342113Y-54369942D01*
X60400987Y-54227809D01*
X60431000Y-54076922D01*
X60431000Y-53923078D01*
X60400987Y-53772191D01*
X60342113Y-53630058D01*
X60256642Y-53502141D01*
X60147859Y-53393358D01*
X60019942Y-53307887D01*
X59877809Y-53249013D01*
X59726922Y-53219000D01*
X59573078Y-53219000D01*
X59422191Y-53249013D01*
X59280058Y-53307887D01*
X59152141Y-53393358D01*
X59043358Y-53502141D01*
X58957887Y-53630058D01*
X58899013Y-53772191D01*
X58869000Y-53923078D01*
X44627000Y-53923078D01*
X44627000Y-52432927D01*
X50719000Y-52432927D01*
X50719000Y-52567073D01*
X50745171Y-52698640D01*
X50796506Y-52822574D01*
X50871033Y-52934112D01*
X50965888Y-53028967D01*
X51077426Y-53103494D01*
X51201360Y-53154829D01*
X51332927Y-53181000D01*
X51467073Y-53181000D01*
X51598640Y-53154829D01*
X51722574Y-53103494D01*
X51834112Y-53028967D01*
X51928967Y-52934112D01*
X52003494Y-52822574D01*
X52054829Y-52698640D01*
X52081000Y-52567073D01*
X52081000Y-52432927D01*
X52054829Y-52301360D01*
X52003494Y-52177426D01*
X51928967Y-52065888D01*
X51834112Y-51971033D01*
X51722574Y-51896506D01*
X51598640Y-51845171D01*
X51467073Y-51819000D01*
X51332927Y-51819000D01*
X51201360Y-51845171D01*
X51077426Y-51896506D01*
X50965888Y-51971033D01*
X50871033Y-52065888D01*
X50796506Y-52177426D01*
X50745171Y-52301360D01*
X50719000Y-52432927D01*
X44627000Y-52432927D01*
X44627000Y-49732927D01*
X58169000Y-49732927D01*
X58169000Y-49867073D01*
X58195171Y-49998640D01*
X58246506Y-50122574D01*
X58321033Y-50234112D01*
X58415888Y-50328967D01*
X58527426Y-50403494D01*
X58651360Y-50454829D01*
X58782927Y-50481000D01*
X58917073Y-50481000D01*
X59048640Y-50454829D01*
X59172574Y-50403494D01*
X59284112Y-50328967D01*
X59378967Y-50234112D01*
X59453494Y-50122574D01*
X59504829Y-49998640D01*
X59531000Y-49867073D01*
X59531000Y-49732927D01*
X59504829Y-49601360D01*
X59453494Y-49477426D01*
X59378967Y-49365888D01*
X59356000Y-49342921D01*
X59356000Y-47009591D01*
X61034592Y-45331000D01*
X61067073Y-45331000D01*
X61198640Y-45304829D01*
X61322574Y-45253494D01*
X61434112Y-45178967D01*
X61528967Y-45084112D01*
X61603494Y-44972574D01*
X61654829Y-44848640D01*
X61681000Y-44717073D01*
X61681000Y-44582927D01*
X61654829Y-44451360D01*
X61603494Y-44327426D01*
X61528967Y-44215888D01*
X61434112Y-44121033D01*
X61322574Y-44046506D01*
X61198640Y-43995171D01*
X61067073Y-43969000D01*
X60932927Y-43969000D01*
X60801360Y-43995171D01*
X60677426Y-44046506D01*
X60565888Y-44121033D01*
X60471033Y-44215888D01*
X60396506Y-44327426D01*
X60345171Y-44451360D01*
X60319000Y-44582927D01*
X60319000Y-44615408D01*
X58509785Y-46424624D01*
X58490473Y-46440473D01*
X58427241Y-46517521D01*
X58380255Y-46605426D01*
X58351322Y-46700808D01*
X58344000Y-46775147D01*
X58344000Y-46775154D01*
X58341553Y-46800000D01*
X58344000Y-46824846D01*
X58344001Y-49342920D01*
X58321033Y-49365888D01*
X58246506Y-49477426D01*
X58195171Y-49601360D01*
X58169000Y-49732927D01*
X44627000Y-49732927D01*
X44627000Y-41877000D01*
X75373000Y-41877000D01*
X75373000Y-52750000D01*
G37*
G04 #@! TD.AperFunction*
M02*
