%FSLAX45Y45*%
G04 Gerber Fmt 4.5, Leading zero omitted, Abs format (unit mm)*
G04 Created by KiCad (PCBNEW (5.1.7)-1) date 2022-01-01 19:06:48*
%MOMM*%
%LPD*%
G01*
G04 APERTURE LIST*
%TA.AperFunction,Profile*%
%ADD10C,0.100000*%
%TD*%
%ADD11C,0.200000*%
%ADD12C,0.300000*%
G04 APERTURE END LIST*
D10*
X6700000Y-6550000D02*
X6700000Y-7400000D01*
X7250000Y-6550000D02*
X6700000Y-6550000D01*
X6700000Y-7400000D02*
X7250000Y-7400000D01*
X7250000Y-7400000D02*
X7250000Y-6550000D01*
X4950000Y-8400000D02*
X5800000Y-8400000D01*
X4950000Y-7850000D02*
X4950000Y-8400000D01*
X5800000Y-7850000D02*
X4950000Y-7850000D01*
X5800000Y-8400000D02*
X5800000Y-7850000D01*
X7650000Y-5175000D02*
X7650000Y-4115000D01*
X9650000Y-5175000D02*
X7650000Y-5175000D01*
X9650000Y-10275000D02*
X9650000Y-5175000D01*
X7650000Y-10275000D02*
X9650000Y-10275000D01*
X6895000Y-10275000D02*
X4250000Y-10275000D01*
X4430000Y-4115000D02*
X4565000Y-4115000D01*
X4565000Y-4115000D02*
X4565000Y-3775000D01*
X4250000Y-4115000D02*
X4430000Y-4115000D01*
X7247410Y-3774720D02*
X7334970Y-3774720D01*
X7650000Y-4115000D02*
X7335000Y-4115000D01*
X7335000Y-4115000D02*
X7334970Y-3774720D01*
X4565000Y-3774720D02*
X7247410Y-3774720D01*
X4250000Y-4115000D02*
X4250000Y-10275000D01*
X6895000Y-10275000D02*
X7650000Y-10275000D01*
D11*
X8557500Y-9832500D02*
X8642500Y-9917500D01*
X8642500Y-9832500D02*
X8557500Y-9917500D01*
X8857500Y-9832500D02*
X8942500Y-9917500D01*
X8942500Y-9832500D02*
X8857500Y-9917500D01*
X6482500Y-9832500D02*
X6567500Y-9917500D01*
X6567500Y-9832500D02*
X6482500Y-9917500D01*
X6782500Y-9832500D02*
X6867500Y-9917500D01*
X6867500Y-9832500D02*
X6782500Y-9917500D01*
D12*
X4531428Y-10745714D02*
X4531428Y-10445714D01*
X4602857Y-10445714D01*
X4645714Y-10460000D01*
X4674286Y-10488572D01*
X4688571Y-10517143D01*
X4702857Y-10574286D01*
X4702857Y-10617143D01*
X4688571Y-10674286D01*
X4674286Y-10702857D01*
X4645714Y-10731429D01*
X4602857Y-10745714D01*
X4531428Y-10745714D01*
X4831428Y-10745714D02*
X4831428Y-10545714D01*
X4831428Y-10602857D02*
X4845714Y-10574286D01*
X4860000Y-10560000D01*
X4888571Y-10545714D01*
X4917143Y-10545714D01*
X5017143Y-10745714D02*
X5017143Y-10545714D01*
X5017143Y-10445714D02*
X5002857Y-10460000D01*
X5017143Y-10474286D01*
X5031428Y-10460000D01*
X5017143Y-10445714D01*
X5017143Y-10474286D01*
X5202857Y-10745714D02*
X5174286Y-10731429D01*
X5160000Y-10702857D01*
X5160000Y-10445714D01*
X5360000Y-10745714D02*
X5331428Y-10731429D01*
X5317143Y-10702857D01*
X5317143Y-10445714D01*
X5702857Y-10745714D02*
X5702857Y-10445714D01*
X5802857Y-10660000D01*
X5902857Y-10445714D01*
X5902857Y-10745714D01*
X6174286Y-10745714D02*
X6174286Y-10588572D01*
X6160000Y-10560000D01*
X6131428Y-10545714D01*
X6074286Y-10545714D01*
X6045714Y-10560000D01*
X6174286Y-10731429D02*
X6145714Y-10745714D01*
X6074286Y-10745714D01*
X6045714Y-10731429D01*
X6031428Y-10702857D01*
X6031428Y-10674286D01*
X6045714Y-10645714D01*
X6074286Y-10631429D01*
X6145714Y-10631429D01*
X6174286Y-10617143D01*
X6317143Y-10545714D02*
X6317143Y-10845714D01*
X6317143Y-10560000D02*
X6345714Y-10545714D01*
X6402857Y-10545714D01*
X6431428Y-10560000D01*
X6445714Y-10574286D01*
X6460000Y-10602857D01*
X6460000Y-10688572D01*
X6445714Y-10717143D01*
X6431428Y-10731429D01*
X6402857Y-10745714D01*
X6345714Y-10745714D01*
X6317143Y-10731429D01*
X6588571Y-10717143D02*
X6602857Y-10731429D01*
X6588571Y-10745714D01*
X6574286Y-10731429D01*
X6588571Y-10717143D01*
X6588571Y-10745714D01*
X6588571Y-10560000D02*
X6602857Y-10574286D01*
X6588571Y-10588572D01*
X6574286Y-10574286D01*
X6588571Y-10560000D01*
X6588571Y-10588572D01*
X4160000Y-11197500D02*
X4245000Y-11282500D01*
X4245000Y-11197500D02*
X4160000Y-11282500D01*
X4588571Y-11075714D02*
X4617143Y-11075714D01*
X4645714Y-11090000D01*
X4660000Y-11104286D01*
X4674286Y-11132857D01*
X4688571Y-11190000D01*
X4688571Y-11261429D01*
X4674286Y-11318571D01*
X4660000Y-11347143D01*
X4645714Y-11361429D01*
X4617143Y-11375714D01*
X4588571Y-11375714D01*
X4560000Y-11361429D01*
X4545714Y-11347143D01*
X4531428Y-11318571D01*
X4517143Y-11261429D01*
X4517143Y-11190000D01*
X4531428Y-11132857D01*
X4545714Y-11104286D01*
X4560000Y-11090000D01*
X4588571Y-11075714D01*
X4817143Y-11347143D02*
X4831428Y-11361429D01*
X4817143Y-11375714D01*
X4802857Y-11361429D01*
X4817143Y-11347143D01*
X4817143Y-11375714D01*
X5002857Y-11204286D02*
X4974286Y-11190000D01*
X4960000Y-11175714D01*
X4945714Y-11147143D01*
X4945714Y-11132857D01*
X4960000Y-11104286D01*
X4974286Y-11090000D01*
X5002857Y-11075714D01*
X5060000Y-11075714D01*
X5088571Y-11090000D01*
X5102857Y-11104286D01*
X5117143Y-11132857D01*
X5117143Y-11147143D01*
X5102857Y-11175714D01*
X5088571Y-11190000D01*
X5060000Y-11204286D01*
X5002857Y-11204286D01*
X4974286Y-11218571D01*
X4960000Y-11232857D01*
X4945714Y-11261429D01*
X4945714Y-11318571D01*
X4960000Y-11347143D01*
X4974286Y-11361429D01*
X5002857Y-11375714D01*
X5060000Y-11375714D01*
X5088571Y-11361429D01*
X5102857Y-11347143D01*
X5117143Y-11318571D01*
X5117143Y-11261429D01*
X5102857Y-11232857D01*
X5088571Y-11218571D01*
X5060000Y-11204286D01*
X5388571Y-11075714D02*
X5245714Y-11075714D01*
X5231428Y-11218571D01*
X5245714Y-11204286D01*
X5274286Y-11190000D01*
X5345714Y-11190000D01*
X5374286Y-11204286D01*
X5388571Y-11218571D01*
X5402857Y-11247143D01*
X5402857Y-11318571D01*
X5388571Y-11347143D01*
X5374286Y-11361429D01*
X5345714Y-11375714D01*
X5274286Y-11375714D01*
X5245714Y-11361429D01*
X5231428Y-11347143D01*
X5531428Y-11375714D02*
X5531428Y-11175714D01*
X5531428Y-11204286D02*
X5545714Y-11190000D01*
X5574286Y-11175714D01*
X5617143Y-11175714D01*
X5645714Y-11190000D01*
X5660000Y-11218571D01*
X5660000Y-11375714D01*
X5660000Y-11218571D02*
X5674286Y-11190000D01*
X5702857Y-11175714D01*
X5745714Y-11175714D01*
X5774286Y-11190000D01*
X5788571Y-11218571D01*
X5788571Y-11375714D01*
X5931428Y-11375714D02*
X5931428Y-11175714D01*
X5931428Y-11204286D02*
X5945714Y-11190000D01*
X5974286Y-11175714D01*
X6017143Y-11175714D01*
X6045714Y-11190000D01*
X6060000Y-11218571D01*
X6060000Y-11375714D01*
X6060000Y-11218571D02*
X6074286Y-11190000D01*
X6102857Y-11175714D01*
X6145714Y-11175714D01*
X6174286Y-11190000D01*
X6188571Y-11218571D01*
X6188571Y-11375714D01*
X6774286Y-11061429D02*
X6517143Y-11447143D01*
X7160000Y-11075714D02*
X7188571Y-11075714D01*
X7217143Y-11090000D01*
X7231428Y-11104286D01*
X7245714Y-11132857D01*
X7260000Y-11190000D01*
X7260000Y-11261429D01*
X7245714Y-11318571D01*
X7231428Y-11347143D01*
X7217143Y-11361429D01*
X7188571Y-11375714D01*
X7160000Y-11375714D01*
X7131428Y-11361429D01*
X7117143Y-11347143D01*
X7102857Y-11318571D01*
X7088571Y-11261429D01*
X7088571Y-11190000D01*
X7102857Y-11132857D01*
X7117143Y-11104286D01*
X7131428Y-11090000D01*
X7160000Y-11075714D01*
X7388571Y-11347143D02*
X7402857Y-11361429D01*
X7388571Y-11375714D01*
X7374286Y-11361429D01*
X7388571Y-11347143D01*
X7388571Y-11375714D01*
X7588571Y-11075714D02*
X7617143Y-11075714D01*
X7645714Y-11090000D01*
X7660000Y-11104286D01*
X7674286Y-11132857D01*
X7688571Y-11190000D01*
X7688571Y-11261429D01*
X7674286Y-11318571D01*
X7660000Y-11347143D01*
X7645714Y-11361429D01*
X7617143Y-11375714D01*
X7588571Y-11375714D01*
X7560000Y-11361429D01*
X7545714Y-11347143D01*
X7531428Y-11318571D01*
X7517143Y-11261429D01*
X7517143Y-11190000D01*
X7531428Y-11132857D01*
X7545714Y-11104286D01*
X7560000Y-11090000D01*
X7588571Y-11075714D01*
X7788571Y-11075714D02*
X7974286Y-11075714D01*
X7874286Y-11190000D01*
X7917143Y-11190000D01*
X7945714Y-11204286D01*
X7960000Y-11218571D01*
X7974286Y-11247143D01*
X7974286Y-11318571D01*
X7960000Y-11347143D01*
X7945714Y-11361429D01*
X7917143Y-11375714D01*
X7831428Y-11375714D01*
X7802857Y-11361429D01*
X7788571Y-11347143D01*
X8074286Y-11075714D02*
X8260000Y-11075714D01*
X8160000Y-11190000D01*
X8202857Y-11190000D01*
X8231428Y-11204286D01*
X8245714Y-11218571D01*
X8260000Y-11247143D01*
X8260000Y-11318571D01*
X8245714Y-11347143D01*
X8231428Y-11361429D01*
X8202857Y-11375714D01*
X8117143Y-11375714D01*
X8088571Y-11361429D01*
X8074286Y-11347143D01*
X8374286Y-11075714D02*
X8374286Y-11132857D01*
X8488571Y-11075714D02*
X8488571Y-11132857D01*
X8931428Y-11490000D02*
X8917143Y-11475714D01*
X8888571Y-11432857D01*
X8874286Y-11404286D01*
X8860000Y-11361429D01*
X8845714Y-11290000D01*
X8845714Y-11232857D01*
X8860000Y-11161429D01*
X8874286Y-11118572D01*
X8888571Y-11090000D01*
X8917143Y-11047143D01*
X8931428Y-11032857D01*
X9174286Y-11175714D02*
X9174286Y-11375714D01*
X9102857Y-11061429D02*
X9031428Y-11275714D01*
X9217143Y-11275714D01*
X9560000Y-11375714D02*
X9560000Y-11075714D01*
X9688571Y-11375714D02*
X9688571Y-11218571D01*
X9674286Y-11190000D01*
X9645714Y-11175714D01*
X9602857Y-11175714D01*
X9574286Y-11190000D01*
X9560000Y-11204286D01*
X9874286Y-11375714D02*
X9845714Y-11361429D01*
X9831428Y-11347143D01*
X9817143Y-11318571D01*
X9817143Y-11232857D01*
X9831428Y-11204286D01*
X9845714Y-11190000D01*
X9874286Y-11175714D01*
X9917143Y-11175714D01*
X9945714Y-11190000D01*
X9960000Y-11204286D01*
X9974286Y-11232857D01*
X9974286Y-11318571D01*
X9960000Y-11347143D01*
X9945714Y-11361429D01*
X9917143Y-11375714D01*
X9874286Y-11375714D01*
X10145714Y-11375714D02*
X10117143Y-11361429D01*
X10102857Y-11332857D01*
X10102857Y-11075714D01*
X10374286Y-11361429D02*
X10345714Y-11375714D01*
X10288571Y-11375714D01*
X10260000Y-11361429D01*
X10245714Y-11332857D01*
X10245714Y-11218571D01*
X10260000Y-11190000D01*
X10288571Y-11175714D01*
X10345714Y-11175714D01*
X10374286Y-11190000D01*
X10388571Y-11218571D01*
X10388571Y-11247143D01*
X10245714Y-11275714D01*
X10502857Y-11361429D02*
X10531428Y-11375714D01*
X10588571Y-11375714D01*
X10617143Y-11361429D01*
X10631428Y-11332857D01*
X10631428Y-11318571D01*
X10617143Y-11290000D01*
X10588571Y-11275714D01*
X10545714Y-11275714D01*
X10517143Y-11261429D01*
X10502857Y-11232857D01*
X10502857Y-11218571D01*
X10517143Y-11190000D01*
X10545714Y-11175714D01*
X10588571Y-11175714D01*
X10617143Y-11190000D01*
X10731428Y-11490000D02*
X10745714Y-11475714D01*
X10774286Y-11432857D01*
X10788571Y-11404286D01*
X10802857Y-11361429D01*
X10817143Y-11290000D01*
X10817143Y-11232857D01*
X10802857Y-11161429D01*
X10788571Y-11118572D01*
X10774286Y-11090000D01*
X10745714Y-11047143D01*
X10731428Y-11032857D01*
X11274286Y-11490000D02*
X11260000Y-11475714D01*
X11231428Y-11432857D01*
X11217143Y-11404286D01*
X11202857Y-11361429D01*
X11188571Y-11290000D01*
X11188571Y-11232857D01*
X11202857Y-11161429D01*
X11217143Y-11118572D01*
X11231428Y-11090000D01*
X11260000Y-11047143D01*
X11274286Y-11032857D01*
X11388571Y-11175714D02*
X11388571Y-11375714D01*
X11388571Y-11204286D02*
X11402857Y-11190000D01*
X11431428Y-11175714D01*
X11474286Y-11175714D01*
X11502857Y-11190000D01*
X11517143Y-11218571D01*
X11517143Y-11375714D01*
X11702857Y-11375714D02*
X11674286Y-11361429D01*
X11660000Y-11347143D01*
X11645714Y-11318571D01*
X11645714Y-11232857D01*
X11660000Y-11204286D01*
X11674286Y-11190000D01*
X11702857Y-11175714D01*
X11745714Y-11175714D01*
X11774286Y-11190000D01*
X11788571Y-11204286D01*
X11802857Y-11232857D01*
X11802857Y-11318571D01*
X11788571Y-11347143D01*
X11774286Y-11361429D01*
X11745714Y-11375714D01*
X11702857Y-11375714D01*
X11888571Y-11175714D02*
X12002857Y-11175714D01*
X11931428Y-11075714D02*
X11931428Y-11332857D01*
X11945714Y-11361429D01*
X11974286Y-11375714D01*
X12002857Y-11375714D01*
X12331428Y-11175714D02*
X12331428Y-11475714D01*
X12331428Y-11190000D02*
X12360000Y-11175714D01*
X12417143Y-11175714D01*
X12445714Y-11190000D01*
X12460000Y-11204286D01*
X12474286Y-11232857D01*
X12474286Y-11318571D01*
X12460000Y-11347143D01*
X12445714Y-11361429D01*
X12417143Y-11375714D01*
X12360000Y-11375714D01*
X12331428Y-11361429D01*
X12645714Y-11375714D02*
X12617143Y-11361429D01*
X12602857Y-11332857D01*
X12602857Y-11075714D01*
X12888571Y-11375714D02*
X12888571Y-11218571D01*
X12874286Y-11190000D01*
X12845714Y-11175714D01*
X12788571Y-11175714D01*
X12760000Y-11190000D01*
X12888571Y-11361429D02*
X12860000Y-11375714D01*
X12788571Y-11375714D01*
X12760000Y-11361429D01*
X12745714Y-11332857D01*
X12745714Y-11304286D01*
X12760000Y-11275714D01*
X12788571Y-11261429D01*
X12860000Y-11261429D01*
X12888571Y-11247143D01*
X12988571Y-11175714D02*
X13102857Y-11175714D01*
X13031428Y-11075714D02*
X13031428Y-11332857D01*
X13045714Y-11361429D01*
X13074286Y-11375714D01*
X13102857Y-11375714D01*
X13317143Y-11361429D02*
X13288571Y-11375714D01*
X13231428Y-11375714D01*
X13202857Y-11361429D01*
X13188571Y-11332857D01*
X13188571Y-11218571D01*
X13202857Y-11190000D01*
X13231428Y-11175714D01*
X13288571Y-11175714D01*
X13317143Y-11190000D01*
X13331428Y-11218571D01*
X13331428Y-11247143D01*
X13188571Y-11275714D01*
X13588571Y-11375714D02*
X13588571Y-11075714D01*
X13588571Y-11361429D02*
X13560000Y-11375714D01*
X13502857Y-11375714D01*
X13474286Y-11361429D01*
X13460000Y-11347143D01*
X13445714Y-11318571D01*
X13445714Y-11232857D01*
X13460000Y-11204286D01*
X13474286Y-11190000D01*
X13502857Y-11175714D01*
X13560000Y-11175714D01*
X13588571Y-11190000D01*
X13702857Y-11490000D02*
X13717143Y-11475714D01*
X13745714Y-11432857D01*
X13760000Y-11404286D01*
X13774286Y-11361429D01*
X13788571Y-11290000D01*
X13788571Y-11232857D01*
X13774286Y-11161429D01*
X13760000Y-11118572D01*
X13745714Y-11090000D01*
X13717143Y-11047143D01*
X13702857Y-11032857D01*
M02*
