G04 #@! TF.GenerationSoftware,KiCad,Pcbnew,(5.1.7)-1*
G04 #@! TF.CreationDate,2022-01-01T19:06:31+01:00*
G04 #@! TF.ProjectId,expressDAC,65787072-6573-4734-9441-432e6b696361,rev?*
G04 #@! TF.SameCoordinates,Original*
G04 #@! TF.FileFunction,Copper,L3,Inr*
G04 #@! TF.FilePolarity,Positive*
%FSLAX46Y46*%
G04 Gerber Fmt 4.6, Leading zero omitted, Abs format (unit mm)*
G04 Created by KiCad (PCBNEW (5.1.7)-1) date 2022-01-01 19:06:31*
%MOMM*%
%LPD*%
G01*
G04 APERTURE LIST*
G04 #@! TA.AperFunction,ComponentPad*
%ADD10O,1.200000X2.400000*%
G04 #@! TD*
G04 #@! TA.AperFunction,ViaPad*
%ADD11C,0.600000*%
G04 #@! TD*
G04 #@! TA.AperFunction,ViaPad*
%ADD12C,0.800000*%
G04 #@! TD*
G04 #@! TA.AperFunction,Conductor*
%ADD13C,0.255000*%
G04 #@! TD*
G04 #@! TA.AperFunction,Conductor*
%ADD14C,0.250000*%
G04 #@! TD*
G04 #@! TA.AperFunction,Conductor*
%ADD15C,0.600000*%
G04 #@! TD*
G04 #@! TA.AperFunction,Conductor*
%ADD16C,0.254000*%
G04 #@! TD*
G04 #@! TA.AperFunction,Conductor*
%ADD17C,0.100000*%
G04 #@! TD*
G04 APERTURE END LIST*
D10*
X46450000Y-89850000D03*
X54050000Y-98750000D03*
X54050000Y-89850000D03*
X54050000Y-95550000D03*
X46450000Y-95550000D03*
X46450000Y-98750000D03*
D11*
X77075000Y-80625000D03*
X76350000Y-92100000D03*
X45700000Y-41975000D03*
X52475000Y-50800000D03*
X54825000Y-51025000D03*
X51650000Y-56725000D03*
X55750000Y-60325000D03*
X49025000Y-64250000D03*
X51250000Y-46100000D03*
X55200000Y-42425000D03*
X58275000Y-44925000D03*
D12*
X46990000Y-71628000D03*
X50038000Y-71628000D03*
D11*
X63750000Y-42500000D03*
X70500000Y-48650000D03*
X73700000Y-77400000D03*
X81000000Y-87350000D03*
X76850000Y-83900000D03*
X61500000Y-88800000D03*
X63300000Y-75150000D03*
X64300000Y-70600000D03*
X72650000Y-55250000D03*
X78300000Y-83900000D03*
X87800000Y-84700000D03*
X93000000Y-84700000D03*
X57500000Y-66950000D03*
X49800000Y-69800000D03*
X84737500Y-84212500D03*
X75499992Y-89700008D03*
D12*
X65050000Y-56800000D03*
X64000000Y-56775000D03*
X62975000Y-56750000D03*
X63775000Y-57775000D03*
X64850000Y-57800000D03*
D11*
X61000000Y-44650000D03*
X58850000Y-49800000D03*
D12*
X61000000Y-56525000D03*
X50000000Y-73100000D03*
X61000000Y-74900000D03*
X48850000Y-68900000D03*
X61600000Y-68154510D03*
X60100000Y-56125000D03*
D11*
X51400000Y-52500000D03*
D12*
X59650000Y-54000000D03*
X59825000Y-55000000D03*
D11*
X52200000Y-74850000D03*
X60000000Y-81750000D03*
X73250000Y-97000000D03*
X59300000Y-75250000D03*
X67325002Y-75375002D03*
X72800000Y-87750000D03*
X81100000Y-90800000D03*
X88400000Y-63400000D03*
X55999992Y-65500000D03*
X82500000Y-88500000D03*
X77700000Y-86700000D03*
X87500000Y-81500000D03*
X80000000Y-82000000D03*
X54750000Y-66150000D03*
X81550000Y-59200000D03*
X53950000Y-65650000D03*
X80400000Y-58550000D03*
X55500000Y-68500000D03*
X74502843Y-62547990D03*
X83000000Y-71400000D03*
X57224974Y-68275000D03*
X56500000Y-69500000D03*
X76500000Y-64100000D03*
X54550000Y-67800000D03*
X50150000Y-62350000D03*
D13*
X75700000Y-86500000D02*
X78300000Y-83900000D01*
D14*
X52650000Y-66950000D02*
X49800000Y-69800000D01*
X57500000Y-66950000D02*
X52650000Y-66950000D01*
X75700000Y-86500000D02*
X75700000Y-89500000D01*
X75700000Y-89500000D02*
X75499992Y-89700008D01*
D15*
X59200000Y-73100000D02*
X61000000Y-74900000D01*
X50000000Y-73100000D02*
X59200000Y-73100000D01*
X48850000Y-71950000D02*
X48850000Y-68900000D01*
X50000000Y-73100000D02*
X48850000Y-71950000D01*
X61100000Y-56400000D02*
X61100000Y-56850000D01*
X61000000Y-74900000D02*
X61600000Y-74300000D01*
X61100000Y-67654510D02*
X61600000Y-68154510D01*
X61100000Y-56850000D02*
X61100000Y-67654510D01*
X61600000Y-74300000D02*
X61600000Y-68154510D01*
X61100000Y-56400000D02*
X60000020Y-56400000D01*
X60450020Y-56850000D02*
X60000020Y-56400000D01*
X61100000Y-56850000D02*
X60450020Y-56850000D01*
D14*
X55300000Y-56400000D02*
X51400000Y-52500000D01*
X60000020Y-56400000D02*
X55300000Y-56400000D01*
D16*
X61973000Y-57250000D02*
X61978622Y-57326770D01*
X62003617Y-57427011D01*
X65020539Y-65887229D01*
X65016110Y-70183175D01*
X64942372Y-70072819D01*
X64827181Y-69957628D01*
X64691731Y-69867123D01*
X64541227Y-69804782D01*
X64381452Y-69773000D01*
X64218548Y-69773000D01*
X64058773Y-69804782D01*
X63908269Y-69867123D01*
X63772819Y-69957628D01*
X63657628Y-70072819D01*
X63567123Y-70208269D01*
X63504782Y-70358773D01*
X63473000Y-70518548D01*
X63473000Y-70681452D01*
X63504782Y-70841227D01*
X63567123Y-70991731D01*
X63657628Y-71127181D01*
X63772819Y-71242372D01*
X63908269Y-71332877D01*
X64058773Y-71395218D01*
X64218548Y-71427000D01*
X64381452Y-71427000D01*
X64541227Y-71395218D01*
X64691731Y-71332877D01*
X64827181Y-71242372D01*
X64942372Y-71127181D01*
X65015249Y-71018113D01*
X65010630Y-75498534D01*
X64049088Y-75502594D01*
X64095218Y-75391227D01*
X64127000Y-75231452D01*
X64127000Y-75068548D01*
X64095218Y-74908773D01*
X64032877Y-74758269D01*
X63942372Y-74622819D01*
X63827181Y-74507628D01*
X63691731Y-74417123D01*
X63541227Y-74354782D01*
X63381452Y-74323000D01*
X63218548Y-74323000D01*
X63058773Y-74354782D01*
X62908269Y-74417123D01*
X62772819Y-74507628D01*
X62657628Y-74622819D01*
X62567123Y-74758269D01*
X62504782Y-74908773D01*
X62473000Y-75068548D01*
X62473000Y-75231452D01*
X62504782Y-75391227D01*
X62553528Y-75508909D01*
X60083574Y-75519338D01*
X60095218Y-75491227D01*
X60127000Y-75331452D01*
X60127000Y-75168548D01*
X60095218Y-75008773D01*
X60032877Y-74858269D01*
X59942372Y-74722819D01*
X59827181Y-74607628D01*
X59691731Y-74517123D01*
X59541227Y-74454782D01*
X59381452Y-74423000D01*
X59218548Y-74423000D01*
X59058773Y-74454782D01*
X58908269Y-74517123D01*
X58772819Y-74607628D01*
X58657628Y-74722819D01*
X58567123Y-74858269D01*
X58504782Y-75008773D01*
X58473000Y-75168548D01*
X58473000Y-75331452D01*
X58504782Y-75491227D01*
X58519162Y-75525944D01*
X52639784Y-75550769D01*
X52727181Y-75492372D01*
X52842372Y-75377181D01*
X52932877Y-75241731D01*
X52995218Y-75091227D01*
X53027000Y-74931452D01*
X53027000Y-74768548D01*
X52995218Y-74608773D01*
X52932877Y-74458269D01*
X52842372Y-74322819D01*
X52727181Y-74207628D01*
X52591731Y-74117123D01*
X52441227Y-74054782D01*
X52281452Y-74023000D01*
X52118548Y-74023000D01*
X51958773Y-74054782D01*
X51808269Y-74117123D01*
X51672819Y-74207628D01*
X51557628Y-74322819D01*
X51467123Y-74458269D01*
X51404782Y-74608773D01*
X51373000Y-74768548D01*
X51373000Y-74931452D01*
X51404782Y-75091227D01*
X51467123Y-75241731D01*
X51557628Y-75377181D01*
X51672819Y-75492372D01*
X51765739Y-75554459D01*
X47502132Y-75572462D01*
X47505404Y-72398511D01*
X47580928Y-72348048D01*
X47710048Y-72218928D01*
X47811496Y-72067099D01*
X47881376Y-71898396D01*
X47917000Y-71719301D01*
X47917000Y-71536699D01*
X49111000Y-71536699D01*
X49111000Y-71719301D01*
X49146624Y-71898396D01*
X49216504Y-72067099D01*
X49317952Y-72218928D01*
X49447072Y-72348048D01*
X49598901Y-72449496D01*
X49767604Y-72519376D01*
X49946699Y-72555000D01*
X50129301Y-72555000D01*
X50308396Y-72519376D01*
X50477099Y-72449496D01*
X50628928Y-72348048D01*
X50758048Y-72218928D01*
X50859496Y-72067099D01*
X50929376Y-71898396D01*
X50965000Y-71719301D01*
X50965000Y-71536699D01*
X50929376Y-71357604D01*
X50859496Y-71188901D01*
X50758048Y-71037072D01*
X50628928Y-70907952D01*
X50477099Y-70806504D01*
X50308396Y-70736624D01*
X50129301Y-70701000D01*
X49946699Y-70701000D01*
X49767604Y-70736624D01*
X49598901Y-70806504D01*
X49447072Y-70907952D01*
X49317952Y-71037072D01*
X49216504Y-71188901D01*
X49146624Y-71357604D01*
X49111000Y-71536699D01*
X47917000Y-71536699D01*
X47881376Y-71357604D01*
X47811496Y-71188901D01*
X47710048Y-71037072D01*
X47580928Y-70907952D01*
X47506992Y-70858550D01*
X47508167Y-69718548D01*
X48973000Y-69718548D01*
X48973000Y-69881452D01*
X49004782Y-70041227D01*
X49067123Y-70191731D01*
X49157628Y-70327181D01*
X49272819Y-70442372D01*
X49408269Y-70532877D01*
X49558773Y-70595218D01*
X49718548Y-70627000D01*
X49881452Y-70627000D01*
X50041227Y-70595218D01*
X50191731Y-70532877D01*
X50327181Y-70442372D01*
X50442372Y-70327181D01*
X50532877Y-70191731D01*
X50595218Y-70041227D01*
X50623619Y-69898447D01*
X52920067Y-67602000D01*
X53746183Y-67602000D01*
X53723000Y-67718548D01*
X53723000Y-67881452D01*
X53754782Y-68041227D01*
X53817123Y-68191731D01*
X53907628Y-68327181D01*
X54022819Y-68442372D01*
X54158269Y-68532877D01*
X54308773Y-68595218D01*
X54468548Y-68627000D01*
X54631452Y-68627000D01*
X54680134Y-68617316D01*
X54704782Y-68741227D01*
X54767123Y-68891731D01*
X54857628Y-69027181D01*
X54972819Y-69142372D01*
X55108269Y-69232877D01*
X55258773Y-69295218D01*
X55418548Y-69327000D01*
X55581452Y-69327000D01*
X55695732Y-69304268D01*
X55673000Y-69418548D01*
X55673000Y-69581452D01*
X55704782Y-69741227D01*
X55767123Y-69891731D01*
X55857628Y-70027181D01*
X55972819Y-70142372D01*
X56108269Y-70232877D01*
X56258773Y-70295218D01*
X56418548Y-70327000D01*
X56581452Y-70327000D01*
X56741227Y-70295218D01*
X56891731Y-70232877D01*
X57027181Y-70142372D01*
X57142372Y-70027181D01*
X57232877Y-69891731D01*
X57295218Y-69741227D01*
X57327000Y-69581452D01*
X57327000Y-69418548D01*
X57295218Y-69258773D01*
X57232877Y-69108269D01*
X57228688Y-69102000D01*
X57306426Y-69102000D01*
X57466201Y-69070218D01*
X57616705Y-69007877D01*
X57752155Y-68917372D01*
X57867346Y-68802181D01*
X57957851Y-68666731D01*
X58020192Y-68516227D01*
X58051974Y-68356452D01*
X58051974Y-68193548D01*
X58020192Y-68033773D01*
X57957851Y-67883269D01*
X57867346Y-67747819D01*
X57828567Y-67709040D01*
X57891731Y-67682877D01*
X58027181Y-67592372D01*
X58142372Y-67477181D01*
X58232877Y-67341731D01*
X58295218Y-67191227D01*
X58327000Y-67031452D01*
X58327000Y-66868548D01*
X58295218Y-66708773D01*
X58232877Y-66558269D01*
X58142372Y-66422819D01*
X58027181Y-66307628D01*
X57891731Y-66217123D01*
X57741227Y-66154782D01*
X57581452Y-66123000D01*
X57418548Y-66123000D01*
X57258773Y-66154782D01*
X57108269Y-66217123D01*
X56987228Y-66298000D01*
X56227233Y-66298000D01*
X56241219Y-66295218D01*
X56391723Y-66232877D01*
X56527173Y-66142372D01*
X56642364Y-66027181D01*
X56732869Y-65891731D01*
X56795210Y-65741227D01*
X56826992Y-65581452D01*
X56826992Y-65418548D01*
X56795210Y-65258773D01*
X56732869Y-65108269D01*
X56642364Y-64972819D01*
X56527173Y-64857628D01*
X56391723Y-64767123D01*
X56241219Y-64704782D01*
X56081444Y-64673000D01*
X55918540Y-64673000D01*
X55758765Y-64704782D01*
X55608261Y-64767123D01*
X55472811Y-64857628D01*
X55357620Y-64972819D01*
X55267115Y-65108269D01*
X55204774Y-65258773D01*
X55172992Y-65418548D01*
X55172992Y-65438011D01*
X55141731Y-65417123D01*
X54991227Y-65354782D01*
X54831452Y-65323000D01*
X54709690Y-65323000D01*
X54682877Y-65258269D01*
X54592372Y-65122819D01*
X54477181Y-65007628D01*
X54341731Y-64917123D01*
X54191227Y-64854782D01*
X54031452Y-64823000D01*
X53868548Y-64823000D01*
X53708773Y-64854782D01*
X53558269Y-64917123D01*
X53422819Y-65007628D01*
X53307628Y-65122819D01*
X53217123Y-65258269D01*
X53154782Y-65408773D01*
X53123000Y-65568548D01*
X53123000Y-65731452D01*
X53154782Y-65891227D01*
X53217123Y-66041731D01*
X53307628Y-66177181D01*
X53422819Y-66292372D01*
X53431242Y-66298000D01*
X52682022Y-66298000D01*
X52650000Y-66294846D01*
X52522185Y-66307435D01*
X52399283Y-66344717D01*
X52286016Y-66405259D01*
X52186736Y-66486736D01*
X52166320Y-66511613D01*
X49701553Y-68976381D01*
X49558773Y-69004782D01*
X49408269Y-69067123D01*
X49272819Y-69157628D01*
X49157628Y-69272819D01*
X49067123Y-69408269D01*
X49004782Y-69558773D01*
X48973000Y-69718548D01*
X47508167Y-69718548D01*
X47513888Y-64168548D01*
X48198000Y-64168548D01*
X48198000Y-64331452D01*
X48229782Y-64491227D01*
X48292123Y-64641731D01*
X48382628Y-64777181D01*
X48497819Y-64892372D01*
X48633269Y-64982877D01*
X48783773Y-65045218D01*
X48943548Y-65077000D01*
X49106452Y-65077000D01*
X49266227Y-65045218D01*
X49416731Y-64982877D01*
X49552181Y-64892372D01*
X49667372Y-64777181D01*
X49757877Y-64641731D01*
X49820218Y-64491227D01*
X49852000Y-64331452D01*
X49852000Y-64168548D01*
X49820218Y-64008773D01*
X49757877Y-63858269D01*
X49667372Y-63722819D01*
X49552181Y-63607628D01*
X49416731Y-63517123D01*
X49266227Y-63454782D01*
X49106452Y-63423000D01*
X48943548Y-63423000D01*
X48783773Y-63454782D01*
X48633269Y-63517123D01*
X48497819Y-63607628D01*
X48382628Y-63722819D01*
X48292123Y-63858269D01*
X48229782Y-64008773D01*
X48198000Y-64168548D01*
X47513888Y-64168548D01*
X47515846Y-62268548D01*
X49323000Y-62268548D01*
X49323000Y-62431452D01*
X49354782Y-62591227D01*
X49417123Y-62741731D01*
X49507628Y-62877181D01*
X49622819Y-62992372D01*
X49758269Y-63082877D01*
X49908773Y-63145218D01*
X50068548Y-63177000D01*
X50231452Y-63177000D01*
X50391227Y-63145218D01*
X50541731Y-63082877D01*
X50677181Y-62992372D01*
X50792372Y-62877181D01*
X50882877Y-62741731D01*
X50945218Y-62591227D01*
X50977000Y-62431452D01*
X50977000Y-62268548D01*
X50945218Y-62108773D01*
X50882877Y-61958269D01*
X50792372Y-61822819D01*
X50677181Y-61707628D01*
X50541731Y-61617123D01*
X50391227Y-61554782D01*
X50231452Y-61523000D01*
X50068548Y-61523000D01*
X49908773Y-61554782D01*
X49758269Y-61617123D01*
X49622819Y-61707628D01*
X49507628Y-61822819D01*
X49417123Y-61958269D01*
X49354782Y-62108773D01*
X49323000Y-62268548D01*
X47515846Y-62268548D01*
X47517933Y-60243548D01*
X54923000Y-60243548D01*
X54923000Y-60406452D01*
X54954782Y-60566227D01*
X55017123Y-60716731D01*
X55107628Y-60852181D01*
X55222819Y-60967372D01*
X55358269Y-61057877D01*
X55508773Y-61120218D01*
X55668548Y-61152000D01*
X55831452Y-61152000D01*
X55991227Y-61120218D01*
X56141731Y-61057877D01*
X56277181Y-60967372D01*
X56392372Y-60852181D01*
X56482877Y-60716731D01*
X56545218Y-60566227D01*
X56577000Y-60406452D01*
X56577000Y-60243548D01*
X56545218Y-60083773D01*
X56482877Y-59933269D01*
X56392372Y-59797819D01*
X56277181Y-59682628D01*
X56141731Y-59592123D01*
X55991227Y-59529782D01*
X55831452Y-59498000D01*
X55668548Y-59498000D01*
X55508773Y-59529782D01*
X55358269Y-59592123D01*
X55222819Y-59682628D01*
X55107628Y-59797819D01*
X55017123Y-59933269D01*
X54954782Y-60083773D01*
X54923000Y-60243548D01*
X47517933Y-60243548D01*
X47521645Y-56643548D01*
X50823000Y-56643548D01*
X50823000Y-56806452D01*
X50854782Y-56966227D01*
X50917123Y-57116731D01*
X51007628Y-57252181D01*
X51122819Y-57367372D01*
X51258269Y-57457877D01*
X51408773Y-57520218D01*
X51568548Y-57552000D01*
X51731452Y-57552000D01*
X51891227Y-57520218D01*
X52041731Y-57457877D01*
X52177181Y-57367372D01*
X52292372Y-57252181D01*
X52382877Y-57116731D01*
X52445218Y-56966227D01*
X52477000Y-56806452D01*
X52477000Y-56643548D01*
X52445218Y-56483773D01*
X52382877Y-56333269D01*
X52292372Y-56197819D01*
X52177181Y-56082628D01*
X52041731Y-55992123D01*
X51891227Y-55929782D01*
X51731452Y-55898000D01*
X51568548Y-55898000D01*
X51408773Y-55929782D01*
X51258269Y-55992123D01*
X51122819Y-56082628D01*
X51007628Y-56197819D01*
X50917123Y-56333269D01*
X50854782Y-56483773D01*
X50823000Y-56643548D01*
X47521645Y-56643548D01*
X47526870Y-51576466D01*
X52141462Y-51556981D01*
X52233773Y-51595218D01*
X52393548Y-51627000D01*
X52556452Y-51627000D01*
X52716227Y-51595218D01*
X52815408Y-51554136D01*
X54180084Y-51548373D01*
X54182628Y-51552181D01*
X54297819Y-51667372D01*
X54433269Y-51757877D01*
X54583773Y-51820218D01*
X54743548Y-51852000D01*
X54906452Y-51852000D01*
X55066227Y-51820218D01*
X55216731Y-51757877D01*
X55352181Y-51667372D01*
X55467372Y-51552181D01*
X55473565Y-51542912D01*
X61973000Y-51515469D01*
X61973000Y-57250000D01*
G04 #@! TA.AperFunction,Conductor*
D17*
G36*
X61973000Y-57250000D02*
G01*
X61978622Y-57326770D01*
X62003617Y-57427011D01*
X65020539Y-65887229D01*
X65016110Y-70183175D01*
X64942372Y-70072819D01*
X64827181Y-69957628D01*
X64691731Y-69867123D01*
X64541227Y-69804782D01*
X64381452Y-69773000D01*
X64218548Y-69773000D01*
X64058773Y-69804782D01*
X63908269Y-69867123D01*
X63772819Y-69957628D01*
X63657628Y-70072819D01*
X63567123Y-70208269D01*
X63504782Y-70358773D01*
X63473000Y-70518548D01*
X63473000Y-70681452D01*
X63504782Y-70841227D01*
X63567123Y-70991731D01*
X63657628Y-71127181D01*
X63772819Y-71242372D01*
X63908269Y-71332877D01*
X64058773Y-71395218D01*
X64218548Y-71427000D01*
X64381452Y-71427000D01*
X64541227Y-71395218D01*
X64691731Y-71332877D01*
X64827181Y-71242372D01*
X64942372Y-71127181D01*
X65015249Y-71018113D01*
X65010630Y-75498534D01*
X64049088Y-75502594D01*
X64095218Y-75391227D01*
X64127000Y-75231452D01*
X64127000Y-75068548D01*
X64095218Y-74908773D01*
X64032877Y-74758269D01*
X63942372Y-74622819D01*
X63827181Y-74507628D01*
X63691731Y-74417123D01*
X63541227Y-74354782D01*
X63381452Y-74323000D01*
X63218548Y-74323000D01*
X63058773Y-74354782D01*
X62908269Y-74417123D01*
X62772819Y-74507628D01*
X62657628Y-74622819D01*
X62567123Y-74758269D01*
X62504782Y-74908773D01*
X62473000Y-75068548D01*
X62473000Y-75231452D01*
X62504782Y-75391227D01*
X62553528Y-75508909D01*
X60083574Y-75519338D01*
X60095218Y-75491227D01*
X60127000Y-75331452D01*
X60127000Y-75168548D01*
X60095218Y-75008773D01*
X60032877Y-74858269D01*
X59942372Y-74722819D01*
X59827181Y-74607628D01*
X59691731Y-74517123D01*
X59541227Y-74454782D01*
X59381452Y-74423000D01*
X59218548Y-74423000D01*
X59058773Y-74454782D01*
X58908269Y-74517123D01*
X58772819Y-74607628D01*
X58657628Y-74722819D01*
X58567123Y-74858269D01*
X58504782Y-75008773D01*
X58473000Y-75168548D01*
X58473000Y-75331452D01*
X58504782Y-75491227D01*
X58519162Y-75525944D01*
X52639784Y-75550769D01*
X52727181Y-75492372D01*
X52842372Y-75377181D01*
X52932877Y-75241731D01*
X52995218Y-75091227D01*
X53027000Y-74931452D01*
X53027000Y-74768548D01*
X52995218Y-74608773D01*
X52932877Y-74458269D01*
X52842372Y-74322819D01*
X52727181Y-74207628D01*
X52591731Y-74117123D01*
X52441227Y-74054782D01*
X52281452Y-74023000D01*
X52118548Y-74023000D01*
X51958773Y-74054782D01*
X51808269Y-74117123D01*
X51672819Y-74207628D01*
X51557628Y-74322819D01*
X51467123Y-74458269D01*
X51404782Y-74608773D01*
X51373000Y-74768548D01*
X51373000Y-74931452D01*
X51404782Y-75091227D01*
X51467123Y-75241731D01*
X51557628Y-75377181D01*
X51672819Y-75492372D01*
X51765739Y-75554459D01*
X47502132Y-75572462D01*
X47505404Y-72398511D01*
X47580928Y-72348048D01*
X47710048Y-72218928D01*
X47811496Y-72067099D01*
X47881376Y-71898396D01*
X47917000Y-71719301D01*
X47917000Y-71536699D01*
X49111000Y-71536699D01*
X49111000Y-71719301D01*
X49146624Y-71898396D01*
X49216504Y-72067099D01*
X49317952Y-72218928D01*
X49447072Y-72348048D01*
X49598901Y-72449496D01*
X49767604Y-72519376D01*
X49946699Y-72555000D01*
X50129301Y-72555000D01*
X50308396Y-72519376D01*
X50477099Y-72449496D01*
X50628928Y-72348048D01*
X50758048Y-72218928D01*
X50859496Y-72067099D01*
X50929376Y-71898396D01*
X50965000Y-71719301D01*
X50965000Y-71536699D01*
X50929376Y-71357604D01*
X50859496Y-71188901D01*
X50758048Y-71037072D01*
X50628928Y-70907952D01*
X50477099Y-70806504D01*
X50308396Y-70736624D01*
X50129301Y-70701000D01*
X49946699Y-70701000D01*
X49767604Y-70736624D01*
X49598901Y-70806504D01*
X49447072Y-70907952D01*
X49317952Y-71037072D01*
X49216504Y-71188901D01*
X49146624Y-71357604D01*
X49111000Y-71536699D01*
X47917000Y-71536699D01*
X47881376Y-71357604D01*
X47811496Y-71188901D01*
X47710048Y-71037072D01*
X47580928Y-70907952D01*
X47506992Y-70858550D01*
X47508167Y-69718548D01*
X48973000Y-69718548D01*
X48973000Y-69881452D01*
X49004782Y-70041227D01*
X49067123Y-70191731D01*
X49157628Y-70327181D01*
X49272819Y-70442372D01*
X49408269Y-70532877D01*
X49558773Y-70595218D01*
X49718548Y-70627000D01*
X49881452Y-70627000D01*
X50041227Y-70595218D01*
X50191731Y-70532877D01*
X50327181Y-70442372D01*
X50442372Y-70327181D01*
X50532877Y-70191731D01*
X50595218Y-70041227D01*
X50623619Y-69898447D01*
X52920067Y-67602000D01*
X53746183Y-67602000D01*
X53723000Y-67718548D01*
X53723000Y-67881452D01*
X53754782Y-68041227D01*
X53817123Y-68191731D01*
X53907628Y-68327181D01*
X54022819Y-68442372D01*
X54158269Y-68532877D01*
X54308773Y-68595218D01*
X54468548Y-68627000D01*
X54631452Y-68627000D01*
X54680134Y-68617316D01*
X54704782Y-68741227D01*
X54767123Y-68891731D01*
X54857628Y-69027181D01*
X54972819Y-69142372D01*
X55108269Y-69232877D01*
X55258773Y-69295218D01*
X55418548Y-69327000D01*
X55581452Y-69327000D01*
X55695732Y-69304268D01*
X55673000Y-69418548D01*
X55673000Y-69581452D01*
X55704782Y-69741227D01*
X55767123Y-69891731D01*
X55857628Y-70027181D01*
X55972819Y-70142372D01*
X56108269Y-70232877D01*
X56258773Y-70295218D01*
X56418548Y-70327000D01*
X56581452Y-70327000D01*
X56741227Y-70295218D01*
X56891731Y-70232877D01*
X57027181Y-70142372D01*
X57142372Y-70027181D01*
X57232877Y-69891731D01*
X57295218Y-69741227D01*
X57327000Y-69581452D01*
X57327000Y-69418548D01*
X57295218Y-69258773D01*
X57232877Y-69108269D01*
X57228688Y-69102000D01*
X57306426Y-69102000D01*
X57466201Y-69070218D01*
X57616705Y-69007877D01*
X57752155Y-68917372D01*
X57867346Y-68802181D01*
X57957851Y-68666731D01*
X58020192Y-68516227D01*
X58051974Y-68356452D01*
X58051974Y-68193548D01*
X58020192Y-68033773D01*
X57957851Y-67883269D01*
X57867346Y-67747819D01*
X57828567Y-67709040D01*
X57891731Y-67682877D01*
X58027181Y-67592372D01*
X58142372Y-67477181D01*
X58232877Y-67341731D01*
X58295218Y-67191227D01*
X58327000Y-67031452D01*
X58327000Y-66868548D01*
X58295218Y-66708773D01*
X58232877Y-66558269D01*
X58142372Y-66422819D01*
X58027181Y-66307628D01*
X57891731Y-66217123D01*
X57741227Y-66154782D01*
X57581452Y-66123000D01*
X57418548Y-66123000D01*
X57258773Y-66154782D01*
X57108269Y-66217123D01*
X56987228Y-66298000D01*
X56227233Y-66298000D01*
X56241219Y-66295218D01*
X56391723Y-66232877D01*
X56527173Y-66142372D01*
X56642364Y-66027181D01*
X56732869Y-65891731D01*
X56795210Y-65741227D01*
X56826992Y-65581452D01*
X56826992Y-65418548D01*
X56795210Y-65258773D01*
X56732869Y-65108269D01*
X56642364Y-64972819D01*
X56527173Y-64857628D01*
X56391723Y-64767123D01*
X56241219Y-64704782D01*
X56081444Y-64673000D01*
X55918540Y-64673000D01*
X55758765Y-64704782D01*
X55608261Y-64767123D01*
X55472811Y-64857628D01*
X55357620Y-64972819D01*
X55267115Y-65108269D01*
X55204774Y-65258773D01*
X55172992Y-65418548D01*
X55172992Y-65438011D01*
X55141731Y-65417123D01*
X54991227Y-65354782D01*
X54831452Y-65323000D01*
X54709690Y-65323000D01*
X54682877Y-65258269D01*
X54592372Y-65122819D01*
X54477181Y-65007628D01*
X54341731Y-64917123D01*
X54191227Y-64854782D01*
X54031452Y-64823000D01*
X53868548Y-64823000D01*
X53708773Y-64854782D01*
X53558269Y-64917123D01*
X53422819Y-65007628D01*
X53307628Y-65122819D01*
X53217123Y-65258269D01*
X53154782Y-65408773D01*
X53123000Y-65568548D01*
X53123000Y-65731452D01*
X53154782Y-65891227D01*
X53217123Y-66041731D01*
X53307628Y-66177181D01*
X53422819Y-66292372D01*
X53431242Y-66298000D01*
X52682022Y-66298000D01*
X52650000Y-66294846D01*
X52522185Y-66307435D01*
X52399283Y-66344717D01*
X52286016Y-66405259D01*
X52186736Y-66486736D01*
X52166320Y-66511613D01*
X49701553Y-68976381D01*
X49558773Y-69004782D01*
X49408269Y-69067123D01*
X49272819Y-69157628D01*
X49157628Y-69272819D01*
X49067123Y-69408269D01*
X49004782Y-69558773D01*
X48973000Y-69718548D01*
X47508167Y-69718548D01*
X47513888Y-64168548D01*
X48198000Y-64168548D01*
X48198000Y-64331452D01*
X48229782Y-64491227D01*
X48292123Y-64641731D01*
X48382628Y-64777181D01*
X48497819Y-64892372D01*
X48633269Y-64982877D01*
X48783773Y-65045218D01*
X48943548Y-65077000D01*
X49106452Y-65077000D01*
X49266227Y-65045218D01*
X49416731Y-64982877D01*
X49552181Y-64892372D01*
X49667372Y-64777181D01*
X49757877Y-64641731D01*
X49820218Y-64491227D01*
X49852000Y-64331452D01*
X49852000Y-64168548D01*
X49820218Y-64008773D01*
X49757877Y-63858269D01*
X49667372Y-63722819D01*
X49552181Y-63607628D01*
X49416731Y-63517123D01*
X49266227Y-63454782D01*
X49106452Y-63423000D01*
X48943548Y-63423000D01*
X48783773Y-63454782D01*
X48633269Y-63517123D01*
X48497819Y-63607628D01*
X48382628Y-63722819D01*
X48292123Y-63858269D01*
X48229782Y-64008773D01*
X48198000Y-64168548D01*
X47513888Y-64168548D01*
X47515846Y-62268548D01*
X49323000Y-62268548D01*
X49323000Y-62431452D01*
X49354782Y-62591227D01*
X49417123Y-62741731D01*
X49507628Y-62877181D01*
X49622819Y-62992372D01*
X49758269Y-63082877D01*
X49908773Y-63145218D01*
X50068548Y-63177000D01*
X50231452Y-63177000D01*
X50391227Y-63145218D01*
X50541731Y-63082877D01*
X50677181Y-62992372D01*
X50792372Y-62877181D01*
X50882877Y-62741731D01*
X50945218Y-62591227D01*
X50977000Y-62431452D01*
X50977000Y-62268548D01*
X50945218Y-62108773D01*
X50882877Y-61958269D01*
X50792372Y-61822819D01*
X50677181Y-61707628D01*
X50541731Y-61617123D01*
X50391227Y-61554782D01*
X50231452Y-61523000D01*
X50068548Y-61523000D01*
X49908773Y-61554782D01*
X49758269Y-61617123D01*
X49622819Y-61707628D01*
X49507628Y-61822819D01*
X49417123Y-61958269D01*
X49354782Y-62108773D01*
X49323000Y-62268548D01*
X47515846Y-62268548D01*
X47517933Y-60243548D01*
X54923000Y-60243548D01*
X54923000Y-60406452D01*
X54954782Y-60566227D01*
X55017123Y-60716731D01*
X55107628Y-60852181D01*
X55222819Y-60967372D01*
X55358269Y-61057877D01*
X55508773Y-61120218D01*
X55668548Y-61152000D01*
X55831452Y-61152000D01*
X55991227Y-61120218D01*
X56141731Y-61057877D01*
X56277181Y-60967372D01*
X56392372Y-60852181D01*
X56482877Y-60716731D01*
X56545218Y-60566227D01*
X56577000Y-60406452D01*
X56577000Y-60243548D01*
X56545218Y-60083773D01*
X56482877Y-59933269D01*
X56392372Y-59797819D01*
X56277181Y-59682628D01*
X56141731Y-59592123D01*
X55991227Y-59529782D01*
X55831452Y-59498000D01*
X55668548Y-59498000D01*
X55508773Y-59529782D01*
X55358269Y-59592123D01*
X55222819Y-59682628D01*
X55107628Y-59797819D01*
X55017123Y-59933269D01*
X54954782Y-60083773D01*
X54923000Y-60243548D01*
X47517933Y-60243548D01*
X47521645Y-56643548D01*
X50823000Y-56643548D01*
X50823000Y-56806452D01*
X50854782Y-56966227D01*
X50917123Y-57116731D01*
X51007628Y-57252181D01*
X51122819Y-57367372D01*
X51258269Y-57457877D01*
X51408773Y-57520218D01*
X51568548Y-57552000D01*
X51731452Y-57552000D01*
X51891227Y-57520218D01*
X52041731Y-57457877D01*
X52177181Y-57367372D01*
X52292372Y-57252181D01*
X52382877Y-57116731D01*
X52445218Y-56966227D01*
X52477000Y-56806452D01*
X52477000Y-56643548D01*
X52445218Y-56483773D01*
X52382877Y-56333269D01*
X52292372Y-56197819D01*
X52177181Y-56082628D01*
X52041731Y-55992123D01*
X51891227Y-55929782D01*
X51731452Y-55898000D01*
X51568548Y-55898000D01*
X51408773Y-55929782D01*
X51258269Y-55992123D01*
X51122819Y-56082628D01*
X51007628Y-56197819D01*
X50917123Y-56333269D01*
X50854782Y-56483773D01*
X50823000Y-56643548D01*
X47521645Y-56643548D01*
X47526870Y-51576466D01*
X52141462Y-51556981D01*
X52233773Y-51595218D01*
X52393548Y-51627000D01*
X52556452Y-51627000D01*
X52716227Y-51595218D01*
X52815408Y-51554136D01*
X54180084Y-51548373D01*
X54182628Y-51552181D01*
X54297819Y-51667372D01*
X54433269Y-51757877D01*
X54583773Y-51820218D01*
X54743548Y-51852000D01*
X54906452Y-51852000D01*
X55066227Y-51820218D01*
X55216731Y-51757877D01*
X55352181Y-51667372D01*
X55467372Y-51552181D01*
X55473565Y-51542912D01*
X61973000Y-51515469D01*
X61973000Y-57250000D01*
G37*
G04 #@! TD.AperFunction*
D16*
X88673000Y-81028897D02*
X88673000Y-90073000D01*
X81500527Y-90073000D01*
X81491731Y-90067123D01*
X81341227Y-90004782D01*
X81181452Y-89973000D01*
X81018548Y-89973000D01*
X80858773Y-90004782D01*
X80708269Y-90067123D01*
X80699473Y-90073000D01*
X74339545Y-90073000D01*
X73749567Y-88418548D01*
X81673000Y-88418548D01*
X81673000Y-88581452D01*
X81704782Y-88741227D01*
X81767123Y-88891731D01*
X81857628Y-89027181D01*
X81972819Y-89142372D01*
X82108269Y-89232877D01*
X82258773Y-89295218D01*
X82418548Y-89327000D01*
X82581452Y-89327000D01*
X82741227Y-89295218D01*
X82891731Y-89232877D01*
X83027181Y-89142372D01*
X83142372Y-89027181D01*
X83232877Y-88891731D01*
X83295218Y-88741227D01*
X83327000Y-88581452D01*
X83327000Y-88418548D01*
X83295218Y-88258773D01*
X83232877Y-88108269D01*
X83142372Y-87972819D01*
X83027181Y-87857628D01*
X82891731Y-87767123D01*
X82741227Y-87704782D01*
X82581452Y-87673000D01*
X82418548Y-87673000D01*
X82258773Y-87704782D01*
X82108269Y-87767123D01*
X81972819Y-87857628D01*
X81857628Y-87972819D01*
X81767123Y-88108269D01*
X81704782Y-88258773D01*
X81673000Y-88418548D01*
X73749567Y-88418548D01*
X73595922Y-87987690D01*
X73627000Y-87831452D01*
X73627000Y-87668548D01*
X73595218Y-87508773D01*
X73532877Y-87358269D01*
X73442372Y-87222819D01*
X73327181Y-87107628D01*
X73267986Y-87068075D01*
X73107685Y-86618548D01*
X76873000Y-86618548D01*
X76873000Y-86781452D01*
X76904782Y-86941227D01*
X76967123Y-87091731D01*
X77057628Y-87227181D01*
X77172819Y-87342372D01*
X77308269Y-87432877D01*
X77458773Y-87495218D01*
X77618548Y-87527000D01*
X77781452Y-87527000D01*
X77941227Y-87495218D01*
X78091731Y-87432877D01*
X78227181Y-87342372D01*
X78301005Y-87268548D01*
X80173000Y-87268548D01*
X80173000Y-87431452D01*
X80204782Y-87591227D01*
X80267123Y-87741731D01*
X80357628Y-87877181D01*
X80472819Y-87992372D01*
X80608269Y-88082877D01*
X80758773Y-88145218D01*
X80918548Y-88177000D01*
X81081452Y-88177000D01*
X81241227Y-88145218D01*
X81391731Y-88082877D01*
X81527181Y-87992372D01*
X81642372Y-87877181D01*
X81732877Y-87741731D01*
X81795218Y-87591227D01*
X81827000Y-87431452D01*
X81827000Y-87268548D01*
X81795218Y-87108773D01*
X81732877Y-86958269D01*
X81642372Y-86822819D01*
X81527181Y-86707628D01*
X81391731Y-86617123D01*
X81241227Y-86554782D01*
X81081452Y-86523000D01*
X80918548Y-86523000D01*
X80758773Y-86554782D01*
X80608269Y-86617123D01*
X80472819Y-86707628D01*
X80357628Y-86822819D01*
X80267123Y-86958269D01*
X80204782Y-87108773D01*
X80173000Y-87268548D01*
X78301005Y-87268548D01*
X78342372Y-87227181D01*
X78432877Y-87091731D01*
X78495218Y-86941227D01*
X78527000Y-86781452D01*
X78527000Y-86618548D01*
X78495218Y-86458773D01*
X78432877Y-86308269D01*
X78342372Y-86172819D01*
X78227181Y-86057628D01*
X78091731Y-85967123D01*
X77941227Y-85904782D01*
X77781452Y-85873000D01*
X77618548Y-85873000D01*
X77458773Y-85904782D01*
X77308269Y-85967123D01*
X77172819Y-86057628D01*
X77057628Y-86172819D01*
X76967123Y-86308269D01*
X76904782Y-86458773D01*
X76873000Y-86618548D01*
X73107685Y-86618548D01*
X72109202Y-83818548D01*
X76023000Y-83818548D01*
X76023000Y-83981452D01*
X76054782Y-84141227D01*
X76117123Y-84291731D01*
X76207628Y-84427181D01*
X76322819Y-84542372D01*
X76458269Y-84632877D01*
X76608773Y-84695218D01*
X76768548Y-84727000D01*
X76931452Y-84727000D01*
X77091227Y-84695218D01*
X77241731Y-84632877D01*
X77377181Y-84542372D01*
X77492372Y-84427181D01*
X77582877Y-84291731D01*
X77645218Y-84141227D01*
X77677000Y-83981452D01*
X77677000Y-83818548D01*
X77645218Y-83658773D01*
X77582877Y-83508269D01*
X77492372Y-83372819D01*
X77377181Y-83257628D01*
X77241731Y-83167123D01*
X77091227Y-83104782D01*
X76931452Y-83073000D01*
X76768548Y-83073000D01*
X76608773Y-83104782D01*
X76458269Y-83167123D01*
X76322819Y-83257628D01*
X76207628Y-83372819D01*
X76117123Y-83508269D01*
X76054782Y-83658773D01*
X76023000Y-83818548D01*
X72109202Y-83818548D01*
X71431661Y-81918548D01*
X79173000Y-81918548D01*
X79173000Y-82081452D01*
X79204782Y-82241227D01*
X79267123Y-82391731D01*
X79357628Y-82527181D01*
X79472819Y-82642372D01*
X79608269Y-82732877D01*
X79758773Y-82795218D01*
X79918548Y-82827000D01*
X80081452Y-82827000D01*
X80241227Y-82795218D01*
X80391731Y-82732877D01*
X80527181Y-82642372D01*
X80642372Y-82527181D01*
X80732877Y-82391731D01*
X80795218Y-82241227D01*
X80827000Y-82081452D01*
X80827000Y-81918548D01*
X80795218Y-81758773D01*
X80732877Y-81608269D01*
X80642372Y-81472819D01*
X80588101Y-81418548D01*
X86673000Y-81418548D01*
X86673000Y-81581452D01*
X86704782Y-81741227D01*
X86767123Y-81891731D01*
X86857628Y-82027181D01*
X86972819Y-82142372D01*
X87108269Y-82232877D01*
X87258773Y-82295218D01*
X87418548Y-82327000D01*
X87581452Y-82327000D01*
X87741227Y-82295218D01*
X87891731Y-82232877D01*
X88027181Y-82142372D01*
X88142372Y-82027181D01*
X88232877Y-81891731D01*
X88295218Y-81741227D01*
X88327000Y-81581452D01*
X88327000Y-81418548D01*
X88295218Y-81258773D01*
X88232877Y-81108269D01*
X88142372Y-80972819D01*
X88027181Y-80857628D01*
X87891731Y-80767123D01*
X87741227Y-80704782D01*
X87581452Y-80673000D01*
X87418548Y-80673000D01*
X87258773Y-80704782D01*
X87108269Y-80767123D01*
X86972819Y-80857628D01*
X86857628Y-80972819D01*
X86767123Y-81108269D01*
X86704782Y-81258773D01*
X86673000Y-81418548D01*
X80588101Y-81418548D01*
X80527181Y-81357628D01*
X80391731Y-81267123D01*
X80241227Y-81204782D01*
X80081452Y-81173000D01*
X79918548Y-81173000D01*
X79758773Y-81204782D01*
X79608269Y-81267123D01*
X79472819Y-81357628D01*
X79357628Y-81472819D01*
X79267123Y-81608269D01*
X79204782Y-81758773D01*
X79173000Y-81918548D01*
X71431661Y-81918548D01*
X70941334Y-80543548D01*
X76248000Y-80543548D01*
X76248000Y-80706452D01*
X76279782Y-80866227D01*
X76342123Y-81016731D01*
X76432628Y-81152181D01*
X76547819Y-81267372D01*
X76683269Y-81357877D01*
X76833773Y-81420218D01*
X76993548Y-81452000D01*
X77156452Y-81452000D01*
X77316227Y-81420218D01*
X77466731Y-81357877D01*
X77602181Y-81267372D01*
X77717372Y-81152181D01*
X77807877Y-81016731D01*
X77870218Y-80866227D01*
X77902000Y-80706452D01*
X77902000Y-80543548D01*
X77870218Y-80383773D01*
X77807877Y-80233269D01*
X77717372Y-80097819D01*
X77602181Y-79982628D01*
X77466731Y-79892123D01*
X77316227Y-79829782D01*
X77156452Y-79798000D01*
X76993548Y-79798000D01*
X76833773Y-79829782D01*
X76683269Y-79892123D01*
X76547819Y-79982628D01*
X76432628Y-80097819D01*
X76342123Y-80233269D01*
X76279782Y-80383773D01*
X76248000Y-80543548D01*
X70941334Y-80543548D01*
X69791296Y-77318548D01*
X72873000Y-77318548D01*
X72873000Y-77481452D01*
X72904782Y-77641227D01*
X72967123Y-77791731D01*
X73057628Y-77927181D01*
X73172819Y-78042372D01*
X73308269Y-78132877D01*
X73458773Y-78195218D01*
X73618548Y-78227000D01*
X73781452Y-78227000D01*
X73941227Y-78195218D01*
X74091731Y-78132877D01*
X74227181Y-78042372D01*
X74342372Y-77927181D01*
X74432877Y-77791731D01*
X74495218Y-77641227D01*
X74527000Y-77481452D01*
X74527000Y-77318548D01*
X74495218Y-77158773D01*
X74432877Y-77008269D01*
X74342372Y-76872819D01*
X74227181Y-76757628D01*
X74091731Y-76667123D01*
X73941227Y-76604782D01*
X73781452Y-76573000D01*
X73618548Y-76573000D01*
X73458773Y-76604782D01*
X73308269Y-76667123D01*
X73172819Y-76757628D01*
X73057628Y-76872819D01*
X72967123Y-77008269D01*
X72904782Y-77158773D01*
X72873000Y-77318548D01*
X69791296Y-77318548D01*
X68813657Y-74577000D01*
X72471664Y-74577000D01*
X72500000Y-74579791D01*
X72528336Y-74577000D01*
X72613112Y-74568650D01*
X72721876Y-74535657D01*
X72822115Y-74482079D01*
X72909974Y-74409974D01*
X72982079Y-74322115D01*
X73035657Y-74221876D01*
X73068650Y-74113112D01*
X73079791Y-74000000D01*
X73077000Y-73971664D01*
X73077000Y-71318548D01*
X82173000Y-71318548D01*
X82173000Y-71481452D01*
X82204782Y-71641227D01*
X82267123Y-71791731D01*
X82357628Y-71927181D01*
X82472819Y-72042372D01*
X82608269Y-72132877D01*
X82758773Y-72195218D01*
X82918548Y-72227000D01*
X83081452Y-72227000D01*
X83241227Y-72195218D01*
X83391731Y-72132877D01*
X83527181Y-72042372D01*
X83642372Y-71927181D01*
X83732877Y-71791731D01*
X83795218Y-71641227D01*
X83827000Y-71481452D01*
X83827000Y-71318548D01*
X83795218Y-71158773D01*
X83732877Y-71008269D01*
X83642372Y-70872819D01*
X83527181Y-70757628D01*
X83391731Y-70667123D01*
X83241227Y-70604782D01*
X83081452Y-70573000D01*
X82918548Y-70573000D01*
X82758773Y-70604782D01*
X82608269Y-70667123D01*
X82472819Y-70757628D01*
X82357628Y-70872819D01*
X82267123Y-71008269D01*
X82204782Y-71158773D01*
X82173000Y-71318548D01*
X73077000Y-71318548D01*
X73077000Y-65528336D01*
X73079791Y-65500000D01*
X73068650Y-65386888D01*
X73035657Y-65278124D01*
X72982079Y-65177885D01*
X72909974Y-65090026D01*
X72822115Y-65017921D01*
X72721876Y-64964343D01*
X72613112Y-64931350D01*
X72528336Y-64923000D01*
X72500000Y-64920209D01*
X72471664Y-64923000D01*
X67028336Y-64923000D01*
X67000000Y-64920209D01*
X66971664Y-64923000D01*
X66886888Y-64931350D01*
X66778124Y-64964343D01*
X66677885Y-65017921D01*
X66590026Y-65090026D01*
X66517921Y-65177885D01*
X66464343Y-65278124D01*
X66431350Y-65386888D01*
X66420209Y-65500000D01*
X66423000Y-65528336D01*
X66423000Y-67872987D01*
X65048504Y-64018548D01*
X75673000Y-64018548D01*
X75673000Y-64181452D01*
X75704782Y-64341227D01*
X75767123Y-64491731D01*
X75857628Y-64627181D01*
X75972819Y-64742372D01*
X76108269Y-64832877D01*
X76258773Y-64895218D01*
X76418548Y-64927000D01*
X76581452Y-64927000D01*
X76741227Y-64895218D01*
X76891731Y-64832877D01*
X77027181Y-64742372D01*
X77142372Y-64627181D01*
X77232877Y-64491731D01*
X77295218Y-64341227D01*
X77327000Y-64181452D01*
X77327000Y-64018548D01*
X77295218Y-63858773D01*
X77232877Y-63708269D01*
X77142372Y-63572819D01*
X77027181Y-63457628D01*
X76891731Y-63367123D01*
X76741227Y-63304782D01*
X76581452Y-63273000D01*
X76418548Y-63273000D01*
X76258773Y-63304782D01*
X76108269Y-63367123D01*
X75972819Y-63457628D01*
X75857628Y-63572819D01*
X75767123Y-63708269D01*
X75704782Y-63858773D01*
X75673000Y-64018548D01*
X65048504Y-64018548D01*
X64495056Y-62466538D01*
X73675843Y-62466538D01*
X73675843Y-62629442D01*
X73707625Y-62789217D01*
X73769966Y-62939721D01*
X73860471Y-63075171D01*
X73975662Y-63190362D01*
X74111112Y-63280867D01*
X74261616Y-63343208D01*
X74421391Y-63374990D01*
X74584295Y-63374990D01*
X74744070Y-63343208D01*
X74894574Y-63280867D01*
X75030024Y-63190362D01*
X75145215Y-63075171D01*
X75235720Y-62939721D01*
X75298061Y-62789217D01*
X75329843Y-62629442D01*
X75329843Y-62466538D01*
X75298061Y-62306763D01*
X75235720Y-62156259D01*
X75145215Y-62020809D01*
X75030024Y-61905618D01*
X74894574Y-61815113D01*
X74744070Y-61752772D01*
X74584295Y-61720990D01*
X74421391Y-61720990D01*
X74261616Y-61752772D01*
X74111112Y-61815113D01*
X73975662Y-61905618D01*
X73860471Y-62020809D01*
X73769966Y-62156259D01*
X73707625Y-62306763D01*
X73675843Y-62466538D01*
X64495056Y-62466538D01*
X62627000Y-57228033D01*
X62627000Y-51227000D01*
X74370083Y-51227000D01*
X88673000Y-81028897D01*
G04 #@! TA.AperFunction,Conductor*
D17*
G36*
X88673000Y-81028897D02*
G01*
X88673000Y-90073000D01*
X81500527Y-90073000D01*
X81491731Y-90067123D01*
X81341227Y-90004782D01*
X81181452Y-89973000D01*
X81018548Y-89973000D01*
X80858773Y-90004782D01*
X80708269Y-90067123D01*
X80699473Y-90073000D01*
X74339545Y-90073000D01*
X73749567Y-88418548D01*
X81673000Y-88418548D01*
X81673000Y-88581452D01*
X81704782Y-88741227D01*
X81767123Y-88891731D01*
X81857628Y-89027181D01*
X81972819Y-89142372D01*
X82108269Y-89232877D01*
X82258773Y-89295218D01*
X82418548Y-89327000D01*
X82581452Y-89327000D01*
X82741227Y-89295218D01*
X82891731Y-89232877D01*
X83027181Y-89142372D01*
X83142372Y-89027181D01*
X83232877Y-88891731D01*
X83295218Y-88741227D01*
X83327000Y-88581452D01*
X83327000Y-88418548D01*
X83295218Y-88258773D01*
X83232877Y-88108269D01*
X83142372Y-87972819D01*
X83027181Y-87857628D01*
X82891731Y-87767123D01*
X82741227Y-87704782D01*
X82581452Y-87673000D01*
X82418548Y-87673000D01*
X82258773Y-87704782D01*
X82108269Y-87767123D01*
X81972819Y-87857628D01*
X81857628Y-87972819D01*
X81767123Y-88108269D01*
X81704782Y-88258773D01*
X81673000Y-88418548D01*
X73749567Y-88418548D01*
X73595922Y-87987690D01*
X73627000Y-87831452D01*
X73627000Y-87668548D01*
X73595218Y-87508773D01*
X73532877Y-87358269D01*
X73442372Y-87222819D01*
X73327181Y-87107628D01*
X73267986Y-87068075D01*
X73107685Y-86618548D01*
X76873000Y-86618548D01*
X76873000Y-86781452D01*
X76904782Y-86941227D01*
X76967123Y-87091731D01*
X77057628Y-87227181D01*
X77172819Y-87342372D01*
X77308269Y-87432877D01*
X77458773Y-87495218D01*
X77618548Y-87527000D01*
X77781452Y-87527000D01*
X77941227Y-87495218D01*
X78091731Y-87432877D01*
X78227181Y-87342372D01*
X78301005Y-87268548D01*
X80173000Y-87268548D01*
X80173000Y-87431452D01*
X80204782Y-87591227D01*
X80267123Y-87741731D01*
X80357628Y-87877181D01*
X80472819Y-87992372D01*
X80608269Y-88082877D01*
X80758773Y-88145218D01*
X80918548Y-88177000D01*
X81081452Y-88177000D01*
X81241227Y-88145218D01*
X81391731Y-88082877D01*
X81527181Y-87992372D01*
X81642372Y-87877181D01*
X81732877Y-87741731D01*
X81795218Y-87591227D01*
X81827000Y-87431452D01*
X81827000Y-87268548D01*
X81795218Y-87108773D01*
X81732877Y-86958269D01*
X81642372Y-86822819D01*
X81527181Y-86707628D01*
X81391731Y-86617123D01*
X81241227Y-86554782D01*
X81081452Y-86523000D01*
X80918548Y-86523000D01*
X80758773Y-86554782D01*
X80608269Y-86617123D01*
X80472819Y-86707628D01*
X80357628Y-86822819D01*
X80267123Y-86958269D01*
X80204782Y-87108773D01*
X80173000Y-87268548D01*
X78301005Y-87268548D01*
X78342372Y-87227181D01*
X78432877Y-87091731D01*
X78495218Y-86941227D01*
X78527000Y-86781452D01*
X78527000Y-86618548D01*
X78495218Y-86458773D01*
X78432877Y-86308269D01*
X78342372Y-86172819D01*
X78227181Y-86057628D01*
X78091731Y-85967123D01*
X77941227Y-85904782D01*
X77781452Y-85873000D01*
X77618548Y-85873000D01*
X77458773Y-85904782D01*
X77308269Y-85967123D01*
X77172819Y-86057628D01*
X77057628Y-86172819D01*
X76967123Y-86308269D01*
X76904782Y-86458773D01*
X76873000Y-86618548D01*
X73107685Y-86618548D01*
X72109202Y-83818548D01*
X76023000Y-83818548D01*
X76023000Y-83981452D01*
X76054782Y-84141227D01*
X76117123Y-84291731D01*
X76207628Y-84427181D01*
X76322819Y-84542372D01*
X76458269Y-84632877D01*
X76608773Y-84695218D01*
X76768548Y-84727000D01*
X76931452Y-84727000D01*
X77091227Y-84695218D01*
X77241731Y-84632877D01*
X77377181Y-84542372D01*
X77492372Y-84427181D01*
X77582877Y-84291731D01*
X77645218Y-84141227D01*
X77677000Y-83981452D01*
X77677000Y-83818548D01*
X77645218Y-83658773D01*
X77582877Y-83508269D01*
X77492372Y-83372819D01*
X77377181Y-83257628D01*
X77241731Y-83167123D01*
X77091227Y-83104782D01*
X76931452Y-83073000D01*
X76768548Y-83073000D01*
X76608773Y-83104782D01*
X76458269Y-83167123D01*
X76322819Y-83257628D01*
X76207628Y-83372819D01*
X76117123Y-83508269D01*
X76054782Y-83658773D01*
X76023000Y-83818548D01*
X72109202Y-83818548D01*
X71431661Y-81918548D01*
X79173000Y-81918548D01*
X79173000Y-82081452D01*
X79204782Y-82241227D01*
X79267123Y-82391731D01*
X79357628Y-82527181D01*
X79472819Y-82642372D01*
X79608269Y-82732877D01*
X79758773Y-82795218D01*
X79918548Y-82827000D01*
X80081452Y-82827000D01*
X80241227Y-82795218D01*
X80391731Y-82732877D01*
X80527181Y-82642372D01*
X80642372Y-82527181D01*
X80732877Y-82391731D01*
X80795218Y-82241227D01*
X80827000Y-82081452D01*
X80827000Y-81918548D01*
X80795218Y-81758773D01*
X80732877Y-81608269D01*
X80642372Y-81472819D01*
X80588101Y-81418548D01*
X86673000Y-81418548D01*
X86673000Y-81581452D01*
X86704782Y-81741227D01*
X86767123Y-81891731D01*
X86857628Y-82027181D01*
X86972819Y-82142372D01*
X87108269Y-82232877D01*
X87258773Y-82295218D01*
X87418548Y-82327000D01*
X87581452Y-82327000D01*
X87741227Y-82295218D01*
X87891731Y-82232877D01*
X88027181Y-82142372D01*
X88142372Y-82027181D01*
X88232877Y-81891731D01*
X88295218Y-81741227D01*
X88327000Y-81581452D01*
X88327000Y-81418548D01*
X88295218Y-81258773D01*
X88232877Y-81108269D01*
X88142372Y-80972819D01*
X88027181Y-80857628D01*
X87891731Y-80767123D01*
X87741227Y-80704782D01*
X87581452Y-80673000D01*
X87418548Y-80673000D01*
X87258773Y-80704782D01*
X87108269Y-80767123D01*
X86972819Y-80857628D01*
X86857628Y-80972819D01*
X86767123Y-81108269D01*
X86704782Y-81258773D01*
X86673000Y-81418548D01*
X80588101Y-81418548D01*
X80527181Y-81357628D01*
X80391731Y-81267123D01*
X80241227Y-81204782D01*
X80081452Y-81173000D01*
X79918548Y-81173000D01*
X79758773Y-81204782D01*
X79608269Y-81267123D01*
X79472819Y-81357628D01*
X79357628Y-81472819D01*
X79267123Y-81608269D01*
X79204782Y-81758773D01*
X79173000Y-81918548D01*
X71431661Y-81918548D01*
X70941334Y-80543548D01*
X76248000Y-80543548D01*
X76248000Y-80706452D01*
X76279782Y-80866227D01*
X76342123Y-81016731D01*
X76432628Y-81152181D01*
X76547819Y-81267372D01*
X76683269Y-81357877D01*
X76833773Y-81420218D01*
X76993548Y-81452000D01*
X77156452Y-81452000D01*
X77316227Y-81420218D01*
X77466731Y-81357877D01*
X77602181Y-81267372D01*
X77717372Y-81152181D01*
X77807877Y-81016731D01*
X77870218Y-80866227D01*
X77902000Y-80706452D01*
X77902000Y-80543548D01*
X77870218Y-80383773D01*
X77807877Y-80233269D01*
X77717372Y-80097819D01*
X77602181Y-79982628D01*
X77466731Y-79892123D01*
X77316227Y-79829782D01*
X77156452Y-79798000D01*
X76993548Y-79798000D01*
X76833773Y-79829782D01*
X76683269Y-79892123D01*
X76547819Y-79982628D01*
X76432628Y-80097819D01*
X76342123Y-80233269D01*
X76279782Y-80383773D01*
X76248000Y-80543548D01*
X70941334Y-80543548D01*
X69791296Y-77318548D01*
X72873000Y-77318548D01*
X72873000Y-77481452D01*
X72904782Y-77641227D01*
X72967123Y-77791731D01*
X73057628Y-77927181D01*
X73172819Y-78042372D01*
X73308269Y-78132877D01*
X73458773Y-78195218D01*
X73618548Y-78227000D01*
X73781452Y-78227000D01*
X73941227Y-78195218D01*
X74091731Y-78132877D01*
X74227181Y-78042372D01*
X74342372Y-77927181D01*
X74432877Y-77791731D01*
X74495218Y-77641227D01*
X74527000Y-77481452D01*
X74527000Y-77318548D01*
X74495218Y-77158773D01*
X74432877Y-77008269D01*
X74342372Y-76872819D01*
X74227181Y-76757628D01*
X74091731Y-76667123D01*
X73941227Y-76604782D01*
X73781452Y-76573000D01*
X73618548Y-76573000D01*
X73458773Y-76604782D01*
X73308269Y-76667123D01*
X73172819Y-76757628D01*
X73057628Y-76872819D01*
X72967123Y-77008269D01*
X72904782Y-77158773D01*
X72873000Y-77318548D01*
X69791296Y-77318548D01*
X68813657Y-74577000D01*
X72471664Y-74577000D01*
X72500000Y-74579791D01*
X72528336Y-74577000D01*
X72613112Y-74568650D01*
X72721876Y-74535657D01*
X72822115Y-74482079D01*
X72909974Y-74409974D01*
X72982079Y-74322115D01*
X73035657Y-74221876D01*
X73068650Y-74113112D01*
X73079791Y-74000000D01*
X73077000Y-73971664D01*
X73077000Y-71318548D01*
X82173000Y-71318548D01*
X82173000Y-71481452D01*
X82204782Y-71641227D01*
X82267123Y-71791731D01*
X82357628Y-71927181D01*
X82472819Y-72042372D01*
X82608269Y-72132877D01*
X82758773Y-72195218D01*
X82918548Y-72227000D01*
X83081452Y-72227000D01*
X83241227Y-72195218D01*
X83391731Y-72132877D01*
X83527181Y-72042372D01*
X83642372Y-71927181D01*
X83732877Y-71791731D01*
X83795218Y-71641227D01*
X83827000Y-71481452D01*
X83827000Y-71318548D01*
X83795218Y-71158773D01*
X83732877Y-71008269D01*
X83642372Y-70872819D01*
X83527181Y-70757628D01*
X83391731Y-70667123D01*
X83241227Y-70604782D01*
X83081452Y-70573000D01*
X82918548Y-70573000D01*
X82758773Y-70604782D01*
X82608269Y-70667123D01*
X82472819Y-70757628D01*
X82357628Y-70872819D01*
X82267123Y-71008269D01*
X82204782Y-71158773D01*
X82173000Y-71318548D01*
X73077000Y-71318548D01*
X73077000Y-65528336D01*
X73079791Y-65500000D01*
X73068650Y-65386888D01*
X73035657Y-65278124D01*
X72982079Y-65177885D01*
X72909974Y-65090026D01*
X72822115Y-65017921D01*
X72721876Y-64964343D01*
X72613112Y-64931350D01*
X72528336Y-64923000D01*
X72500000Y-64920209D01*
X72471664Y-64923000D01*
X67028336Y-64923000D01*
X67000000Y-64920209D01*
X66971664Y-64923000D01*
X66886888Y-64931350D01*
X66778124Y-64964343D01*
X66677885Y-65017921D01*
X66590026Y-65090026D01*
X66517921Y-65177885D01*
X66464343Y-65278124D01*
X66431350Y-65386888D01*
X66420209Y-65500000D01*
X66423000Y-65528336D01*
X66423000Y-67872987D01*
X65048504Y-64018548D01*
X75673000Y-64018548D01*
X75673000Y-64181452D01*
X75704782Y-64341227D01*
X75767123Y-64491731D01*
X75857628Y-64627181D01*
X75972819Y-64742372D01*
X76108269Y-64832877D01*
X76258773Y-64895218D01*
X76418548Y-64927000D01*
X76581452Y-64927000D01*
X76741227Y-64895218D01*
X76891731Y-64832877D01*
X77027181Y-64742372D01*
X77142372Y-64627181D01*
X77232877Y-64491731D01*
X77295218Y-64341227D01*
X77327000Y-64181452D01*
X77327000Y-64018548D01*
X77295218Y-63858773D01*
X77232877Y-63708269D01*
X77142372Y-63572819D01*
X77027181Y-63457628D01*
X76891731Y-63367123D01*
X76741227Y-63304782D01*
X76581452Y-63273000D01*
X76418548Y-63273000D01*
X76258773Y-63304782D01*
X76108269Y-63367123D01*
X75972819Y-63457628D01*
X75857628Y-63572819D01*
X75767123Y-63708269D01*
X75704782Y-63858773D01*
X75673000Y-64018548D01*
X65048504Y-64018548D01*
X64495056Y-62466538D01*
X73675843Y-62466538D01*
X73675843Y-62629442D01*
X73707625Y-62789217D01*
X73769966Y-62939721D01*
X73860471Y-63075171D01*
X73975662Y-63190362D01*
X74111112Y-63280867D01*
X74261616Y-63343208D01*
X74421391Y-63374990D01*
X74584295Y-63374990D01*
X74744070Y-63343208D01*
X74894574Y-63280867D01*
X75030024Y-63190362D01*
X75145215Y-63075171D01*
X75235720Y-62939721D01*
X75298061Y-62789217D01*
X75329843Y-62629442D01*
X75329843Y-62466538D01*
X75298061Y-62306763D01*
X75235720Y-62156259D01*
X75145215Y-62020809D01*
X75030024Y-61905618D01*
X74894574Y-61815113D01*
X74744070Y-61752772D01*
X74584295Y-61720990D01*
X74421391Y-61720990D01*
X74261616Y-61752772D01*
X74111112Y-61815113D01*
X73975662Y-61905618D01*
X73860471Y-62020809D01*
X73769966Y-62156259D01*
X73707625Y-62306763D01*
X73675843Y-62466538D01*
X64495056Y-62466538D01*
X62627000Y-57228033D01*
X62627000Y-51227000D01*
X74370083Y-51227000D01*
X88673000Y-81028897D01*
G37*
G04 #@! TD.AperFunction*
D16*
X75873000Y-52500000D02*
X75875440Y-52524776D01*
X75882667Y-52548601D01*
X75894403Y-52570557D01*
X75910197Y-52589803D01*
X75929443Y-52605597D01*
X75951399Y-52617333D01*
X75975224Y-52624560D01*
X76000000Y-52627000D01*
X95573064Y-52627000D01*
X95597895Y-102023000D01*
X94157615Y-102023000D01*
X94162000Y-97690129D01*
X94159560Y-97665224D01*
X94152333Y-97641399D01*
X94140597Y-97619443D01*
X94124803Y-97600197D01*
X94105557Y-97584403D01*
X94083601Y-97572667D01*
X94059776Y-97565440D01*
X94035000Y-97563000D01*
X92965000Y-97563000D01*
X92940350Y-97565415D01*
X92916518Y-97572618D01*
X92894549Y-97584332D01*
X92875288Y-97600107D01*
X92859475Y-97619336D01*
X92847717Y-97641280D01*
X92840465Y-97665097D01*
X92838000Y-97689871D01*
X92833614Y-102023000D01*
X43301989Y-102023000D01*
X43300689Y-98877000D01*
X45215000Y-98877000D01*
X45215000Y-99477000D01*
X45263507Y-99715496D01*
X45357610Y-99939946D01*
X45493693Y-100141725D01*
X45666526Y-100313078D01*
X45869467Y-100447421D01*
X46094718Y-100539591D01*
X46132391Y-100543462D01*
X46323000Y-100418731D01*
X46323000Y-98877000D01*
X45215000Y-98877000D01*
X43300689Y-98877000D01*
X43300335Y-98023000D01*
X45215000Y-98023000D01*
X45215000Y-98623000D01*
X46323000Y-98623000D01*
X46323000Y-98603000D01*
X46577000Y-98603000D01*
X46577000Y-98623000D01*
X46769000Y-98623000D01*
X46769000Y-98877000D01*
X46577000Y-98877000D01*
X46577000Y-100418731D01*
X46767609Y-100543462D01*
X46769000Y-100543319D01*
X46769000Y-101428832D01*
X46766915Y-101450000D01*
X46775237Y-101534491D01*
X46799882Y-101615734D01*
X46839903Y-101690609D01*
X46893763Y-101756237D01*
X46959391Y-101810097D01*
X47034266Y-101850118D01*
X47115509Y-101874763D01*
X47200000Y-101883085D01*
X47221168Y-101881000D01*
X53278832Y-101881000D01*
X53300000Y-101883085D01*
X53321168Y-101881000D01*
X53384491Y-101874763D01*
X53465734Y-101850118D01*
X53540609Y-101810097D01*
X53606237Y-101756237D01*
X53660097Y-101690609D01*
X53700118Y-101615734D01*
X53724763Y-101534491D01*
X53733085Y-101450000D01*
X53731000Y-101428832D01*
X53731000Y-100278374D01*
X53857691Y-100316805D01*
X54050000Y-100335746D01*
X54242310Y-100316805D01*
X54427229Y-100260711D01*
X54597651Y-100169618D01*
X54747028Y-100047028D01*
X54869618Y-99897651D01*
X54960711Y-99727229D01*
X55016805Y-99542310D01*
X55031000Y-99398187D01*
X55031000Y-98670616D01*
X64444000Y-98670616D01*
X64444000Y-98829384D01*
X64474974Y-98985102D01*
X64535732Y-99131784D01*
X64623939Y-99263795D01*
X64736205Y-99376061D01*
X64868216Y-99464268D01*
X65014898Y-99525026D01*
X65170616Y-99556000D01*
X65329384Y-99556000D01*
X65485102Y-99525026D01*
X65631784Y-99464268D01*
X65763795Y-99376061D01*
X65876061Y-99263795D01*
X65964268Y-99131784D01*
X66025026Y-98985102D01*
X66056000Y-98829384D01*
X66056000Y-98670616D01*
X67444000Y-98670616D01*
X67444000Y-98829384D01*
X67474974Y-98985102D01*
X67535732Y-99131784D01*
X67623939Y-99263795D01*
X67736205Y-99376061D01*
X67868216Y-99464268D01*
X68014898Y-99525026D01*
X68170616Y-99556000D01*
X68329384Y-99556000D01*
X68485102Y-99525026D01*
X68631784Y-99464268D01*
X68763795Y-99376061D01*
X68876061Y-99263795D01*
X68964268Y-99131784D01*
X69025026Y-98985102D01*
X69056000Y-98829384D01*
X69056000Y-98670616D01*
X85194000Y-98670616D01*
X85194000Y-98829384D01*
X85224974Y-98985102D01*
X85285732Y-99131784D01*
X85373939Y-99263795D01*
X85486205Y-99376061D01*
X85618216Y-99464268D01*
X85764898Y-99525026D01*
X85920616Y-99556000D01*
X86079384Y-99556000D01*
X86235102Y-99525026D01*
X86381784Y-99464268D01*
X86513795Y-99376061D01*
X86626061Y-99263795D01*
X86714268Y-99131784D01*
X86775026Y-98985102D01*
X86806000Y-98829384D01*
X86806000Y-98670616D01*
X88194000Y-98670616D01*
X88194000Y-98829384D01*
X88224974Y-98985102D01*
X88285732Y-99131784D01*
X88373939Y-99263795D01*
X88486205Y-99376061D01*
X88618216Y-99464268D01*
X88764898Y-99525026D01*
X88920616Y-99556000D01*
X89079384Y-99556000D01*
X89235102Y-99525026D01*
X89381784Y-99464268D01*
X89513795Y-99376061D01*
X89626061Y-99263795D01*
X89714268Y-99131784D01*
X89775026Y-98985102D01*
X89806000Y-98829384D01*
X89806000Y-98670616D01*
X89775026Y-98514898D01*
X89714268Y-98368216D01*
X89626061Y-98236205D01*
X89513795Y-98123939D01*
X89381784Y-98035732D01*
X89235102Y-97974974D01*
X89079384Y-97944000D01*
X88920616Y-97944000D01*
X88764898Y-97974974D01*
X88618216Y-98035732D01*
X88486205Y-98123939D01*
X88373939Y-98236205D01*
X88285732Y-98368216D01*
X88224974Y-98514898D01*
X88194000Y-98670616D01*
X86806000Y-98670616D01*
X86775026Y-98514898D01*
X86714268Y-98368216D01*
X86626061Y-98236205D01*
X86513795Y-98123939D01*
X86381784Y-98035732D01*
X86235102Y-97974974D01*
X86079384Y-97944000D01*
X85920616Y-97944000D01*
X85764898Y-97974974D01*
X85618216Y-98035732D01*
X85486205Y-98123939D01*
X85373939Y-98236205D01*
X85285732Y-98368216D01*
X85224974Y-98514898D01*
X85194000Y-98670616D01*
X69056000Y-98670616D01*
X69025026Y-98514898D01*
X68964268Y-98368216D01*
X68876061Y-98236205D01*
X68763795Y-98123939D01*
X68631784Y-98035732D01*
X68485102Y-97974974D01*
X68329384Y-97944000D01*
X68170616Y-97944000D01*
X68014898Y-97974974D01*
X67868216Y-98035732D01*
X67736205Y-98123939D01*
X67623939Y-98236205D01*
X67535732Y-98368216D01*
X67474974Y-98514898D01*
X67444000Y-98670616D01*
X66056000Y-98670616D01*
X66025026Y-98514898D01*
X65964268Y-98368216D01*
X65876061Y-98236205D01*
X65763795Y-98123939D01*
X65631784Y-98035732D01*
X65485102Y-97974974D01*
X65329384Y-97944000D01*
X65170616Y-97944000D01*
X65014898Y-97974974D01*
X64868216Y-98035732D01*
X64736205Y-98123939D01*
X64623939Y-98236205D01*
X64535732Y-98368216D01*
X64474974Y-98514898D01*
X64444000Y-98670616D01*
X55031000Y-98670616D01*
X55031000Y-98101813D01*
X55016805Y-97957690D01*
X54960711Y-97772771D01*
X54869618Y-97602349D01*
X54747028Y-97452972D01*
X54597651Y-97330382D01*
X54427228Y-97239289D01*
X54242309Y-97183195D01*
X54050000Y-97164254D01*
X53857690Y-97183195D01*
X53731000Y-97221626D01*
X53731000Y-97078374D01*
X53857691Y-97116805D01*
X54050000Y-97135746D01*
X54242310Y-97116805D01*
X54427229Y-97060711D01*
X54597651Y-96969618D01*
X54642359Y-96932927D01*
X72569000Y-96932927D01*
X72569000Y-97067073D01*
X72595171Y-97198640D01*
X72646506Y-97322574D01*
X72721033Y-97434112D01*
X72815888Y-97528967D01*
X72927426Y-97603494D01*
X73051360Y-97654829D01*
X73182927Y-97681000D01*
X73317073Y-97681000D01*
X73448640Y-97654829D01*
X73572574Y-97603494D01*
X73684112Y-97528967D01*
X73778967Y-97434112D01*
X73853494Y-97322574D01*
X73904829Y-97198640D01*
X73931000Y-97067073D01*
X73931000Y-96932927D01*
X73904829Y-96801360D01*
X73853494Y-96677426D01*
X73778967Y-96565888D01*
X73684112Y-96471033D01*
X73572574Y-96396506D01*
X73448640Y-96345171D01*
X73317073Y-96319000D01*
X73182927Y-96319000D01*
X73051360Y-96345171D01*
X72927426Y-96396506D01*
X72815888Y-96471033D01*
X72721033Y-96565888D01*
X72646506Y-96677426D01*
X72595171Y-96801360D01*
X72569000Y-96932927D01*
X54642359Y-96932927D01*
X54747028Y-96847028D01*
X54869618Y-96697651D01*
X54960711Y-96527229D01*
X55016805Y-96342310D01*
X55031000Y-96198187D01*
X55031000Y-94901813D01*
X55016805Y-94757690D01*
X54960711Y-94572771D01*
X54869618Y-94402349D01*
X54747028Y-94252972D01*
X54597651Y-94130382D01*
X54427228Y-94039289D01*
X54242309Y-93983195D01*
X54050000Y-93964254D01*
X53857690Y-93983195D01*
X53731000Y-94021626D01*
X53731000Y-91378374D01*
X53857691Y-91416805D01*
X54050000Y-91435746D01*
X54242310Y-91416805D01*
X54427229Y-91360711D01*
X54597651Y-91269618D01*
X54747028Y-91147028D01*
X54869618Y-90997651D01*
X54960711Y-90827229D01*
X55016805Y-90642310D01*
X55031000Y-90498187D01*
X55031000Y-89201813D01*
X55016805Y-89057690D01*
X54960711Y-88872771D01*
X54869618Y-88702349D01*
X54747028Y-88552972D01*
X54597651Y-88430382D01*
X54427228Y-88339289D01*
X54242309Y-88283195D01*
X54050000Y-88264254D01*
X53857690Y-88283195D01*
X53672771Y-88339289D01*
X53642164Y-88355649D01*
X53640119Y-88350687D01*
X53637261Y-88345402D01*
X53637257Y-88345393D01*
X53637252Y-88345386D01*
X53590245Y-88259881D01*
X53568189Y-88227669D01*
X53546557Y-88195110D01*
X53542721Y-88190473D01*
X53479996Y-88115721D01*
X53452103Y-88088406D01*
X53424563Y-88060673D01*
X53419899Y-88056870D01*
X53343849Y-87995724D01*
X53311146Y-87974323D01*
X53278776Y-87952490D01*
X53273473Y-87949670D01*
X53273464Y-87949664D01*
X53273455Y-87949660D01*
X53186983Y-87904454D01*
X53150748Y-87889814D01*
X53114755Y-87874684D01*
X53108994Y-87872944D01*
X53108992Y-87872943D01*
X53108988Y-87872942D01*
X53015382Y-87845392D01*
X52977027Y-87838075D01*
X52938742Y-87830217D01*
X52932759Y-87829631D01*
X52932756Y-87829630D01*
X52932753Y-87829630D01*
X52835571Y-87820786D01*
X52796509Y-87821059D01*
X52757448Y-87820786D01*
X52751458Y-87821373D01*
X52751454Y-87821373D01*
X52654410Y-87831573D01*
X52616162Y-87839424D01*
X52577772Y-87846747D01*
X52572021Y-87848484D01*
X52572011Y-87848486D01*
X52572002Y-87848490D01*
X52478792Y-87877343D01*
X52442800Y-87892472D01*
X52406559Y-87907115D01*
X52401256Y-87909935D01*
X52401248Y-87909939D01*
X52401241Y-87909944D01*
X52315408Y-87956354D01*
X52283046Y-87978182D01*
X52250337Y-87999587D01*
X52245673Y-88003390D01*
X52170485Y-88065592D01*
X52142964Y-88093305D01*
X52115052Y-88120639D01*
X52111216Y-88125276D01*
X52111213Y-88125279D01*
X52111212Y-88125281D01*
X52049540Y-88200897D01*
X52027918Y-88233440D01*
X52005850Y-88265670D01*
X52002987Y-88270964D01*
X51977446Y-88319000D01*
X48522746Y-88319000D01*
X48490245Y-88259881D01*
X48468189Y-88227669D01*
X48446557Y-88195110D01*
X48442721Y-88190473D01*
X48379996Y-88115721D01*
X48352103Y-88088406D01*
X48324563Y-88060673D01*
X48319899Y-88056870D01*
X48243849Y-87995724D01*
X48211146Y-87974323D01*
X48178776Y-87952490D01*
X48173473Y-87949670D01*
X48173464Y-87949664D01*
X48173455Y-87949660D01*
X48086983Y-87904454D01*
X48050748Y-87889814D01*
X48014755Y-87874684D01*
X48008994Y-87872944D01*
X48008992Y-87872943D01*
X48008988Y-87872942D01*
X47915382Y-87845392D01*
X47877027Y-87838075D01*
X47838742Y-87830217D01*
X47832759Y-87829631D01*
X47832756Y-87829630D01*
X47832753Y-87829630D01*
X47735571Y-87820786D01*
X47696509Y-87821059D01*
X47657448Y-87820786D01*
X47651458Y-87821373D01*
X47651454Y-87821373D01*
X47554410Y-87831573D01*
X47516162Y-87839424D01*
X47477772Y-87846747D01*
X47472021Y-87848484D01*
X47472011Y-87848486D01*
X47472002Y-87848490D01*
X47378792Y-87877343D01*
X47342800Y-87892472D01*
X47306559Y-87907115D01*
X47301256Y-87909935D01*
X47301248Y-87909939D01*
X47301241Y-87909944D01*
X47215408Y-87956354D01*
X47183046Y-87978182D01*
X47150337Y-87999587D01*
X47145673Y-88003390D01*
X47070485Y-88065592D01*
X47042964Y-88093305D01*
X47015052Y-88120639D01*
X47011216Y-88125276D01*
X47011213Y-88125279D01*
X47011212Y-88125281D01*
X46949540Y-88200897D01*
X46927918Y-88233440D01*
X46905850Y-88265670D01*
X46902987Y-88270964D01*
X46857932Y-88355701D01*
X46827228Y-88339289D01*
X46642309Y-88283195D01*
X46450000Y-88264254D01*
X46257690Y-88283195D01*
X46072771Y-88339289D01*
X45902349Y-88430382D01*
X45752972Y-88552972D01*
X45630382Y-88702349D01*
X45539289Y-88872772D01*
X45483195Y-89057691D01*
X45469000Y-89201814D01*
X45469001Y-90498187D01*
X45483196Y-90642310D01*
X45539290Y-90827229D01*
X45630383Y-90997651D01*
X45752973Y-91147028D01*
X45902350Y-91269618D01*
X46072772Y-91360711D01*
X46257691Y-91416805D01*
X46450000Y-91435746D01*
X46642310Y-91416805D01*
X46769001Y-91378374D01*
X46769001Y-94021626D01*
X46642309Y-93983195D01*
X46450000Y-93964254D01*
X46257690Y-93983195D01*
X46072771Y-94039289D01*
X45902349Y-94130382D01*
X45752972Y-94252972D01*
X45630382Y-94402349D01*
X45539289Y-94572772D01*
X45483195Y-94757691D01*
X45469000Y-94901814D01*
X45469001Y-96198187D01*
X45483196Y-96342310D01*
X45539290Y-96527229D01*
X45630383Y-96697651D01*
X45752973Y-96847028D01*
X45902350Y-96969618D01*
X45976002Y-97008986D01*
X45869467Y-97052579D01*
X45666526Y-97186922D01*
X45493693Y-97358275D01*
X45357610Y-97560054D01*
X45263507Y-97784504D01*
X45215000Y-98023000D01*
X43300335Y-98023000D01*
X43292262Y-78500000D01*
X49066915Y-78500000D01*
X49069000Y-78521169D01*
X49069001Y-83978821D01*
X49066915Y-84000000D01*
X49075237Y-84084491D01*
X49099882Y-84165734D01*
X49139903Y-84240609D01*
X49193763Y-84306237D01*
X49259391Y-84360097D01*
X49334266Y-84400118D01*
X49415509Y-84424763D01*
X49478832Y-84431000D01*
X49500000Y-84433085D01*
X49521168Y-84431000D01*
X57978832Y-84431000D01*
X58000000Y-84433085D01*
X58021168Y-84431000D01*
X58084491Y-84424763D01*
X58165734Y-84400118D01*
X58240609Y-84360097D01*
X58306237Y-84306237D01*
X58360097Y-84240609D01*
X58400118Y-84165734D01*
X58424763Y-84084491D01*
X58433085Y-84000000D01*
X58431000Y-83978832D01*
X58431000Y-81682927D01*
X59319000Y-81682927D01*
X59319000Y-81817073D01*
X59345171Y-81948640D01*
X59396506Y-82072574D01*
X59471033Y-82184112D01*
X59565888Y-82278967D01*
X59677426Y-82353494D01*
X59801360Y-82404829D01*
X59932927Y-82431000D01*
X60067073Y-82431000D01*
X60198640Y-82404829D01*
X60322574Y-82353494D01*
X60434112Y-82278967D01*
X60528967Y-82184112D01*
X60603494Y-82072574D01*
X60654829Y-81948640D01*
X60681000Y-81817073D01*
X60681000Y-81682927D01*
X60654829Y-81551360D01*
X60603494Y-81427426D01*
X60528967Y-81315888D01*
X60434112Y-81221033D01*
X60322574Y-81146506D01*
X60198640Y-81095171D01*
X60067073Y-81069000D01*
X59932927Y-81069000D01*
X59801360Y-81095171D01*
X59677426Y-81146506D01*
X59565888Y-81221033D01*
X59471033Y-81315888D01*
X59396506Y-81427426D01*
X59345171Y-81551360D01*
X59319000Y-81682927D01*
X58431000Y-81682927D01*
X58431000Y-78521168D01*
X58433085Y-78500000D01*
X58424763Y-78415509D01*
X58400118Y-78334266D01*
X58360097Y-78259391D01*
X58306237Y-78193763D01*
X58240609Y-78139903D01*
X58165734Y-78099882D01*
X58084491Y-78075237D01*
X58021168Y-78069000D01*
X58000000Y-78066915D01*
X57978832Y-78069000D01*
X49521168Y-78069000D01*
X49500000Y-78066915D01*
X49478832Y-78069000D01*
X49415509Y-78075237D01*
X49334266Y-78099882D01*
X49259391Y-78139903D01*
X49193763Y-78193763D01*
X49139903Y-78259391D01*
X49099882Y-78334266D01*
X49075237Y-78415509D01*
X49066915Y-78500000D01*
X43292262Y-78500000D01*
X43291103Y-75699457D01*
X46848000Y-75699457D01*
X46858565Y-75804994D01*
X46888971Y-75903728D01*
X46938056Y-75994633D01*
X47003931Y-76074215D01*
X47084067Y-76139417D01*
X47175383Y-76187732D01*
X47274371Y-76217303D01*
X47377225Y-76226995D01*
X65139725Y-76151995D01*
X65239780Y-76141980D01*
X65338672Y-76112092D01*
X65429834Y-76063486D01*
X65509761Y-75998029D01*
X65575382Y-75918237D01*
X65624176Y-75827176D01*
X65654268Y-75728345D01*
X65664500Y-75625543D01*
X65664827Y-75307929D01*
X66644002Y-75307929D01*
X66644002Y-75442075D01*
X66670173Y-75573642D01*
X66721508Y-75697576D01*
X66796035Y-75809114D01*
X66890890Y-75903969D01*
X67002428Y-75978496D01*
X67126362Y-76029831D01*
X67257929Y-76056002D01*
X67392075Y-76056002D01*
X67523642Y-76029831D01*
X67647576Y-75978496D01*
X67759114Y-75903969D01*
X67853969Y-75809114D01*
X67928496Y-75697576D01*
X67979831Y-75573642D01*
X68006002Y-75442075D01*
X68006002Y-75307929D01*
X67979831Y-75176362D01*
X67928496Y-75052428D01*
X67853969Y-74940890D01*
X67759114Y-74846035D01*
X67647576Y-74771508D01*
X67523642Y-74720173D01*
X67392075Y-74694002D01*
X67257929Y-74694002D01*
X67126362Y-74720173D01*
X67002428Y-74771508D01*
X66890890Y-74846035D01*
X66796035Y-74940890D01*
X66721508Y-75052428D01*
X66670173Y-75176362D01*
X66644002Y-75307929D01*
X65664827Y-75307929D01*
X65672654Y-67715928D01*
X66569001Y-70229512D01*
X66569001Y-73978821D01*
X66566915Y-74000000D01*
X66575237Y-74084491D01*
X66599882Y-74165734D01*
X66639903Y-74240609D01*
X66693763Y-74306237D01*
X66759391Y-74360097D01*
X66834266Y-74400118D01*
X66915509Y-74424763D01*
X66978832Y-74431000D01*
X67000000Y-74433085D01*
X67021168Y-74431000D01*
X68067255Y-74431000D01*
X72585633Y-87101685D01*
X72477426Y-87146506D01*
X72365888Y-87221033D01*
X72271033Y-87315888D01*
X72196506Y-87427426D01*
X72145171Y-87551360D01*
X72119000Y-87682927D01*
X72119000Y-87817073D01*
X72145171Y-87948640D01*
X72196506Y-88072574D01*
X72271033Y-88184112D01*
X72365888Y-88278967D01*
X72477426Y-88353494D01*
X72601360Y-88404829D01*
X72732927Y-88431000D01*
X72867073Y-88431000D01*
X72998640Y-88404829D01*
X73043682Y-88386172D01*
X73753617Y-90377011D01*
X73811816Y-90492786D01*
X73877355Y-90572645D01*
X73957214Y-90638184D01*
X74048326Y-90686885D01*
X74147187Y-90716874D01*
X74250000Y-90727000D01*
X80420179Y-90727000D01*
X80419000Y-90732927D01*
X80419000Y-90867073D01*
X80445171Y-90998640D01*
X80496506Y-91122574D01*
X80571033Y-91234112D01*
X80665888Y-91328967D01*
X80777426Y-91403494D01*
X80901360Y-91454829D01*
X81032927Y-91481000D01*
X81167073Y-91481000D01*
X81298640Y-91454829D01*
X81422574Y-91403494D01*
X81534112Y-91328967D01*
X81628967Y-91234112D01*
X81703494Y-91122574D01*
X81754829Y-90998640D01*
X81781000Y-90867073D01*
X81781000Y-90732927D01*
X81779821Y-90727000D01*
X88800000Y-90727000D01*
X88902813Y-90716874D01*
X89001674Y-90686885D01*
X89092786Y-90638184D01*
X89172645Y-90572645D01*
X89238184Y-90492786D01*
X89286885Y-90401674D01*
X89316874Y-90302813D01*
X89327000Y-90200000D01*
X89327000Y-84632927D01*
X92319000Y-84632927D01*
X92319000Y-84767073D01*
X92345171Y-84898640D01*
X92396506Y-85022574D01*
X92471033Y-85134112D01*
X92565888Y-85228967D01*
X92677426Y-85303494D01*
X92801360Y-85354829D01*
X92932927Y-85381000D01*
X93067073Y-85381000D01*
X93198640Y-85354829D01*
X93322574Y-85303494D01*
X93434112Y-85228967D01*
X93528967Y-85134112D01*
X93603494Y-85022574D01*
X93654829Y-84898640D01*
X93681000Y-84767073D01*
X93681000Y-84632927D01*
X93654829Y-84501360D01*
X93603494Y-84377426D01*
X93528967Y-84265888D01*
X93434112Y-84171033D01*
X93322574Y-84096506D01*
X93198640Y-84045171D01*
X93067073Y-84019000D01*
X92932927Y-84019000D01*
X92801360Y-84045171D01*
X92677426Y-84096506D01*
X92565888Y-84171033D01*
X92471033Y-84265888D01*
X92396506Y-84377426D01*
X92345171Y-84501360D01*
X92319000Y-84632927D01*
X89327000Y-84632927D01*
X89327000Y-81000000D01*
X89310471Y-80869048D01*
X89275115Y-80771977D01*
X80905538Y-63332927D01*
X87719000Y-63332927D01*
X87719000Y-63467073D01*
X87745171Y-63598640D01*
X87796506Y-63722574D01*
X87871033Y-63834112D01*
X87965888Y-63928967D01*
X88077426Y-64003494D01*
X88201360Y-64054829D01*
X88332927Y-64081000D01*
X88467073Y-64081000D01*
X88598640Y-64054829D01*
X88722574Y-64003494D01*
X88834112Y-63928967D01*
X88928967Y-63834112D01*
X89003494Y-63722574D01*
X89054829Y-63598640D01*
X89081000Y-63467073D01*
X89081000Y-63332927D01*
X89054829Y-63201360D01*
X89003494Y-63077426D01*
X88928967Y-62965888D01*
X88834112Y-62871033D01*
X88722574Y-62796506D01*
X88598640Y-62745171D01*
X88467073Y-62719000D01*
X88332927Y-62719000D01*
X88201360Y-62745171D01*
X88077426Y-62796506D01*
X87965888Y-62871033D01*
X87871033Y-62965888D01*
X87796506Y-63077426D01*
X87745171Y-63201360D01*
X87719000Y-63332927D01*
X80905538Y-63332927D01*
X78577862Y-58482927D01*
X79719000Y-58482927D01*
X79719000Y-58617073D01*
X79745171Y-58748640D01*
X79796506Y-58872574D01*
X79871033Y-58984112D01*
X79965888Y-59078967D01*
X80077426Y-59153494D01*
X80201360Y-59204829D01*
X80332927Y-59231000D01*
X80467073Y-59231000D01*
X80598640Y-59204829D01*
X80722574Y-59153494D01*
X80834112Y-59078967D01*
X80891062Y-59022017D01*
X80869000Y-59132927D01*
X80869000Y-59267073D01*
X80895171Y-59398640D01*
X80946506Y-59522574D01*
X81021033Y-59634112D01*
X81115888Y-59728967D01*
X81227426Y-59803494D01*
X81351360Y-59854829D01*
X81482927Y-59881000D01*
X81617073Y-59881000D01*
X81748640Y-59854829D01*
X81872574Y-59803494D01*
X81984112Y-59728967D01*
X82078967Y-59634112D01*
X82153494Y-59522574D01*
X82204829Y-59398640D01*
X82231000Y-59267073D01*
X82231000Y-59132927D01*
X82204829Y-59001360D01*
X82153494Y-58877426D01*
X82078967Y-58765888D01*
X81984112Y-58671033D01*
X81872574Y-58596506D01*
X81748640Y-58545171D01*
X81617073Y-58519000D01*
X81482927Y-58519000D01*
X81351360Y-58545171D01*
X81227426Y-58596506D01*
X81115888Y-58671033D01*
X81058938Y-58727983D01*
X81081000Y-58617073D01*
X81081000Y-58482927D01*
X81054829Y-58351360D01*
X81003494Y-58227426D01*
X80928967Y-58115888D01*
X80834112Y-58021033D01*
X80722574Y-57946506D01*
X80598640Y-57895171D01*
X80467073Y-57869000D01*
X80332927Y-57869000D01*
X80201360Y-57895171D01*
X80077426Y-57946506D01*
X79965888Y-58021033D01*
X79871033Y-58115888D01*
X79796506Y-58227426D01*
X79745171Y-58351360D01*
X79719000Y-58482927D01*
X78577862Y-58482927D01*
X74925115Y-50871977D01*
X74888184Y-50807214D01*
X74822645Y-50727355D01*
X74742786Y-50661816D01*
X74651674Y-50613115D01*
X74552813Y-50583126D01*
X74450000Y-50573000D01*
X62500000Y-50573000D01*
X62397187Y-50583126D01*
X62298326Y-50613115D01*
X62207214Y-50661816D01*
X62127355Y-50727355D01*
X62061816Y-50807214D01*
X62032954Y-50861210D01*
X47397775Y-50923005D01*
X47297720Y-50933020D01*
X47198828Y-50962908D01*
X47107666Y-51011514D01*
X47027739Y-51076971D01*
X46962118Y-51156763D01*
X46913324Y-51247824D01*
X46883232Y-51346655D01*
X46873000Y-51449457D01*
X46848000Y-75699457D01*
X43291103Y-75699457D01*
X43280365Y-49732927D01*
X58169000Y-49732927D01*
X58169000Y-49867073D01*
X58195171Y-49998640D01*
X58246506Y-50122574D01*
X58321033Y-50234112D01*
X58415888Y-50328967D01*
X58527426Y-50403494D01*
X58651360Y-50454829D01*
X58782927Y-50481000D01*
X58917073Y-50481000D01*
X59048640Y-50454829D01*
X59172574Y-50403494D01*
X59284112Y-50328967D01*
X59378967Y-50234112D01*
X59453494Y-50122574D01*
X59504829Y-49998640D01*
X59531000Y-49867073D01*
X59531000Y-49732927D01*
X59504829Y-49601360D01*
X59453494Y-49477426D01*
X59378967Y-49365888D01*
X59284112Y-49271033D01*
X59172574Y-49196506D01*
X59048640Y-49145171D01*
X58917073Y-49119000D01*
X58782927Y-49119000D01*
X58651360Y-49145171D01*
X58527426Y-49196506D01*
X58415888Y-49271033D01*
X58321033Y-49365888D01*
X58246506Y-49477426D01*
X58195171Y-49601360D01*
X58169000Y-49732927D01*
X43280365Y-49732927D01*
X43278235Y-44582927D01*
X60319000Y-44582927D01*
X60319000Y-44717073D01*
X60345171Y-44848640D01*
X60396506Y-44972574D01*
X60471033Y-45084112D01*
X60565888Y-45178967D01*
X60677426Y-45253494D01*
X60801360Y-45304829D01*
X60932927Y-45331000D01*
X61067073Y-45331000D01*
X61198640Y-45304829D01*
X61322574Y-45253494D01*
X61434112Y-45178967D01*
X61528967Y-45084112D01*
X61603494Y-44972574D01*
X61654829Y-44848640D01*
X61681000Y-44717073D01*
X61681000Y-44582927D01*
X61654829Y-44451360D01*
X61603494Y-44327426D01*
X61528967Y-44215888D01*
X61434112Y-44121033D01*
X61322574Y-44046506D01*
X61198640Y-43995171D01*
X61067073Y-43969000D01*
X60932927Y-43969000D01*
X60801360Y-43995171D01*
X60677426Y-44046506D01*
X60565888Y-44121033D01*
X60471033Y-44215888D01*
X60396506Y-44327426D01*
X60345171Y-44451360D01*
X60319000Y-44582927D01*
X43278235Y-44582927D01*
X43277053Y-41727000D01*
X75873000Y-41727000D01*
X75873000Y-52500000D01*
G04 #@! TA.AperFunction,Conductor*
D17*
G36*
X75873000Y-52500000D02*
G01*
X75875440Y-52524776D01*
X75882667Y-52548601D01*
X75894403Y-52570557D01*
X75910197Y-52589803D01*
X75929443Y-52605597D01*
X75951399Y-52617333D01*
X75975224Y-52624560D01*
X76000000Y-52627000D01*
X95573064Y-52627000D01*
X95597895Y-102023000D01*
X94157615Y-102023000D01*
X94162000Y-97690129D01*
X94159560Y-97665224D01*
X94152333Y-97641399D01*
X94140597Y-97619443D01*
X94124803Y-97600197D01*
X94105557Y-97584403D01*
X94083601Y-97572667D01*
X94059776Y-97565440D01*
X94035000Y-97563000D01*
X92965000Y-97563000D01*
X92940350Y-97565415D01*
X92916518Y-97572618D01*
X92894549Y-97584332D01*
X92875288Y-97600107D01*
X92859475Y-97619336D01*
X92847717Y-97641280D01*
X92840465Y-97665097D01*
X92838000Y-97689871D01*
X92833614Y-102023000D01*
X43301989Y-102023000D01*
X43300689Y-98877000D01*
X45215000Y-98877000D01*
X45215000Y-99477000D01*
X45263507Y-99715496D01*
X45357610Y-99939946D01*
X45493693Y-100141725D01*
X45666526Y-100313078D01*
X45869467Y-100447421D01*
X46094718Y-100539591D01*
X46132391Y-100543462D01*
X46323000Y-100418731D01*
X46323000Y-98877000D01*
X45215000Y-98877000D01*
X43300689Y-98877000D01*
X43300335Y-98023000D01*
X45215000Y-98023000D01*
X45215000Y-98623000D01*
X46323000Y-98623000D01*
X46323000Y-98603000D01*
X46577000Y-98603000D01*
X46577000Y-98623000D01*
X46769000Y-98623000D01*
X46769000Y-98877000D01*
X46577000Y-98877000D01*
X46577000Y-100418731D01*
X46767609Y-100543462D01*
X46769000Y-100543319D01*
X46769000Y-101428832D01*
X46766915Y-101450000D01*
X46775237Y-101534491D01*
X46799882Y-101615734D01*
X46839903Y-101690609D01*
X46893763Y-101756237D01*
X46959391Y-101810097D01*
X47034266Y-101850118D01*
X47115509Y-101874763D01*
X47200000Y-101883085D01*
X47221168Y-101881000D01*
X53278832Y-101881000D01*
X53300000Y-101883085D01*
X53321168Y-101881000D01*
X53384491Y-101874763D01*
X53465734Y-101850118D01*
X53540609Y-101810097D01*
X53606237Y-101756237D01*
X53660097Y-101690609D01*
X53700118Y-101615734D01*
X53724763Y-101534491D01*
X53733085Y-101450000D01*
X53731000Y-101428832D01*
X53731000Y-100278374D01*
X53857691Y-100316805D01*
X54050000Y-100335746D01*
X54242310Y-100316805D01*
X54427229Y-100260711D01*
X54597651Y-100169618D01*
X54747028Y-100047028D01*
X54869618Y-99897651D01*
X54960711Y-99727229D01*
X55016805Y-99542310D01*
X55031000Y-99398187D01*
X55031000Y-98670616D01*
X64444000Y-98670616D01*
X64444000Y-98829384D01*
X64474974Y-98985102D01*
X64535732Y-99131784D01*
X64623939Y-99263795D01*
X64736205Y-99376061D01*
X64868216Y-99464268D01*
X65014898Y-99525026D01*
X65170616Y-99556000D01*
X65329384Y-99556000D01*
X65485102Y-99525026D01*
X65631784Y-99464268D01*
X65763795Y-99376061D01*
X65876061Y-99263795D01*
X65964268Y-99131784D01*
X66025026Y-98985102D01*
X66056000Y-98829384D01*
X66056000Y-98670616D01*
X67444000Y-98670616D01*
X67444000Y-98829384D01*
X67474974Y-98985102D01*
X67535732Y-99131784D01*
X67623939Y-99263795D01*
X67736205Y-99376061D01*
X67868216Y-99464268D01*
X68014898Y-99525026D01*
X68170616Y-99556000D01*
X68329384Y-99556000D01*
X68485102Y-99525026D01*
X68631784Y-99464268D01*
X68763795Y-99376061D01*
X68876061Y-99263795D01*
X68964268Y-99131784D01*
X69025026Y-98985102D01*
X69056000Y-98829384D01*
X69056000Y-98670616D01*
X85194000Y-98670616D01*
X85194000Y-98829384D01*
X85224974Y-98985102D01*
X85285732Y-99131784D01*
X85373939Y-99263795D01*
X85486205Y-99376061D01*
X85618216Y-99464268D01*
X85764898Y-99525026D01*
X85920616Y-99556000D01*
X86079384Y-99556000D01*
X86235102Y-99525026D01*
X86381784Y-99464268D01*
X86513795Y-99376061D01*
X86626061Y-99263795D01*
X86714268Y-99131784D01*
X86775026Y-98985102D01*
X86806000Y-98829384D01*
X86806000Y-98670616D01*
X88194000Y-98670616D01*
X88194000Y-98829384D01*
X88224974Y-98985102D01*
X88285732Y-99131784D01*
X88373939Y-99263795D01*
X88486205Y-99376061D01*
X88618216Y-99464268D01*
X88764898Y-99525026D01*
X88920616Y-99556000D01*
X89079384Y-99556000D01*
X89235102Y-99525026D01*
X89381784Y-99464268D01*
X89513795Y-99376061D01*
X89626061Y-99263795D01*
X89714268Y-99131784D01*
X89775026Y-98985102D01*
X89806000Y-98829384D01*
X89806000Y-98670616D01*
X89775026Y-98514898D01*
X89714268Y-98368216D01*
X89626061Y-98236205D01*
X89513795Y-98123939D01*
X89381784Y-98035732D01*
X89235102Y-97974974D01*
X89079384Y-97944000D01*
X88920616Y-97944000D01*
X88764898Y-97974974D01*
X88618216Y-98035732D01*
X88486205Y-98123939D01*
X88373939Y-98236205D01*
X88285732Y-98368216D01*
X88224974Y-98514898D01*
X88194000Y-98670616D01*
X86806000Y-98670616D01*
X86775026Y-98514898D01*
X86714268Y-98368216D01*
X86626061Y-98236205D01*
X86513795Y-98123939D01*
X86381784Y-98035732D01*
X86235102Y-97974974D01*
X86079384Y-97944000D01*
X85920616Y-97944000D01*
X85764898Y-97974974D01*
X85618216Y-98035732D01*
X85486205Y-98123939D01*
X85373939Y-98236205D01*
X85285732Y-98368216D01*
X85224974Y-98514898D01*
X85194000Y-98670616D01*
X69056000Y-98670616D01*
X69025026Y-98514898D01*
X68964268Y-98368216D01*
X68876061Y-98236205D01*
X68763795Y-98123939D01*
X68631784Y-98035732D01*
X68485102Y-97974974D01*
X68329384Y-97944000D01*
X68170616Y-97944000D01*
X68014898Y-97974974D01*
X67868216Y-98035732D01*
X67736205Y-98123939D01*
X67623939Y-98236205D01*
X67535732Y-98368216D01*
X67474974Y-98514898D01*
X67444000Y-98670616D01*
X66056000Y-98670616D01*
X66025026Y-98514898D01*
X65964268Y-98368216D01*
X65876061Y-98236205D01*
X65763795Y-98123939D01*
X65631784Y-98035732D01*
X65485102Y-97974974D01*
X65329384Y-97944000D01*
X65170616Y-97944000D01*
X65014898Y-97974974D01*
X64868216Y-98035732D01*
X64736205Y-98123939D01*
X64623939Y-98236205D01*
X64535732Y-98368216D01*
X64474974Y-98514898D01*
X64444000Y-98670616D01*
X55031000Y-98670616D01*
X55031000Y-98101813D01*
X55016805Y-97957690D01*
X54960711Y-97772771D01*
X54869618Y-97602349D01*
X54747028Y-97452972D01*
X54597651Y-97330382D01*
X54427228Y-97239289D01*
X54242309Y-97183195D01*
X54050000Y-97164254D01*
X53857690Y-97183195D01*
X53731000Y-97221626D01*
X53731000Y-97078374D01*
X53857691Y-97116805D01*
X54050000Y-97135746D01*
X54242310Y-97116805D01*
X54427229Y-97060711D01*
X54597651Y-96969618D01*
X54642359Y-96932927D01*
X72569000Y-96932927D01*
X72569000Y-97067073D01*
X72595171Y-97198640D01*
X72646506Y-97322574D01*
X72721033Y-97434112D01*
X72815888Y-97528967D01*
X72927426Y-97603494D01*
X73051360Y-97654829D01*
X73182927Y-97681000D01*
X73317073Y-97681000D01*
X73448640Y-97654829D01*
X73572574Y-97603494D01*
X73684112Y-97528967D01*
X73778967Y-97434112D01*
X73853494Y-97322574D01*
X73904829Y-97198640D01*
X73931000Y-97067073D01*
X73931000Y-96932927D01*
X73904829Y-96801360D01*
X73853494Y-96677426D01*
X73778967Y-96565888D01*
X73684112Y-96471033D01*
X73572574Y-96396506D01*
X73448640Y-96345171D01*
X73317073Y-96319000D01*
X73182927Y-96319000D01*
X73051360Y-96345171D01*
X72927426Y-96396506D01*
X72815888Y-96471033D01*
X72721033Y-96565888D01*
X72646506Y-96677426D01*
X72595171Y-96801360D01*
X72569000Y-96932927D01*
X54642359Y-96932927D01*
X54747028Y-96847028D01*
X54869618Y-96697651D01*
X54960711Y-96527229D01*
X55016805Y-96342310D01*
X55031000Y-96198187D01*
X55031000Y-94901813D01*
X55016805Y-94757690D01*
X54960711Y-94572771D01*
X54869618Y-94402349D01*
X54747028Y-94252972D01*
X54597651Y-94130382D01*
X54427228Y-94039289D01*
X54242309Y-93983195D01*
X54050000Y-93964254D01*
X53857690Y-93983195D01*
X53731000Y-94021626D01*
X53731000Y-91378374D01*
X53857691Y-91416805D01*
X54050000Y-91435746D01*
X54242310Y-91416805D01*
X54427229Y-91360711D01*
X54597651Y-91269618D01*
X54747028Y-91147028D01*
X54869618Y-90997651D01*
X54960711Y-90827229D01*
X55016805Y-90642310D01*
X55031000Y-90498187D01*
X55031000Y-89201813D01*
X55016805Y-89057690D01*
X54960711Y-88872771D01*
X54869618Y-88702349D01*
X54747028Y-88552972D01*
X54597651Y-88430382D01*
X54427228Y-88339289D01*
X54242309Y-88283195D01*
X54050000Y-88264254D01*
X53857690Y-88283195D01*
X53672771Y-88339289D01*
X53642164Y-88355649D01*
X53640119Y-88350687D01*
X53637261Y-88345402D01*
X53637257Y-88345393D01*
X53637252Y-88345386D01*
X53590245Y-88259881D01*
X53568189Y-88227669D01*
X53546557Y-88195110D01*
X53542721Y-88190473D01*
X53479996Y-88115721D01*
X53452103Y-88088406D01*
X53424563Y-88060673D01*
X53419899Y-88056870D01*
X53343849Y-87995724D01*
X53311146Y-87974323D01*
X53278776Y-87952490D01*
X53273473Y-87949670D01*
X53273464Y-87949664D01*
X53273455Y-87949660D01*
X53186983Y-87904454D01*
X53150748Y-87889814D01*
X53114755Y-87874684D01*
X53108994Y-87872944D01*
X53108992Y-87872943D01*
X53108988Y-87872942D01*
X53015382Y-87845392D01*
X52977027Y-87838075D01*
X52938742Y-87830217D01*
X52932759Y-87829631D01*
X52932756Y-87829630D01*
X52932753Y-87829630D01*
X52835571Y-87820786D01*
X52796509Y-87821059D01*
X52757448Y-87820786D01*
X52751458Y-87821373D01*
X52751454Y-87821373D01*
X52654410Y-87831573D01*
X52616162Y-87839424D01*
X52577772Y-87846747D01*
X52572021Y-87848484D01*
X52572011Y-87848486D01*
X52572002Y-87848490D01*
X52478792Y-87877343D01*
X52442800Y-87892472D01*
X52406559Y-87907115D01*
X52401256Y-87909935D01*
X52401248Y-87909939D01*
X52401241Y-87909944D01*
X52315408Y-87956354D01*
X52283046Y-87978182D01*
X52250337Y-87999587D01*
X52245673Y-88003390D01*
X52170485Y-88065592D01*
X52142964Y-88093305D01*
X52115052Y-88120639D01*
X52111216Y-88125276D01*
X52111213Y-88125279D01*
X52111212Y-88125281D01*
X52049540Y-88200897D01*
X52027918Y-88233440D01*
X52005850Y-88265670D01*
X52002987Y-88270964D01*
X51977446Y-88319000D01*
X48522746Y-88319000D01*
X48490245Y-88259881D01*
X48468189Y-88227669D01*
X48446557Y-88195110D01*
X48442721Y-88190473D01*
X48379996Y-88115721D01*
X48352103Y-88088406D01*
X48324563Y-88060673D01*
X48319899Y-88056870D01*
X48243849Y-87995724D01*
X48211146Y-87974323D01*
X48178776Y-87952490D01*
X48173473Y-87949670D01*
X48173464Y-87949664D01*
X48173455Y-87949660D01*
X48086983Y-87904454D01*
X48050748Y-87889814D01*
X48014755Y-87874684D01*
X48008994Y-87872944D01*
X48008992Y-87872943D01*
X48008988Y-87872942D01*
X47915382Y-87845392D01*
X47877027Y-87838075D01*
X47838742Y-87830217D01*
X47832759Y-87829631D01*
X47832756Y-87829630D01*
X47832753Y-87829630D01*
X47735571Y-87820786D01*
X47696509Y-87821059D01*
X47657448Y-87820786D01*
X47651458Y-87821373D01*
X47651454Y-87821373D01*
X47554410Y-87831573D01*
X47516162Y-87839424D01*
X47477772Y-87846747D01*
X47472021Y-87848484D01*
X47472011Y-87848486D01*
X47472002Y-87848490D01*
X47378792Y-87877343D01*
X47342800Y-87892472D01*
X47306559Y-87907115D01*
X47301256Y-87909935D01*
X47301248Y-87909939D01*
X47301241Y-87909944D01*
X47215408Y-87956354D01*
X47183046Y-87978182D01*
X47150337Y-87999587D01*
X47145673Y-88003390D01*
X47070485Y-88065592D01*
X47042964Y-88093305D01*
X47015052Y-88120639D01*
X47011216Y-88125276D01*
X47011213Y-88125279D01*
X47011212Y-88125281D01*
X46949540Y-88200897D01*
X46927918Y-88233440D01*
X46905850Y-88265670D01*
X46902987Y-88270964D01*
X46857932Y-88355701D01*
X46827228Y-88339289D01*
X46642309Y-88283195D01*
X46450000Y-88264254D01*
X46257690Y-88283195D01*
X46072771Y-88339289D01*
X45902349Y-88430382D01*
X45752972Y-88552972D01*
X45630382Y-88702349D01*
X45539289Y-88872772D01*
X45483195Y-89057691D01*
X45469000Y-89201814D01*
X45469001Y-90498187D01*
X45483196Y-90642310D01*
X45539290Y-90827229D01*
X45630383Y-90997651D01*
X45752973Y-91147028D01*
X45902350Y-91269618D01*
X46072772Y-91360711D01*
X46257691Y-91416805D01*
X46450000Y-91435746D01*
X46642310Y-91416805D01*
X46769001Y-91378374D01*
X46769001Y-94021626D01*
X46642309Y-93983195D01*
X46450000Y-93964254D01*
X46257690Y-93983195D01*
X46072771Y-94039289D01*
X45902349Y-94130382D01*
X45752972Y-94252972D01*
X45630382Y-94402349D01*
X45539289Y-94572772D01*
X45483195Y-94757691D01*
X45469000Y-94901814D01*
X45469001Y-96198187D01*
X45483196Y-96342310D01*
X45539290Y-96527229D01*
X45630383Y-96697651D01*
X45752973Y-96847028D01*
X45902350Y-96969618D01*
X45976002Y-97008986D01*
X45869467Y-97052579D01*
X45666526Y-97186922D01*
X45493693Y-97358275D01*
X45357610Y-97560054D01*
X45263507Y-97784504D01*
X45215000Y-98023000D01*
X43300335Y-98023000D01*
X43292262Y-78500000D01*
X49066915Y-78500000D01*
X49069000Y-78521169D01*
X49069001Y-83978821D01*
X49066915Y-84000000D01*
X49075237Y-84084491D01*
X49099882Y-84165734D01*
X49139903Y-84240609D01*
X49193763Y-84306237D01*
X49259391Y-84360097D01*
X49334266Y-84400118D01*
X49415509Y-84424763D01*
X49478832Y-84431000D01*
X49500000Y-84433085D01*
X49521168Y-84431000D01*
X57978832Y-84431000D01*
X58000000Y-84433085D01*
X58021168Y-84431000D01*
X58084491Y-84424763D01*
X58165734Y-84400118D01*
X58240609Y-84360097D01*
X58306237Y-84306237D01*
X58360097Y-84240609D01*
X58400118Y-84165734D01*
X58424763Y-84084491D01*
X58433085Y-84000000D01*
X58431000Y-83978832D01*
X58431000Y-81682927D01*
X59319000Y-81682927D01*
X59319000Y-81817073D01*
X59345171Y-81948640D01*
X59396506Y-82072574D01*
X59471033Y-82184112D01*
X59565888Y-82278967D01*
X59677426Y-82353494D01*
X59801360Y-82404829D01*
X59932927Y-82431000D01*
X60067073Y-82431000D01*
X60198640Y-82404829D01*
X60322574Y-82353494D01*
X60434112Y-82278967D01*
X60528967Y-82184112D01*
X60603494Y-82072574D01*
X60654829Y-81948640D01*
X60681000Y-81817073D01*
X60681000Y-81682927D01*
X60654829Y-81551360D01*
X60603494Y-81427426D01*
X60528967Y-81315888D01*
X60434112Y-81221033D01*
X60322574Y-81146506D01*
X60198640Y-81095171D01*
X60067073Y-81069000D01*
X59932927Y-81069000D01*
X59801360Y-81095171D01*
X59677426Y-81146506D01*
X59565888Y-81221033D01*
X59471033Y-81315888D01*
X59396506Y-81427426D01*
X59345171Y-81551360D01*
X59319000Y-81682927D01*
X58431000Y-81682927D01*
X58431000Y-78521168D01*
X58433085Y-78500000D01*
X58424763Y-78415509D01*
X58400118Y-78334266D01*
X58360097Y-78259391D01*
X58306237Y-78193763D01*
X58240609Y-78139903D01*
X58165734Y-78099882D01*
X58084491Y-78075237D01*
X58021168Y-78069000D01*
X58000000Y-78066915D01*
X57978832Y-78069000D01*
X49521168Y-78069000D01*
X49500000Y-78066915D01*
X49478832Y-78069000D01*
X49415509Y-78075237D01*
X49334266Y-78099882D01*
X49259391Y-78139903D01*
X49193763Y-78193763D01*
X49139903Y-78259391D01*
X49099882Y-78334266D01*
X49075237Y-78415509D01*
X49066915Y-78500000D01*
X43292262Y-78500000D01*
X43291103Y-75699457D01*
X46848000Y-75699457D01*
X46858565Y-75804994D01*
X46888971Y-75903728D01*
X46938056Y-75994633D01*
X47003931Y-76074215D01*
X47084067Y-76139417D01*
X47175383Y-76187732D01*
X47274371Y-76217303D01*
X47377225Y-76226995D01*
X65139725Y-76151995D01*
X65239780Y-76141980D01*
X65338672Y-76112092D01*
X65429834Y-76063486D01*
X65509761Y-75998029D01*
X65575382Y-75918237D01*
X65624176Y-75827176D01*
X65654268Y-75728345D01*
X65664500Y-75625543D01*
X65664827Y-75307929D01*
X66644002Y-75307929D01*
X66644002Y-75442075D01*
X66670173Y-75573642D01*
X66721508Y-75697576D01*
X66796035Y-75809114D01*
X66890890Y-75903969D01*
X67002428Y-75978496D01*
X67126362Y-76029831D01*
X67257929Y-76056002D01*
X67392075Y-76056002D01*
X67523642Y-76029831D01*
X67647576Y-75978496D01*
X67759114Y-75903969D01*
X67853969Y-75809114D01*
X67928496Y-75697576D01*
X67979831Y-75573642D01*
X68006002Y-75442075D01*
X68006002Y-75307929D01*
X67979831Y-75176362D01*
X67928496Y-75052428D01*
X67853969Y-74940890D01*
X67759114Y-74846035D01*
X67647576Y-74771508D01*
X67523642Y-74720173D01*
X67392075Y-74694002D01*
X67257929Y-74694002D01*
X67126362Y-74720173D01*
X67002428Y-74771508D01*
X66890890Y-74846035D01*
X66796035Y-74940890D01*
X66721508Y-75052428D01*
X66670173Y-75176362D01*
X66644002Y-75307929D01*
X65664827Y-75307929D01*
X65672654Y-67715928D01*
X66569001Y-70229512D01*
X66569001Y-73978821D01*
X66566915Y-74000000D01*
X66575237Y-74084491D01*
X66599882Y-74165734D01*
X66639903Y-74240609D01*
X66693763Y-74306237D01*
X66759391Y-74360097D01*
X66834266Y-74400118D01*
X66915509Y-74424763D01*
X66978832Y-74431000D01*
X67000000Y-74433085D01*
X67021168Y-74431000D01*
X68067255Y-74431000D01*
X72585633Y-87101685D01*
X72477426Y-87146506D01*
X72365888Y-87221033D01*
X72271033Y-87315888D01*
X72196506Y-87427426D01*
X72145171Y-87551360D01*
X72119000Y-87682927D01*
X72119000Y-87817073D01*
X72145171Y-87948640D01*
X72196506Y-88072574D01*
X72271033Y-88184112D01*
X72365888Y-88278967D01*
X72477426Y-88353494D01*
X72601360Y-88404829D01*
X72732927Y-88431000D01*
X72867073Y-88431000D01*
X72998640Y-88404829D01*
X73043682Y-88386172D01*
X73753617Y-90377011D01*
X73811816Y-90492786D01*
X73877355Y-90572645D01*
X73957214Y-90638184D01*
X74048326Y-90686885D01*
X74147187Y-90716874D01*
X74250000Y-90727000D01*
X80420179Y-90727000D01*
X80419000Y-90732927D01*
X80419000Y-90867073D01*
X80445171Y-90998640D01*
X80496506Y-91122574D01*
X80571033Y-91234112D01*
X80665888Y-91328967D01*
X80777426Y-91403494D01*
X80901360Y-91454829D01*
X81032927Y-91481000D01*
X81167073Y-91481000D01*
X81298640Y-91454829D01*
X81422574Y-91403494D01*
X81534112Y-91328967D01*
X81628967Y-91234112D01*
X81703494Y-91122574D01*
X81754829Y-90998640D01*
X81781000Y-90867073D01*
X81781000Y-90732927D01*
X81779821Y-90727000D01*
X88800000Y-90727000D01*
X88902813Y-90716874D01*
X89001674Y-90686885D01*
X89092786Y-90638184D01*
X89172645Y-90572645D01*
X89238184Y-90492786D01*
X89286885Y-90401674D01*
X89316874Y-90302813D01*
X89327000Y-90200000D01*
X89327000Y-84632927D01*
X92319000Y-84632927D01*
X92319000Y-84767073D01*
X92345171Y-84898640D01*
X92396506Y-85022574D01*
X92471033Y-85134112D01*
X92565888Y-85228967D01*
X92677426Y-85303494D01*
X92801360Y-85354829D01*
X92932927Y-85381000D01*
X93067073Y-85381000D01*
X93198640Y-85354829D01*
X93322574Y-85303494D01*
X93434112Y-85228967D01*
X93528967Y-85134112D01*
X93603494Y-85022574D01*
X93654829Y-84898640D01*
X93681000Y-84767073D01*
X93681000Y-84632927D01*
X93654829Y-84501360D01*
X93603494Y-84377426D01*
X93528967Y-84265888D01*
X93434112Y-84171033D01*
X93322574Y-84096506D01*
X93198640Y-84045171D01*
X93067073Y-84019000D01*
X92932927Y-84019000D01*
X92801360Y-84045171D01*
X92677426Y-84096506D01*
X92565888Y-84171033D01*
X92471033Y-84265888D01*
X92396506Y-84377426D01*
X92345171Y-84501360D01*
X92319000Y-84632927D01*
X89327000Y-84632927D01*
X89327000Y-81000000D01*
X89310471Y-80869048D01*
X89275115Y-80771977D01*
X80905538Y-63332927D01*
X87719000Y-63332927D01*
X87719000Y-63467073D01*
X87745171Y-63598640D01*
X87796506Y-63722574D01*
X87871033Y-63834112D01*
X87965888Y-63928967D01*
X88077426Y-64003494D01*
X88201360Y-64054829D01*
X88332927Y-64081000D01*
X88467073Y-64081000D01*
X88598640Y-64054829D01*
X88722574Y-64003494D01*
X88834112Y-63928967D01*
X88928967Y-63834112D01*
X89003494Y-63722574D01*
X89054829Y-63598640D01*
X89081000Y-63467073D01*
X89081000Y-63332927D01*
X89054829Y-63201360D01*
X89003494Y-63077426D01*
X88928967Y-62965888D01*
X88834112Y-62871033D01*
X88722574Y-62796506D01*
X88598640Y-62745171D01*
X88467073Y-62719000D01*
X88332927Y-62719000D01*
X88201360Y-62745171D01*
X88077426Y-62796506D01*
X87965888Y-62871033D01*
X87871033Y-62965888D01*
X87796506Y-63077426D01*
X87745171Y-63201360D01*
X87719000Y-63332927D01*
X80905538Y-63332927D01*
X78577862Y-58482927D01*
X79719000Y-58482927D01*
X79719000Y-58617073D01*
X79745171Y-58748640D01*
X79796506Y-58872574D01*
X79871033Y-58984112D01*
X79965888Y-59078967D01*
X80077426Y-59153494D01*
X80201360Y-59204829D01*
X80332927Y-59231000D01*
X80467073Y-59231000D01*
X80598640Y-59204829D01*
X80722574Y-59153494D01*
X80834112Y-59078967D01*
X80891062Y-59022017D01*
X80869000Y-59132927D01*
X80869000Y-59267073D01*
X80895171Y-59398640D01*
X80946506Y-59522574D01*
X81021033Y-59634112D01*
X81115888Y-59728967D01*
X81227426Y-59803494D01*
X81351360Y-59854829D01*
X81482927Y-59881000D01*
X81617073Y-59881000D01*
X81748640Y-59854829D01*
X81872574Y-59803494D01*
X81984112Y-59728967D01*
X82078967Y-59634112D01*
X82153494Y-59522574D01*
X82204829Y-59398640D01*
X82231000Y-59267073D01*
X82231000Y-59132927D01*
X82204829Y-59001360D01*
X82153494Y-58877426D01*
X82078967Y-58765888D01*
X81984112Y-58671033D01*
X81872574Y-58596506D01*
X81748640Y-58545171D01*
X81617073Y-58519000D01*
X81482927Y-58519000D01*
X81351360Y-58545171D01*
X81227426Y-58596506D01*
X81115888Y-58671033D01*
X81058938Y-58727983D01*
X81081000Y-58617073D01*
X81081000Y-58482927D01*
X81054829Y-58351360D01*
X81003494Y-58227426D01*
X80928967Y-58115888D01*
X80834112Y-58021033D01*
X80722574Y-57946506D01*
X80598640Y-57895171D01*
X80467073Y-57869000D01*
X80332927Y-57869000D01*
X80201360Y-57895171D01*
X80077426Y-57946506D01*
X79965888Y-58021033D01*
X79871033Y-58115888D01*
X79796506Y-58227426D01*
X79745171Y-58351360D01*
X79719000Y-58482927D01*
X78577862Y-58482927D01*
X74925115Y-50871977D01*
X74888184Y-50807214D01*
X74822645Y-50727355D01*
X74742786Y-50661816D01*
X74651674Y-50613115D01*
X74552813Y-50583126D01*
X74450000Y-50573000D01*
X62500000Y-50573000D01*
X62397187Y-50583126D01*
X62298326Y-50613115D01*
X62207214Y-50661816D01*
X62127355Y-50727355D01*
X62061816Y-50807214D01*
X62032954Y-50861210D01*
X47397775Y-50923005D01*
X47297720Y-50933020D01*
X47198828Y-50962908D01*
X47107666Y-51011514D01*
X47027739Y-51076971D01*
X46962118Y-51156763D01*
X46913324Y-51247824D01*
X46883232Y-51346655D01*
X46873000Y-51449457D01*
X46848000Y-75699457D01*
X43291103Y-75699457D01*
X43280365Y-49732927D01*
X58169000Y-49732927D01*
X58169000Y-49867073D01*
X58195171Y-49998640D01*
X58246506Y-50122574D01*
X58321033Y-50234112D01*
X58415888Y-50328967D01*
X58527426Y-50403494D01*
X58651360Y-50454829D01*
X58782927Y-50481000D01*
X58917073Y-50481000D01*
X59048640Y-50454829D01*
X59172574Y-50403494D01*
X59284112Y-50328967D01*
X59378967Y-50234112D01*
X59453494Y-50122574D01*
X59504829Y-49998640D01*
X59531000Y-49867073D01*
X59531000Y-49732927D01*
X59504829Y-49601360D01*
X59453494Y-49477426D01*
X59378967Y-49365888D01*
X59284112Y-49271033D01*
X59172574Y-49196506D01*
X59048640Y-49145171D01*
X58917073Y-49119000D01*
X58782927Y-49119000D01*
X58651360Y-49145171D01*
X58527426Y-49196506D01*
X58415888Y-49271033D01*
X58321033Y-49365888D01*
X58246506Y-49477426D01*
X58195171Y-49601360D01*
X58169000Y-49732927D01*
X43280365Y-49732927D01*
X43278235Y-44582927D01*
X60319000Y-44582927D01*
X60319000Y-44717073D01*
X60345171Y-44848640D01*
X60396506Y-44972574D01*
X60471033Y-45084112D01*
X60565888Y-45178967D01*
X60677426Y-45253494D01*
X60801360Y-45304829D01*
X60932927Y-45331000D01*
X61067073Y-45331000D01*
X61198640Y-45304829D01*
X61322574Y-45253494D01*
X61434112Y-45178967D01*
X61528967Y-45084112D01*
X61603494Y-44972574D01*
X61654829Y-44848640D01*
X61681000Y-44717073D01*
X61681000Y-44582927D01*
X61654829Y-44451360D01*
X61603494Y-44327426D01*
X61528967Y-44215888D01*
X61434112Y-44121033D01*
X61322574Y-44046506D01*
X61198640Y-43995171D01*
X61067073Y-43969000D01*
X60932927Y-43969000D01*
X60801360Y-43995171D01*
X60677426Y-44046506D01*
X60565888Y-44121033D01*
X60471033Y-44215888D01*
X60396506Y-44327426D01*
X60345171Y-44451360D01*
X60319000Y-44582927D01*
X43278235Y-44582927D01*
X43277053Y-41727000D01*
X75873000Y-41727000D01*
X75873000Y-52500000D01*
G37*
G04 #@! TD.AperFunction*
M02*
